G04 #@! TF.FileFunction,Copper,L2,Bot,Signal*
%FSLAX46Y46*%
G04 Gerber Fmt 4.6, Leading zero omitted, Abs format (unit mm)*
G04 Created by KiCad (PCBNEW 4.0.2-stable) date Fri 17 Jun 2016 01:05:30 PM EDT*
%MOMM*%
G01*
G04 APERTURE LIST*
%ADD10C,0.100000*%
%ADD11C,4.064000*%
%ADD12C,0.600000*%
%ADD13R,1.727200X1.727200*%
%ADD14O,1.727200X1.727200*%
%ADD15R,1.727200X2.032000*%
%ADD16O,1.727200X2.032000*%
%ADD17R,3.500120X3.500120*%
%ADD18O,1.600000X1.000000*%
%ADD19O,1.100000X1.500000*%
%ADD20C,0.300000*%
%ADD21C,0.250000*%
%ADD22C,0.800000*%
%ADD23C,0.600000*%
%ADD24C,0.254000*%
G04 APERTURE END LIST*
D10*
D11*
X177038000Y-118745000D03*
D12*
X125890500Y-86232500D03*
X127762000Y-86233000D03*
X127762000Y-84395000D03*
X125778000Y-84395000D03*
D13*
X161918000Y-98165000D03*
D14*
X161918000Y-95625000D03*
X164458000Y-98165000D03*
X164458000Y-95625000D03*
X166998000Y-98165000D03*
X166998000Y-95625000D03*
D15*
X161798000Y-123825000D03*
D16*
X164338000Y-123825000D03*
X166878000Y-123825000D03*
X169418000Y-123825000D03*
X171958000Y-123825000D03*
X174498000Y-123825000D03*
D13*
X169498000Y-80825000D03*
D14*
X172038000Y-80825000D03*
X169498000Y-83365000D03*
X172038000Y-83365000D03*
X169498000Y-85905000D03*
X172038000Y-85905000D03*
D13*
X161718000Y-110565000D03*
D14*
X161718000Y-108025000D03*
X164258000Y-110565000D03*
X164258000Y-108025000D03*
X166798000Y-110565000D03*
X166798000Y-108025000D03*
D13*
X132969000Y-86233000D03*
D14*
X132969000Y-83693000D03*
X135509000Y-86233000D03*
X135509000Y-83693000D03*
X138049000Y-86233000D03*
X138049000Y-83693000D03*
D11*
X177038000Y-90805000D03*
D16*
X138938000Y-123825000D03*
X141478000Y-123825000D03*
X144018000Y-123825000D03*
X146558000Y-123825000D03*
X149098000Y-123825000D03*
X151638000Y-123825000D03*
X154178000Y-123825000D03*
X156718000Y-123825000D03*
X174498000Y-75565000D03*
X171958000Y-75565000D03*
X169418000Y-75565000D03*
X166878000Y-75565000D03*
X164338000Y-75565000D03*
X161798000Y-75565000D03*
X159258000Y-75565000D03*
X156718000Y-75565000D03*
D17*
X119537480Y-118745000D03*
X113538000Y-118745000D03*
X116537740Y-123444000D03*
D18*
X112268000Y-90241000D03*
D19*
X114968000Y-84241000D03*
X114968000Y-89241000D03*
D18*
X112268000Y-83241000D03*
D16*
X152654000Y-75565000D03*
X150114000Y-75565000D03*
X147574000Y-75565000D03*
X145034000Y-75565000D03*
X142494000Y-75565000D03*
X139954000Y-75565000D03*
X137414000Y-75565000D03*
X134874000Y-75565000D03*
X132334000Y-75565000D03*
X129794000Y-75565000D03*
D13*
X173228000Y-105410000D03*
D14*
X175768000Y-105410000D03*
X173228000Y-107950000D03*
X175768000Y-107950000D03*
X173228000Y-110490000D03*
X175768000Y-110490000D03*
D13*
X173228000Y-95885000D03*
D14*
X175768000Y-95885000D03*
X173228000Y-98425000D03*
X175768000Y-98425000D03*
X173228000Y-100965000D03*
X175768000Y-100965000D03*
D11*
X126238000Y-75565000D03*
X124968000Y-123825000D03*
D12*
X143002000Y-81661000D03*
X137414000Y-78105000D03*
X118110000Y-75057000D03*
X115062000Y-75057000D03*
X115062000Y-78105000D03*
X118110000Y-78105000D03*
X115062000Y-81153000D03*
X118110000Y-81153000D03*
X117602000Y-84328000D03*
X117983000Y-92075000D03*
X117094000Y-97790000D03*
X112903000Y-101600000D03*
X112903000Y-104775000D03*
X117348000Y-106680000D03*
X115443000Y-108585000D03*
X122174000Y-107061000D03*
X123190000Y-107061000D03*
X124206000Y-107061000D03*
X125222000Y-107061000D03*
X126238000Y-107061000D03*
X122174000Y-108077000D03*
X123190000Y-108077000D03*
X124206000Y-108077000D03*
X125222000Y-108077000D03*
X126238000Y-108077000D03*
X124206000Y-109093000D03*
X125222000Y-109093000D03*
X126238000Y-109093000D03*
X120650000Y-115697000D03*
X123698000Y-115697000D03*
X112014000Y-113157000D03*
X129413000Y-115570000D03*
X129413000Y-107950000D03*
X140843000Y-110617000D03*
X138938000Y-110617000D03*
X140970000Y-112649000D03*
X140970000Y-115189000D03*
X138430000Y-115189000D03*
X143510000Y-115189000D03*
X143510000Y-111633000D03*
X143510000Y-117729000D03*
X138430000Y-117729000D03*
X147828000Y-112395000D03*
X147193000Y-108585000D03*
X151638000Y-108585000D03*
X152273000Y-104140000D03*
X146939000Y-104267000D03*
X143383000Y-101600000D03*
X140208000Y-101600000D03*
X131318000Y-94615000D03*
X128143000Y-94615000D03*
X123698000Y-95885000D03*
X123698000Y-93726000D03*
X121793000Y-99060000D03*
X124968000Y-100330000D03*
X129413000Y-102235000D03*
X128143000Y-99060000D03*
X129286000Y-90297000D03*
X112903000Y-121920000D03*
X112903000Y-125095000D03*
X120523000Y-125095000D03*
X120523000Y-121920000D03*
X129413000Y-121285000D03*
X129413000Y-125095000D03*
X136398000Y-120015000D03*
X146050000Y-121920000D03*
X156718000Y-118745000D03*
X168402000Y-119253000D03*
X168402000Y-115697000D03*
X168910000Y-109601000D03*
X178562000Y-111125000D03*
X172974000Y-115697000D03*
X139446000Y-84201000D03*
X141986000Y-84201000D03*
X152146000Y-80137000D03*
X155194000Y-78105000D03*
X154686000Y-74041000D03*
X170942000Y-78613000D03*
X175514000Y-78613000D03*
X160782000Y-89535000D03*
X166878000Y-85725000D03*
X166878000Y-89789000D03*
X172466000Y-89281000D03*
X169418000Y-95377000D03*
X169418000Y-98425000D03*
X178562000Y-97409000D03*
X178562000Y-104521000D03*
X174498000Y-104013000D03*
X168402000Y-104013000D03*
X163322000Y-104013000D03*
X146939000Y-100965000D03*
X172974000Y-119253000D03*
X158750000Y-123825000D03*
X159766000Y-125349000D03*
X119126000Y-104521000D03*
X123698000Y-82169000D03*
X163322000Y-85725000D03*
X145550509Y-84954491D03*
X143256000Y-84963000D03*
X136144000Y-84963000D03*
X147828000Y-86233000D03*
X163576000Y-90805000D03*
X157226000Y-90805000D03*
X157226000Y-93726000D03*
X126365000Y-97165000D03*
X122047000Y-82169000D03*
X133731000Y-96057000D03*
X127508000Y-97165000D03*
X136779000Y-89916000D03*
X138430000Y-89916000D03*
X146050000Y-93345000D03*
X139987980Y-93218000D03*
X136525000Y-124206000D03*
X134239000Y-118110000D03*
X126365000Y-88392000D03*
X148463000Y-86760000D03*
X123444000Y-87249000D03*
X121712000Y-110317000D03*
X122301000Y-109728000D03*
X122301000Y-109728000D03*
X163905436Y-84022436D03*
X130348000Y-111165000D03*
X125279838Y-90346164D03*
X122428000Y-88392000D03*
X153416000Y-113411000D03*
X156083000Y-113919000D03*
X113938020Y-87884000D03*
X152019000Y-96275002D03*
X150555674Y-96279998D03*
X159639000Y-94869000D03*
X156083000Y-86106000D03*
X155120202Y-87674990D03*
X141478000Y-89857646D03*
X139446000Y-89857646D03*
X143002000Y-90805000D03*
X152908000Y-100203000D03*
X139791389Y-86741000D03*
X143510000Y-86741000D03*
X146050000Y-88265000D03*
X149479000Y-115189000D03*
X150622000Y-116967000D03*
X134957464Y-80053536D03*
X148463000Y-87630000D03*
X154286931Y-106894991D03*
X144399000Y-107255020D03*
X177419000Y-102362000D03*
X135128000Y-108585000D03*
X154559000Y-101854000D03*
X156242594Y-101821406D03*
X135636000Y-122174000D03*
X138430000Y-108585000D03*
X138303000Y-100584000D03*
X134239000Y-100203000D03*
X156845000Y-108145011D03*
X121539000Y-84328000D03*
X152199310Y-92020512D03*
X147320000Y-92329000D03*
X142113000Y-87757000D03*
X169231010Y-91440000D03*
X143891000Y-89916000D03*
X147320000Y-94212989D03*
X144526000Y-94212989D03*
X165735000Y-87249000D03*
X169231010Y-87249000D03*
X131572000Y-81407000D03*
X130048000Y-79883000D03*
X129921000Y-84632510D03*
X134620000Y-125603000D03*
X160594398Y-98171000D03*
X161925000Y-92202000D03*
X154940000Y-92202009D03*
X152908000Y-97409000D03*
X161163000Y-101473000D03*
X157734000Y-101473000D03*
X149800020Y-97028000D03*
X145034000Y-109855000D03*
X150298000Y-109925000D03*
X161544000Y-115951000D03*
X148581051Y-118781949D03*
X149398000Y-117765000D03*
X151198000Y-115765000D03*
X132842000Y-92329000D03*
X129921000Y-86741000D03*
X133604000Y-89916000D03*
X129852042Y-85943064D03*
X115570000Y-105537000D03*
X117983000Y-100457000D03*
X129921000Y-82804000D03*
X158623000Y-99627990D03*
X157861000Y-95112991D03*
X171890999Y-94174001D03*
X155575000Y-100203000D03*
X168271332Y-96777668D03*
X162563613Y-96780467D03*
X160528000Y-95758000D03*
X168275000Y-100965000D03*
X154686000Y-95377000D03*
X161918000Y-104768000D03*
X155956000Y-105156000D03*
X155321000Y-94488000D03*
X154548798Y-98955691D03*
X151296998Y-98871999D03*
X165608000Y-93588991D03*
X151130000Y-94488000D03*
X157734000Y-98933000D03*
X163322000Y-99217980D03*
X159868012Y-99187000D03*
X159639000Y-102743000D03*
X155321000Y-102870000D03*
X152007000Y-100838000D03*
X167132000Y-100838000D03*
X159644167Y-105658833D03*
X161529927Y-111723981D03*
X154559000Y-113030000D03*
X149606000Y-85610000D03*
X153116135Y-83799019D03*
X152144171Y-83818171D03*
X151384172Y-83820366D03*
X164924399Y-84503601D03*
X150031290Y-84753290D03*
X148393501Y-85224829D03*
X146304000Y-95426990D03*
X135636000Y-79367107D03*
X140462000Y-95426981D03*
X140462000Y-81569379D03*
X148466050Y-95504359D03*
X148490011Y-92961002D03*
X149126685Y-91144194D03*
X135241915Y-81410988D03*
X139319000Y-82729399D03*
X170561000Y-93001998D03*
X151560990Y-91567000D03*
X150255505Y-91708505D03*
X149479000Y-111125000D03*
X145034000Y-111252000D03*
X145669000Y-96901000D03*
X149800001Y-96198999D03*
X148463000Y-90170000D03*
X144780000Y-91948000D03*
X138557000Y-120904000D03*
X136058011Y-97069011D03*
X147320000Y-96011991D03*
X138896883Y-120224234D03*
X136779000Y-96012000D03*
X152841031Y-91552359D03*
X163576000Y-80010000D03*
X156704335Y-83806335D03*
X160782000Y-79629000D03*
X154178000Y-91186000D03*
X155194000Y-85090000D03*
X154305000Y-90424000D03*
X156337000Y-89789000D03*
X155478880Y-89308032D03*
X155923060Y-83805772D03*
X154686000Y-83799020D03*
X153870270Y-83893270D03*
X134239000Y-89281000D03*
X132174336Y-89313664D03*
X143764000Y-89141197D03*
X130184991Y-88464022D03*
X144521438Y-88495338D03*
X133957194Y-88556187D03*
X131511052Y-88706948D03*
X130172433Y-87664119D03*
X152576990Y-95123000D03*
X159385000Y-98171000D03*
X153698831Y-95825485D03*
X148313482Y-96248890D03*
X151511000Y-105459990D03*
X147837969Y-105459990D03*
X159512551Y-111365283D03*
X147828000Y-114554000D03*
X152527000Y-114554000D03*
X152527000Y-111379000D03*
X153775550Y-111435797D03*
X166243000Y-114935000D03*
X153162000Y-115189000D03*
X151398000Y-117939990D03*
X150998000Y-119765000D03*
X142926991Y-94841971D03*
X156083000Y-94107000D03*
X142494000Y-99822000D03*
X137414000Y-99822000D03*
X139319000Y-113919000D03*
X156845000Y-114494010D03*
X156902070Y-99562304D03*
X143637000Y-99314000D03*
X154232313Y-108999313D03*
X158695170Y-106462167D03*
X153513775Y-96950046D03*
X159374991Y-96901000D03*
X153386919Y-106630010D03*
X141224000Y-106670010D03*
X153971929Y-106045000D03*
X159131000Y-108966000D03*
X139827000Y-106045000D03*
X149860000Y-98044000D03*
X154827919Y-98248801D03*
X158496000Y-110140010D03*
X162941000Y-117348000D03*
X154176724Y-117236720D03*
X160274000Y-110363000D03*
X161925000Y-119750991D03*
X165354000Y-119750991D03*
X154798000Y-109565000D03*
X163576000Y-113284000D03*
X158198000Y-113115000D03*
X157988000Y-114554000D03*
X174371000Y-113919000D03*
X159004000Y-112776000D03*
X160786399Y-106811399D03*
X117729000Y-87884000D03*
X116371237Y-85853642D03*
X122329864Y-86267034D03*
X121422990Y-85406112D03*
D20*
X146050000Y-93345000D02*
X146474264Y-93345000D01*
X146474264Y-93345000D02*
X146732252Y-93602988D01*
X146732252Y-93602988D02*
X149354025Y-93602988D01*
X156893456Y-93393456D02*
X157226000Y-93726000D01*
X149354025Y-93602988D02*
X149563557Y-93393456D01*
X149563557Y-93393456D02*
X156893456Y-93393456D01*
X163905436Y-84022436D02*
X164205435Y-83722437D01*
X164205435Y-83722437D02*
X167403633Y-83722437D01*
X167403633Y-83722437D02*
X169127469Y-81998601D01*
X169127469Y-81998601D02*
X170864399Y-81998601D01*
X170864399Y-81998601D02*
X171174401Y-81688599D01*
X171174401Y-81688599D02*
X172038000Y-80825000D01*
X145550509Y-84954491D02*
X145860938Y-85264920D01*
X145860938Y-85264920D02*
X145860938Y-85279062D01*
D21*
X136144000Y-84963000D02*
X143256000Y-84963000D01*
D20*
X147828000Y-86233000D02*
X146814876Y-86233000D01*
X146814876Y-86233000D02*
X145860938Y-85279062D01*
X157650264Y-90805000D02*
X163576000Y-90805000D01*
X157226000Y-90805000D02*
X157650264Y-90805000D01*
D22*
X121666000Y-112776000D02*
X121666000Y-110363000D01*
D20*
X126365000Y-88392000D02*
X126365000Y-97165000D01*
X123444000Y-83566000D02*
X122047000Y-82169000D01*
X123444000Y-86824736D02*
X123444000Y-83566000D01*
X123444000Y-87249000D02*
X123444000Y-86824736D01*
D22*
X132623000Y-97165000D02*
X133731000Y-96057000D01*
X127508000Y-97165000D02*
X132623000Y-97165000D01*
D21*
X136779000Y-89916000D02*
X138430000Y-89916000D01*
D20*
X139987980Y-93218000D02*
X145923000Y-93218000D01*
X145923000Y-93218000D02*
X146050000Y-93345000D01*
D22*
X134239000Y-118110000D02*
X134239000Y-122035002D01*
X134239000Y-122035002D02*
X136409998Y-124206000D01*
X136409998Y-124206000D02*
X136525000Y-124206000D01*
D20*
X123444000Y-87249000D02*
X124587000Y-88392000D01*
X124587000Y-88392000D02*
X126365000Y-88392000D01*
D22*
X122301000Y-109728000D02*
X121712000Y-110317000D01*
X122349366Y-113459366D02*
X121666000Y-112776000D01*
X130348000Y-111165000D02*
X129348000Y-111165000D01*
X129348000Y-111165000D02*
X127053634Y-113459366D01*
X127053634Y-113459366D02*
X122349366Y-113459366D01*
X121666000Y-110363000D02*
X121712000Y-110317000D01*
D21*
X156083000Y-113919000D02*
X153924000Y-113919000D01*
X153924000Y-113919000D02*
X153416000Y-113411000D01*
X150555674Y-96279998D02*
X152014004Y-96279998D01*
X152014004Y-96279998D02*
X152019000Y-96275002D01*
D23*
X155120202Y-87674990D02*
X155120202Y-87068798D01*
X155120202Y-87068798D02*
X156083000Y-86106000D01*
D21*
X139446000Y-89857646D02*
X141478000Y-89857646D01*
X139446000Y-89847646D02*
X139446000Y-89857646D01*
D22*
X143510000Y-86741000D02*
X139791389Y-86741000D01*
X139791389Y-86741000D02*
X139446000Y-87086389D01*
X146050000Y-88265000D02*
X144526000Y-86741000D01*
X144526000Y-86741000D02*
X143510000Y-86741000D01*
D21*
X136800829Y-82144389D02*
X139851611Y-82144389D01*
X139851611Y-82144389D02*
X139861611Y-82154389D01*
X139861611Y-82154389D02*
X141923079Y-82154389D01*
X134957464Y-80301024D02*
X135627281Y-80970841D01*
X135627281Y-80970841D02*
X135636001Y-80970841D01*
X136398000Y-81732840D02*
X136398000Y-81741560D01*
X135636001Y-80970841D02*
X136398000Y-81732840D01*
X136398000Y-81741560D02*
X136800829Y-82144389D01*
X134957464Y-80053536D02*
X134957464Y-80301024D01*
X134874000Y-75565000D02*
X134874000Y-79970072D01*
X134874000Y-79970072D02*
X134957464Y-80053536D01*
X147398689Y-87630000D02*
X141923079Y-82154389D01*
X148463000Y-87630000D02*
X147398689Y-87630000D01*
D20*
X144975255Y-107270011D02*
X144960264Y-107255020D01*
X144960264Y-107255020D02*
X144399000Y-107255020D01*
X177419000Y-102362000D02*
X164846000Y-102362000D01*
X164846000Y-102362000D02*
X164616999Y-102132999D01*
X164616999Y-102132999D02*
X156554187Y-102132999D01*
X156554187Y-102132999D02*
X156542593Y-102121405D01*
X156542593Y-102121405D02*
X156242594Y-101821406D01*
X135970990Y-122508990D02*
X138441875Y-122508990D01*
X138441875Y-122508990D02*
X138451875Y-122498990D01*
X138451875Y-122498990D02*
X145384390Y-122498990D01*
X145384390Y-122498990D02*
X146558000Y-123672600D01*
X146558000Y-123672600D02*
X146558000Y-123825000D01*
X135483001Y-108585000D02*
X135636000Y-108585000D01*
X135636000Y-108585000D02*
X138430000Y-108585000D01*
X135128000Y-108585000D02*
X135636000Y-108585000D01*
X153986932Y-107194990D02*
X154057990Y-107194990D01*
X154057990Y-107194990D02*
X154286931Y-107423931D01*
X154286931Y-107423931D02*
X155008011Y-108145011D01*
X155008011Y-108145011D02*
X155125989Y-108145011D01*
X154286931Y-106894991D02*
X154286931Y-107423931D01*
X155125989Y-108145011D02*
X156845000Y-108145011D01*
X144975255Y-107270011D02*
X153911911Y-107270011D01*
X153911911Y-107270011D02*
X153986932Y-107194990D01*
X153986932Y-107194990D02*
X154286931Y-106894991D01*
D21*
X154559000Y-101854000D02*
X156210000Y-101854000D01*
X156210000Y-101854000D02*
X156242594Y-101821406D01*
D20*
X156242594Y-101821406D02*
X156549789Y-102128601D01*
X135636000Y-122174000D02*
X135970990Y-122508990D01*
X134239000Y-100203000D02*
X134538999Y-100502999D01*
X134538999Y-100502999D02*
X138221999Y-100502999D01*
X138221999Y-100502999D02*
X138303000Y-100584000D01*
D21*
X152199310Y-92020512D02*
X152345512Y-92020512D01*
X152345512Y-92020512D02*
X152462360Y-92137360D01*
X154092442Y-92137360D02*
X154612803Y-91616999D01*
X152462360Y-92137360D02*
X154092442Y-92137360D01*
X154612803Y-91616999D02*
X167689999Y-91616999D01*
X167866998Y-91440000D02*
X169231010Y-91440000D01*
X167689999Y-91616999D02*
X167866998Y-91440000D01*
X147320000Y-92329000D02*
X151892000Y-92329000D01*
X151892000Y-92329000D02*
X151892000Y-92327822D01*
X151892000Y-92327822D02*
X152199310Y-92020512D01*
X131572000Y-81407000D02*
X132382930Y-81407000D01*
X132382930Y-81407000D02*
X134360399Y-83384469D01*
X134360399Y-83384469D02*
X134360399Y-87751399D01*
X134360399Y-87751399D02*
X134380398Y-87771398D01*
X134370399Y-87761399D02*
X134380398Y-87771398D01*
X134380398Y-87771398D02*
X142098602Y-87771398D01*
X142098602Y-87771398D02*
X142113000Y-87757000D01*
X146790989Y-94212989D02*
X147320000Y-94212989D01*
X144526000Y-94212989D02*
X146790989Y-94212989D01*
X165735000Y-87249000D02*
X169231010Y-87249000D01*
X169418000Y-85985000D02*
X169498000Y-85905000D01*
X129301446Y-80744360D02*
X129301446Y-80629554D01*
X129301446Y-80629554D02*
X130048000Y-79883000D01*
X129921000Y-84632510D02*
X129301446Y-84012956D01*
X129301446Y-84012956D02*
X129301446Y-80744360D01*
D22*
X156718000Y-123825000D02*
X156718000Y-123977400D01*
X156718000Y-123977400D02*
X155092400Y-125603000D01*
X155092400Y-125603000D02*
X134620000Y-125603000D01*
D21*
X160535011Y-96679650D02*
X160535011Y-98111613D01*
X160535011Y-98111613D02*
X160594398Y-98171000D01*
D20*
X154940000Y-92202009D02*
X161924991Y-92202009D01*
X161924991Y-92202009D02*
X161925000Y-92202000D01*
D21*
X152396969Y-97028000D02*
X152527000Y-97028000D01*
X152527000Y-97028000D02*
X152908000Y-97409000D01*
X160535011Y-96679650D02*
X161589661Y-95625000D01*
X161589661Y-95625000D02*
X161918000Y-95625000D01*
X157734000Y-101473000D02*
X161163000Y-101473000D01*
X150224284Y-97028000D02*
X149800020Y-97028000D01*
X152396969Y-97028000D02*
X150224284Y-97028000D01*
X150298000Y-109925000D02*
X145104000Y-109925000D01*
X145104000Y-109925000D02*
X145034000Y-109855000D01*
X154274040Y-116611710D02*
X154860741Y-116025009D01*
X154860741Y-116025009D02*
X161469991Y-116025009D01*
X161469991Y-116025009D02*
X161544000Y-115951000D01*
X149398000Y-117765000D02*
X149398000Y-117965000D01*
X149398000Y-117965000D02*
X148581051Y-118781949D01*
X151198000Y-115765000D02*
X152044710Y-116611710D01*
X152044710Y-116611710D02*
X154274040Y-116611710D01*
X132842000Y-92329000D02*
X132842000Y-89154000D01*
X132842000Y-89154000D02*
X130728999Y-87040999D01*
X130728999Y-87040999D02*
X130220999Y-87040999D01*
X130220999Y-87040999D02*
X129921000Y-86741000D01*
X133604000Y-89270758D02*
X133604000Y-89916000D01*
X133604000Y-89270758D02*
X130276306Y-85943064D01*
X130276306Y-85943064D02*
X129852042Y-85943064D01*
D22*
X117983000Y-100457000D02*
X117983000Y-103124000D01*
X117983000Y-103124000D02*
X115570000Y-105537000D01*
X112268000Y-90241000D02*
X113968000Y-90241000D01*
X113968000Y-90241000D02*
X114968000Y-89241000D01*
D21*
X130546001Y-84332509D02*
X129921000Y-83707508D01*
X130546001Y-84332509D02*
X130546001Y-84923601D01*
X130546001Y-84923601D02*
X131855400Y-86233000D01*
X131855400Y-86233000D02*
X132969000Y-86233000D01*
X132969000Y-85852000D02*
X132969000Y-86233000D01*
X129921000Y-83707508D02*
X129921000Y-82804000D01*
X158623000Y-99627990D02*
X158809990Y-99627990D01*
X158809990Y-99627990D02*
X158984990Y-99802990D01*
X173228000Y-95885000D02*
X173193870Y-95919130D01*
X173193870Y-95919130D02*
X173193870Y-96774000D01*
X173193870Y-96774000D02*
X170164880Y-99802990D01*
X170164880Y-99802990D02*
X158984990Y-99802990D01*
X171890999Y-94174001D02*
X158682999Y-94174001D01*
X158682999Y-94174001D02*
X157861000Y-94996000D01*
X157861000Y-94996000D02*
X157861000Y-95112991D01*
X172934269Y-99573601D02*
X173228000Y-99573601D01*
X173228000Y-99573601D02*
X174619399Y-99573601D01*
X155575000Y-100203000D02*
X155999264Y-100203000D01*
X155999264Y-100203000D02*
X156009264Y-100213000D01*
X156009264Y-100213000D02*
X172280070Y-100213000D01*
X172280070Y-100213000D02*
X172919469Y-99573601D01*
X172919469Y-99573601D02*
X173228000Y-99573601D01*
X174619399Y-99573601D02*
X174904401Y-99288599D01*
X174904401Y-99288599D02*
X175768000Y-98425000D01*
X162563613Y-96780467D02*
X168268533Y-96780467D01*
X168268533Y-96780467D02*
X168271332Y-96777668D01*
X168271332Y-96777668D02*
X168275000Y-96774000D01*
X159960001Y-95698001D02*
X160468001Y-95698001D01*
X160468001Y-95698001D02*
X160528000Y-95758000D01*
X168275000Y-100965000D02*
X173228000Y-100965000D01*
X155110264Y-95377000D02*
X155431265Y-95698001D01*
X155431265Y-95698001D02*
X159960001Y-95698001D01*
X154686000Y-95377000D02*
X155110264Y-95377000D01*
X155956000Y-105156000D02*
X156255999Y-104856001D01*
X156255999Y-104856001D02*
X161829999Y-104856001D01*
X161829999Y-104856001D02*
X161918000Y-104768000D01*
X155321000Y-94488000D02*
X155525001Y-94692001D01*
X155525001Y-94692001D02*
X157260975Y-94692001D01*
X157260975Y-94692001D02*
X157268487Y-94699513D01*
X154796247Y-94488000D02*
X155321000Y-94488000D01*
X151306998Y-98871999D02*
X154515745Y-98871999D01*
X154515745Y-98871999D02*
X154610275Y-98966529D01*
X165608000Y-93588991D02*
X165597991Y-93599000D01*
X165597991Y-93599000D02*
X158369000Y-93599000D01*
X158369000Y-93599000D02*
X157268487Y-94699513D01*
X151130000Y-94488000D02*
X154796247Y-94488000D01*
X157787079Y-98760412D02*
X157787079Y-98879921D01*
X157787079Y-98879921D02*
X157734000Y-98933000D01*
X157942412Y-98760412D02*
X157946823Y-98756001D01*
X157946823Y-98756001D02*
X159437013Y-98756001D01*
X159437013Y-98756001D02*
X159568013Y-98887001D01*
X159568013Y-98887001D02*
X159868012Y-99187000D01*
X157787079Y-98760412D02*
X157942412Y-98760412D01*
X163322000Y-99217980D02*
X163226379Y-99313601D01*
X163226379Y-99313601D02*
X160418877Y-99313601D01*
X160418877Y-99313601D02*
X160292276Y-99187000D01*
X160292276Y-99187000D02*
X159868012Y-99187000D01*
X159734001Y-99052989D02*
X159868012Y-99187000D01*
X159868012Y-99187000D02*
X159995554Y-99314542D01*
X156718000Y-102870000D02*
X159512000Y-102870000D01*
X159512000Y-102870000D02*
X159639000Y-102743000D01*
X155321000Y-102870000D02*
X156718000Y-102870000D01*
X154559000Y-100838000D02*
X152007000Y-100838000D01*
X162560000Y-100838000D02*
X162687000Y-100838000D01*
X154559000Y-100838000D02*
X162560000Y-100838000D01*
X162560000Y-100838000D02*
X167132000Y-100838000D01*
X159644167Y-105658833D02*
X172979167Y-105658833D01*
X172979167Y-105658833D02*
X173228000Y-105410000D01*
X172974000Y-105664000D02*
X173228000Y-105410000D01*
X154559000Y-113030000D02*
X155638716Y-111950284D01*
X155638716Y-111950284D02*
X161226716Y-111950284D01*
X161226716Y-111950284D02*
X161453019Y-111723981D01*
X161453019Y-111723981D02*
X161529927Y-111723981D01*
X142494000Y-75565000D02*
X142514000Y-75585000D01*
X142514000Y-75585000D02*
X142514000Y-78518000D01*
X142514000Y-78518000D02*
X149606000Y-85610000D01*
X150700673Y-80899000D02*
X150700673Y-78280327D01*
X153116135Y-83799019D02*
X153116135Y-83374755D01*
X153116135Y-83374755D02*
X150700673Y-80959293D01*
X150700673Y-80959293D02*
X150700673Y-80899000D01*
X150700673Y-78280327D02*
X152654000Y-76327000D01*
X152654000Y-76327000D02*
X152654000Y-75565000D01*
X152654000Y-75565000D02*
X152654000Y-75717400D01*
X150114000Y-80899000D02*
X150114000Y-75565000D01*
X152144171Y-83818171D02*
X152144171Y-83393907D01*
X152144171Y-83393907D02*
X150114000Y-81363736D01*
X150114000Y-81363736D02*
X150114000Y-80899000D01*
X151384172Y-83820366D02*
X147574000Y-80010194D01*
X147574000Y-80010194D02*
X147574000Y-79705381D01*
X147574000Y-79705381D02*
X147574000Y-75565000D01*
X164924399Y-84503601D02*
X165348663Y-84503601D01*
X165348663Y-84503601D02*
X165358663Y-84513601D01*
X165358663Y-84513601D02*
X170889399Y-84513601D01*
X170889399Y-84513601D02*
X171174401Y-84228599D01*
X171174401Y-84228599D02*
X172038000Y-83365000D01*
X145034000Y-75565000D02*
X145034000Y-79756000D01*
X145034000Y-79756000D02*
X150031290Y-84753290D01*
X140082000Y-76963000D02*
X148343829Y-85224829D01*
X139954000Y-75565000D02*
X139954000Y-76963000D01*
X139954000Y-76963000D02*
X140082000Y-76963000D01*
X148343829Y-85224829D02*
X148393501Y-85224829D01*
X139954000Y-75565000D02*
X139954000Y-75717400D01*
X146558000Y-95426990D02*
X147586001Y-95426990D01*
X145238028Y-95426990D02*
X146558000Y-95426990D01*
X146558000Y-95426990D02*
X146304000Y-95426990D01*
X145103999Y-95426981D02*
X145238019Y-95426981D01*
X145238019Y-95426981D02*
X145238028Y-95426990D01*
X147586001Y-95426990D02*
X147596001Y-95436990D01*
X140462000Y-95426981D02*
X145103999Y-95426981D01*
X135636000Y-79367107D02*
X135636000Y-80391000D01*
X140462000Y-81579379D02*
X136824379Y-81579379D01*
X140462000Y-81579379D02*
X140462000Y-81569379D01*
X136824379Y-81579379D02*
X135636000Y-80391000D01*
X147596001Y-95436990D02*
X148398681Y-95436990D01*
X148398681Y-95436990D02*
X148466050Y-95504359D01*
X148490011Y-92961002D02*
X149380814Y-92961002D01*
X149380814Y-92961002D02*
X149554806Y-92787010D01*
X149554806Y-92787010D02*
X169921748Y-92787010D01*
X169921748Y-92787010D02*
X170136736Y-93001998D01*
X170136736Y-93001998D02*
X170561000Y-93001998D01*
X149126685Y-91144194D02*
X149126685Y-87889487D01*
X150616291Y-86342511D02*
X149098000Y-87860802D01*
X149098000Y-87860802D02*
X148743801Y-88215001D01*
X149126685Y-87889487D02*
X149098000Y-87860802D01*
X129794000Y-75717400D02*
X133658339Y-79756000D01*
X133658339Y-79756000D02*
X135241915Y-81410988D01*
X133725390Y-74936831D02*
X133725390Y-79688949D01*
X133725390Y-79688949D02*
X133658339Y-79756000D01*
X133725390Y-74936831D02*
X134398231Y-74263990D01*
X134398231Y-74263990D02*
X145509769Y-74263990D01*
X145509769Y-74263990D02*
X146182610Y-74936831D01*
X146182610Y-74936831D02*
X146182610Y-80038808D01*
X150616291Y-84472489D02*
X150616291Y-86342511D01*
X146182610Y-80038808D02*
X150616291Y-84472489D01*
X148743801Y-88215001D02*
X147403849Y-88215001D01*
X147403849Y-88215001D02*
X141918247Y-82729399D01*
X141918247Y-82729399D02*
X139319000Y-82729399D01*
X170523002Y-92964000D02*
X170561000Y-93001998D01*
X129794000Y-75565000D02*
X129794000Y-75717400D01*
X169418000Y-123825000D02*
X169418000Y-123977400D01*
X151560990Y-91567000D02*
X150397010Y-91567000D01*
X150397010Y-91567000D02*
X150255505Y-91708505D01*
X145034000Y-111252000D02*
X149352000Y-111252000D01*
X149352000Y-111252000D02*
X149479000Y-111125000D01*
X146558000Y-96901000D02*
X145669000Y-96901000D01*
X146558000Y-96901000D02*
X149098000Y-96901000D01*
X149098000Y-96901000D02*
X149334341Y-96664659D01*
X149800001Y-96198999D02*
X149334341Y-96664659D01*
X147889055Y-90254955D02*
X148378045Y-90254955D01*
X148378045Y-90254955D02*
X148463000Y-90170000D01*
X144858612Y-90248612D02*
X144780000Y-90327224D01*
X144780000Y-90327224D02*
X144780000Y-91948000D01*
X147889055Y-90254955D02*
X144845787Y-90248612D01*
X144864955Y-90254955D02*
X144858612Y-90248612D01*
X144858612Y-90248612D02*
X144845787Y-90248612D01*
X169164000Y-120911011D02*
X168739736Y-120911011D01*
X168735745Y-120915002D02*
X138568002Y-120915002D01*
X168739736Y-120911011D02*
X168735745Y-120915002D01*
X138568002Y-120915002D02*
X138557000Y-120904000D01*
X170568238Y-122282838D02*
X170535827Y-122282838D01*
X170535827Y-122282838D02*
X169164000Y-120911011D01*
X170568238Y-122282838D02*
X171958000Y-123672600D01*
X171958000Y-123672600D02*
X171958000Y-123825000D01*
X136058011Y-97069011D02*
X136058011Y-92541989D01*
X136058011Y-92541989D02*
X136652000Y-91948000D01*
X136652000Y-91948000D02*
X144780000Y-91948000D01*
X138811000Y-96012000D02*
X138811009Y-96011991D01*
X138811009Y-96011991D02*
X147320000Y-96011991D01*
X139177641Y-120504992D02*
X168565914Y-120504992D01*
X168565914Y-120504992D02*
X168569905Y-120501001D01*
X168569905Y-120501001D02*
X171326401Y-120501001D01*
X171326401Y-120501001D02*
X174498000Y-123672600D01*
X174498000Y-123672600D02*
X174498000Y-123825000D01*
X138896883Y-120224234D02*
X139177641Y-120504992D01*
X136779000Y-96012000D02*
X138430000Y-96012000D01*
X138430000Y-96012000D02*
X138811000Y-96012000D01*
X138430009Y-96011991D02*
X138430000Y-96012000D01*
X172491400Y-121666000D02*
X172466000Y-121666000D01*
X174498000Y-123672600D02*
X172491400Y-121666000D01*
X152841031Y-91552359D02*
X152841031Y-85791969D01*
X154237999Y-84395001D02*
X156942997Y-84395001D01*
X152841031Y-85791969D02*
X154237999Y-84395001D01*
X156942997Y-84395001D02*
X161327998Y-80010000D01*
X161327998Y-80010000D02*
X163576000Y-80010000D01*
X156704335Y-83806335D02*
X160782000Y-79728670D01*
X160782000Y-79728670D02*
X160782000Y-79629000D01*
X160655000Y-79629000D02*
X160782000Y-79629000D01*
X153270012Y-90202200D02*
X153270012Y-90043000D01*
X153270012Y-90043000D02*
X153270012Y-87013988D01*
X154178000Y-91186000D02*
X153270012Y-90278012D01*
X153270012Y-90278012D02*
X153270012Y-90043000D01*
X153270012Y-87013988D02*
X155194000Y-85090000D01*
X163877070Y-83185000D02*
X164163032Y-83185000D01*
X154305000Y-90424000D02*
X154888678Y-91007678D01*
X154888678Y-91007678D02*
X156054392Y-91007678D01*
X164163032Y-83185000D02*
X169418000Y-77930032D01*
X156054392Y-91007678D02*
X163877070Y-83185000D01*
X169418000Y-77930032D02*
X169418000Y-77597000D01*
X169418000Y-77597000D02*
X169418000Y-75565000D01*
X156337000Y-89789000D02*
X166878000Y-79248000D01*
X166878000Y-79248000D02*
X166878000Y-75565000D01*
X156538127Y-89008033D02*
X164338000Y-81208160D01*
X164338000Y-81208160D02*
X164338000Y-75565000D01*
X155478880Y-89308032D02*
X155778879Y-89008033D01*
X155778879Y-89008033D02*
X156538127Y-89008033D01*
X164338000Y-75565000D02*
X164338000Y-75717400D01*
X155923060Y-83805772D02*
X155923060Y-83381508D01*
X155923060Y-83381508D02*
X161798000Y-77506568D01*
X161798000Y-77506568D02*
X161798000Y-77470000D01*
X161798000Y-77470000D02*
X161798000Y-75565000D01*
X154686000Y-83799020D02*
X159258000Y-79227020D01*
X159258000Y-79227020D02*
X159258000Y-75565000D01*
X153870270Y-83893270D02*
X153870270Y-83707757D01*
X156718000Y-80860027D02*
X156718000Y-76831000D01*
X153870270Y-83707757D02*
X156718000Y-80860027D01*
X156718000Y-76831000D02*
X156718000Y-75565000D01*
X134239000Y-89281000D02*
X139156844Y-89281000D01*
X139156844Y-89281000D02*
X139165208Y-89272636D01*
X139165208Y-89272636D02*
X142121364Y-89272636D01*
X131052918Y-89331949D02*
X132156051Y-89331949D01*
X132156051Y-89331949D02*
X132174336Y-89313664D01*
X142121364Y-89272636D02*
X143632561Y-89272636D01*
X143632561Y-89272636D02*
X143764000Y-89141197D01*
X142121364Y-89272636D02*
X142129728Y-89281000D01*
X130184991Y-88464022D02*
X131052918Y-89331949D01*
X133957194Y-88556187D02*
X144460589Y-88556187D01*
X144460589Y-88556187D02*
X144521438Y-88495338D01*
X130172433Y-87664119D02*
X130468223Y-87664119D01*
X130468223Y-87664119D02*
X131511052Y-88706948D01*
X152322990Y-95377000D02*
X152576990Y-95123000D01*
X152916191Y-95462201D02*
X152576990Y-95123000D01*
X153501201Y-95462201D02*
X154305000Y-96266000D01*
X154305000Y-96266000D02*
X159601002Y-96266000D01*
X153335547Y-95462201D02*
X153501201Y-95462201D01*
X159601002Y-96266000D02*
X159960001Y-96624999D01*
X159960001Y-96624999D02*
X159960001Y-97595999D01*
X159960001Y-97595999D02*
X159385000Y-98171000D01*
X152916191Y-95462201D02*
X153335547Y-95462201D01*
X153335547Y-95462201D02*
X153698831Y-95825485D01*
X152102736Y-95377000D02*
X152322990Y-95377000D01*
X147837969Y-105459990D02*
X151511000Y-105459990D01*
X147837969Y-105459990D02*
X147828000Y-105459990D01*
X147838000Y-105469990D02*
X147838000Y-105460021D01*
X147838000Y-105460021D02*
X147837969Y-105459990D01*
X148315489Y-96239094D02*
X148908904Y-96239094D01*
X149770998Y-95377000D02*
X152102736Y-95377000D01*
X148908904Y-96239094D02*
X149770998Y-95377000D01*
X153775550Y-111435797D02*
X159442037Y-111435797D01*
X159442037Y-111435797D02*
X159512551Y-111365283D01*
X152527000Y-114554000D02*
X147828000Y-114554000D01*
X153775550Y-111435797D02*
X152583797Y-111435797D01*
X152583797Y-111435797D02*
X152527000Y-111379000D01*
X153162000Y-115189000D02*
X165862000Y-115189000D01*
X165862000Y-115189000D02*
X166116000Y-114935000D01*
X166116000Y-114935000D02*
X166243000Y-114935000D01*
X150998000Y-119765000D02*
X150998000Y-118339990D01*
X150998000Y-118339990D02*
X151398000Y-117939990D01*
X156083000Y-94107000D02*
X155804466Y-93828466D01*
X155804466Y-93828466D02*
X150923732Y-93828466D01*
X150923732Y-93828466D02*
X150025189Y-94727009D01*
X150025189Y-94727009D02*
X150025189Y-94742000D01*
X139319000Y-113919000D02*
X152743002Y-113919000D01*
X152743002Y-113919000D02*
X153505002Y-114681000D01*
X153505002Y-114681000D02*
X156658010Y-114681000D01*
X156658010Y-114681000D02*
X156845000Y-114494010D01*
X150025189Y-94742000D02*
X149978999Y-94787999D01*
X142926991Y-94841971D02*
X149925218Y-94841971D01*
X149925218Y-94841971D02*
X150025189Y-94742000D01*
X137414000Y-99822000D02*
X142494000Y-99822000D01*
X143864530Y-99541530D02*
X156902070Y-99562304D01*
X156902070Y-99562304D02*
X156770235Y-99541530D01*
X143637000Y-99314000D02*
X143864530Y-99541530D01*
X154232313Y-108999313D02*
X154532312Y-108699314D01*
X154532312Y-108699314D02*
X154857316Y-108699314D01*
X154857316Y-108699314D02*
X155272992Y-109114990D01*
X158695170Y-108467830D02*
X158695170Y-106462167D01*
X155272992Y-109114990D02*
X158048010Y-109114990D01*
X158048010Y-109114990D02*
X158695170Y-108467830D01*
X158524424Y-106462167D02*
X158695170Y-106462167D01*
X153513775Y-96950046D02*
X153513776Y-96950046D01*
X153521406Y-96957677D02*
X153513775Y-96950046D01*
X153522136Y-96963986D02*
X153521407Y-96963986D01*
X153521407Y-96963986D02*
X153521406Y-96957677D01*
X153513776Y-96950046D02*
X153518012Y-96960591D01*
X158496000Y-96963986D02*
X159312005Y-96963986D01*
X159312005Y-96963986D02*
X159374991Y-96901000D01*
X158496000Y-96963986D02*
X158369000Y-96963899D01*
X158369000Y-96963899D02*
X153518012Y-96960591D01*
X141224000Y-106670010D02*
X153442937Y-106670010D01*
X159320171Y-106162166D02*
X159320171Y-108776829D01*
X159320171Y-108776829D02*
X159131000Y-108966000D01*
X139827000Y-106045000D02*
X153961920Y-106045000D01*
X159320171Y-106162166D02*
X158903006Y-105745001D01*
X158903006Y-105745001D02*
X154261919Y-105745001D01*
X154261919Y-105745001D02*
X153961920Y-106045000D01*
X149860000Y-98044000D02*
X154198854Y-98044000D01*
X154198854Y-98044000D02*
X154403655Y-98248801D01*
X154403655Y-98248801D02*
X154827919Y-98248801D01*
X149965034Y-98149034D02*
X149860000Y-98044000D01*
X158496000Y-110140010D02*
X160051010Y-110140010D01*
X160051010Y-110140010D02*
X160274000Y-110363000D01*
X162941000Y-117348000D02*
X161545834Y-117348000D01*
X161545834Y-117348000D02*
X161434554Y-117236720D01*
X161434554Y-117236720D02*
X154176724Y-117236720D01*
X160147000Y-110236000D02*
X160274000Y-110363000D01*
X154798000Y-109565000D02*
X155103000Y-109565000D01*
X155103000Y-109565000D02*
X155112991Y-109555009D01*
X155112991Y-109555009D02*
X160395807Y-109555009D01*
X163394401Y-108888599D02*
X164258000Y-108025000D01*
X160395807Y-109555009D02*
X160534417Y-109416399D01*
X160534417Y-109416399D02*
X162866601Y-109416399D01*
X162866601Y-109416399D02*
X163394401Y-108888599D01*
X165354000Y-119750991D02*
X161925000Y-119750991D01*
X163576000Y-113284000D02*
X163449000Y-113284000D01*
X163449000Y-113284000D02*
X163318001Y-113414999D01*
X163318001Y-113414999D02*
X158497999Y-113414999D01*
X163449000Y-113411000D02*
X163576000Y-113284000D01*
X158198000Y-113115000D02*
X158497999Y-113414999D01*
X158497999Y-113414999D02*
X158499999Y-113414999D01*
X174371000Y-113919000D02*
X166393198Y-113919000D01*
X166393198Y-113919000D02*
X165735000Y-114577198D01*
X158011198Y-114577198D02*
X157988000Y-114554000D01*
X165735000Y-114577198D02*
X158011198Y-114577198D01*
X159004000Y-112776000D02*
X163158998Y-112776000D01*
X172583010Y-113293990D02*
X173228000Y-112649000D01*
X163158998Y-112776000D02*
X163275999Y-112658999D01*
X164211009Y-112658999D02*
X164846000Y-113293990D01*
X163275999Y-112658999D02*
X164211009Y-112658999D01*
X164846000Y-113293990D02*
X172583010Y-113293990D01*
X173228000Y-112649000D02*
X173228000Y-110490000D01*
X175768000Y-107950000D02*
X174619399Y-106801399D01*
X174619399Y-106801399D02*
X161220663Y-106801399D01*
X161220663Y-106801399D02*
X161210663Y-106811399D01*
X161210663Y-106811399D02*
X160786399Y-106811399D01*
X117143476Y-86794659D02*
X117143476Y-87298476D01*
X117143476Y-87298476D02*
X117729000Y-87884000D01*
X117143476Y-86625881D02*
X117143476Y-86794659D01*
X116371237Y-85853642D02*
X117143476Y-86625881D01*
X121422990Y-85406112D02*
X121468942Y-85406112D01*
X121468942Y-85406112D02*
X122329864Y-86267034D01*
D24*
G36*
X124605577Y-73752972D02*
X126238000Y-75385395D01*
X127870423Y-73752972D01*
X127745847Y-73577000D01*
X175285354Y-73577000D01*
X176486000Y-74777646D01*
X176486000Y-85979000D01*
X176528018Y-86190242D01*
X176647677Y-86369323D01*
X179026000Y-88747646D01*
X179026000Y-89297153D01*
X178850028Y-89172577D01*
X177217605Y-90805000D01*
X178850028Y-92437423D01*
X179026000Y-92312847D01*
X179026000Y-117237153D01*
X178850028Y-117112577D01*
X177217605Y-118745000D01*
X178850028Y-120377423D01*
X179026000Y-120252847D01*
X179026000Y-121056354D01*
X176647677Y-123434677D01*
X176528018Y-123613758D01*
X176497877Y-123765290D01*
X176486000Y-123825000D01*
X176486000Y-125813000D01*
X156122666Y-125813000D01*
X156609915Y-125325751D01*
X156718000Y-125347250D01*
X157231025Y-125245203D01*
X157665947Y-124954597D01*
X157956553Y-124519675D01*
X158058600Y-124006650D01*
X158058600Y-123643350D01*
X157956553Y-123130325D01*
X157665947Y-122695403D01*
X157231025Y-122404797D01*
X156718000Y-122302750D01*
X156204975Y-122404797D01*
X155770053Y-122695403D01*
X155479447Y-123130325D01*
X155444347Y-123306787D01*
X155335345Y-122993169D01*
X154987240Y-122601991D01*
X154512209Y-122374327D01*
X154305000Y-122457871D01*
X154305000Y-123698000D01*
X154325000Y-123698000D01*
X154325000Y-123952000D01*
X154305000Y-123952000D01*
X154305000Y-123972000D01*
X154051000Y-123972000D01*
X154051000Y-123952000D01*
X152955450Y-123952000D01*
X152908000Y-124045481D01*
X152860550Y-123952000D01*
X151765000Y-123952000D01*
X151765000Y-123972000D01*
X151511000Y-123972000D01*
X151511000Y-123952000D01*
X151491000Y-123952000D01*
X151491000Y-123698000D01*
X151511000Y-123698000D01*
X151511000Y-122457871D01*
X151765000Y-122457871D01*
X151765000Y-123698000D01*
X152860550Y-123698000D01*
X152908000Y-123604519D01*
X152955450Y-123698000D01*
X154051000Y-123698000D01*
X154051000Y-122457871D01*
X153843791Y-122374327D01*
X153368760Y-122601991D01*
X153020655Y-122993169D01*
X152908000Y-123317299D01*
X152795345Y-122993169D01*
X152447240Y-122601991D01*
X151972209Y-122374327D01*
X151765000Y-122457871D01*
X151511000Y-122457871D01*
X151303791Y-122374327D01*
X150828760Y-122601991D01*
X150480655Y-122993169D01*
X150371653Y-123306787D01*
X150336553Y-123130325D01*
X150045947Y-122695403D01*
X149611025Y-122404797D01*
X149098000Y-122302750D01*
X148584975Y-122404797D01*
X148150053Y-122695403D01*
X147859447Y-123130325D01*
X147828000Y-123288420D01*
X147796553Y-123130325D01*
X147505947Y-122695403D01*
X147071025Y-122404797D01*
X146558000Y-122302750D01*
X146155020Y-122382908D01*
X145827746Y-122055634D01*
X145774600Y-122020123D01*
X145624333Y-121919718D01*
X145384390Y-121871990D01*
X138451875Y-121871990D01*
X138401602Y-121881990D01*
X136356059Y-121881990D01*
X136295092Y-121734440D01*
X136076710Y-121515676D01*
X135791233Y-121397135D01*
X135482123Y-121396866D01*
X135196440Y-121514908D01*
X135116000Y-121595208D01*
X135116000Y-121057877D01*
X137779866Y-121057877D01*
X137897908Y-121343560D01*
X138116290Y-121562324D01*
X138401767Y-121680865D01*
X138710877Y-121681134D01*
X138996560Y-121563092D01*
X139042731Y-121517002D01*
X168735745Y-121517002D01*
X168755809Y-121513011D01*
X168914644Y-121513011D01*
X169775492Y-122373860D01*
X169418000Y-122302750D01*
X168904975Y-122404797D01*
X168470053Y-122695403D01*
X168179447Y-123130325D01*
X168148000Y-123288420D01*
X168116553Y-123130325D01*
X167825947Y-122695403D01*
X167391025Y-122404797D01*
X166878000Y-122302750D01*
X166364975Y-122404797D01*
X165930053Y-122695403D01*
X165639447Y-123130325D01*
X165608000Y-123288420D01*
X165576553Y-123130325D01*
X165285947Y-122695403D01*
X164851025Y-122404797D01*
X164338000Y-122302750D01*
X163824975Y-122404797D01*
X163390053Y-122695403D01*
X163147944Y-123057744D01*
X163147944Y-122809000D01*
X163114683Y-122632235D01*
X163010215Y-122469887D01*
X162850815Y-122360973D01*
X162661600Y-122322656D01*
X160934400Y-122322656D01*
X160757635Y-122355917D01*
X160595287Y-122460385D01*
X160486373Y-122619785D01*
X160448056Y-122809000D01*
X160448056Y-124841000D01*
X160481317Y-125017765D01*
X160585785Y-125180113D01*
X160745185Y-125289027D01*
X160934400Y-125327344D01*
X162661600Y-125327344D01*
X162838365Y-125294083D01*
X163000713Y-125189615D01*
X163109627Y-125030215D01*
X163147944Y-124841000D01*
X163147944Y-124592256D01*
X163390053Y-124954597D01*
X163824975Y-125245203D01*
X164338000Y-125347250D01*
X164851025Y-125245203D01*
X165285947Y-124954597D01*
X165576553Y-124519675D01*
X165608000Y-124361580D01*
X165639447Y-124519675D01*
X165930053Y-124954597D01*
X166364975Y-125245203D01*
X166878000Y-125347250D01*
X167391025Y-125245203D01*
X167825947Y-124954597D01*
X168116553Y-124519675D01*
X168148000Y-124361580D01*
X168179447Y-124519675D01*
X168470053Y-124954597D01*
X168904975Y-125245203D01*
X169418000Y-125347250D01*
X169931025Y-125245203D01*
X170365947Y-124954597D01*
X170656553Y-124519675D01*
X170688000Y-124361580D01*
X170719447Y-124519675D01*
X171010053Y-124954597D01*
X171444975Y-125245203D01*
X171958000Y-125347250D01*
X172471025Y-125245203D01*
X172905947Y-124954597D01*
X173196553Y-124519675D01*
X173228000Y-124361580D01*
X173259447Y-124519675D01*
X173550053Y-124954597D01*
X173984975Y-125245203D01*
X174498000Y-125347250D01*
X175011025Y-125245203D01*
X175445947Y-124954597D01*
X175736553Y-124519675D01*
X175838600Y-124006650D01*
X175838600Y-123643350D01*
X175736553Y-123130325D01*
X175445947Y-122695403D01*
X175011025Y-122404797D01*
X174498000Y-122302750D01*
X174065530Y-122388774D01*
X172233784Y-120557028D01*
X175405577Y-120557028D01*
X175638953Y-120886687D01*
X176565037Y-121259053D01*
X177563126Y-121248677D01*
X178437047Y-120886687D01*
X178670423Y-120557028D01*
X177038000Y-118924605D01*
X175405577Y-120557028D01*
X172233784Y-120557028D01*
X171752079Y-120075323D01*
X171556776Y-119944826D01*
X171326401Y-119899001D01*
X168569905Y-119899001D01*
X168549841Y-119902992D01*
X166130868Y-119902992D01*
X166131134Y-119597114D01*
X166013092Y-119311431D01*
X165794710Y-119092667D01*
X165509233Y-118974126D01*
X165200123Y-118973857D01*
X164914440Y-119091899D01*
X164857248Y-119148991D01*
X162421936Y-119148991D01*
X162365710Y-119092667D01*
X162080233Y-118974126D01*
X161771123Y-118973857D01*
X161485440Y-119091899D01*
X161266676Y-119310281D01*
X161148135Y-119595758D01*
X161147868Y-119902992D01*
X151774880Y-119902992D01*
X151775134Y-119611123D01*
X151657092Y-119325440D01*
X151600000Y-119268248D01*
X151600000Y-118697240D01*
X151837560Y-118599082D01*
X152056324Y-118380700D01*
X152101445Y-118272037D01*
X174523947Y-118272037D01*
X174534323Y-119270126D01*
X174896313Y-120144047D01*
X175225972Y-120377423D01*
X176858395Y-118745000D01*
X175225972Y-117112577D01*
X174896313Y-117345953D01*
X174523947Y-118272037D01*
X152101445Y-118272037D01*
X152174865Y-118095223D01*
X152175134Y-117786113D01*
X152057092Y-117500430D01*
X151838710Y-117281666D01*
X151553233Y-117163125D01*
X151244123Y-117162856D01*
X150958440Y-117280898D01*
X150739676Y-117499280D01*
X150621135Y-117784757D01*
X150621065Y-117865569D01*
X150572322Y-117914312D01*
X150441825Y-118109615D01*
X150396000Y-118339990D01*
X150396000Y-119268064D01*
X150339676Y-119324290D01*
X150221135Y-119609767D01*
X150220880Y-119902992D01*
X139604863Y-119902992D01*
X139555975Y-119784674D01*
X139337593Y-119565910D01*
X139052116Y-119447369D01*
X138743006Y-119447100D01*
X138457323Y-119565142D01*
X138238559Y-119783524D01*
X138120018Y-120069001D01*
X138119866Y-120243906D01*
X138117440Y-120244908D01*
X137898676Y-120463290D01*
X137780135Y-120748767D01*
X137779866Y-121057877D01*
X135116000Y-121057877D01*
X135116000Y-118935826D01*
X147803917Y-118935826D01*
X147921959Y-119221509D01*
X148140341Y-119440273D01*
X148425818Y-119558814D01*
X148734928Y-119559083D01*
X149020611Y-119441041D01*
X149239375Y-119222659D01*
X149357916Y-118937182D01*
X149357986Y-118856370D01*
X149756963Y-118457394D01*
X149837560Y-118424092D01*
X150056324Y-118205710D01*
X150174865Y-117920233D01*
X150175134Y-117611123D01*
X150057092Y-117325440D01*
X149838710Y-117106676D01*
X149553233Y-116988135D01*
X149244123Y-116987866D01*
X148958440Y-117105908D01*
X148739676Y-117324290D01*
X148621135Y-117609767D01*
X148620890Y-117890753D01*
X148506759Y-118004884D01*
X148427174Y-118004815D01*
X148141491Y-118122857D01*
X147922727Y-118341239D01*
X147804186Y-118626716D01*
X147803917Y-118935826D01*
X135116000Y-118935826D01*
X135116000Y-118110000D01*
X135049242Y-117774387D01*
X134859133Y-117489867D01*
X134574613Y-117299758D01*
X134239000Y-117233000D01*
X133903387Y-117299758D01*
X133618867Y-117489867D01*
X133428758Y-117774387D01*
X133362000Y-118110000D01*
X133362000Y-122035002D01*
X133428758Y-122370615D01*
X133618867Y-122655135D01*
X135689732Y-124726000D01*
X134620000Y-124726000D01*
X134284387Y-124792758D01*
X133999867Y-124982867D01*
X133809758Y-125267387D01*
X133743000Y-125603000D01*
X133784772Y-125813000D01*
X126475847Y-125813000D01*
X126600423Y-125637028D01*
X124968000Y-124004605D01*
X123335577Y-125637028D01*
X123460153Y-125813000D01*
X111550000Y-125813000D01*
X111550000Y-121693940D01*
X114301336Y-121693940D01*
X114301336Y-125194060D01*
X114334597Y-125370825D01*
X114439065Y-125533173D01*
X114598465Y-125642087D01*
X114787680Y-125680404D01*
X118287800Y-125680404D01*
X118464565Y-125647143D01*
X118626913Y-125542675D01*
X118735827Y-125383275D01*
X118774144Y-125194060D01*
X118774144Y-123352037D01*
X122453947Y-123352037D01*
X122464323Y-124350126D01*
X122826313Y-125224047D01*
X123155972Y-125457423D01*
X124788395Y-123825000D01*
X125147605Y-123825000D01*
X126780028Y-125457423D01*
X127109687Y-125224047D01*
X127482053Y-124297963D01*
X127471677Y-123299874D01*
X127109687Y-122425953D01*
X126780028Y-122192577D01*
X125147605Y-123825000D01*
X124788395Y-123825000D01*
X123155972Y-122192577D01*
X122826313Y-122425953D01*
X122453947Y-123352037D01*
X118774144Y-123352037D01*
X118774144Y-122012972D01*
X123335577Y-122012972D01*
X124968000Y-123645395D01*
X126600423Y-122012972D01*
X126367047Y-121683313D01*
X125440963Y-121310947D01*
X124442874Y-121321323D01*
X123568953Y-121683313D01*
X123335577Y-122012972D01*
X118774144Y-122012972D01*
X118774144Y-121693940D01*
X118740883Y-121517175D01*
X118636415Y-121354827D01*
X118477015Y-121245913D01*
X118287800Y-121207596D01*
X114787680Y-121207596D01*
X114610915Y-121240857D01*
X114448567Y-121345325D01*
X114339653Y-121504725D01*
X114301336Y-121693940D01*
X111550000Y-121693940D01*
X111550000Y-120909794D01*
X111598725Y-120943087D01*
X111787940Y-120981404D01*
X115288060Y-120981404D01*
X115464825Y-120948143D01*
X115627173Y-120843675D01*
X115736087Y-120684275D01*
X115774404Y-120495060D01*
X115774404Y-116994940D01*
X117301076Y-116994940D01*
X117301076Y-120495060D01*
X117334337Y-120671825D01*
X117438805Y-120834173D01*
X117598205Y-120943087D01*
X117787420Y-120981404D01*
X121287540Y-120981404D01*
X121464305Y-120948143D01*
X121626653Y-120843675D01*
X121735567Y-120684275D01*
X121773884Y-120495060D01*
X121773884Y-116994940D01*
X121740623Y-116818175D01*
X121636155Y-116655827D01*
X121476755Y-116546913D01*
X121287540Y-116508596D01*
X117787420Y-116508596D01*
X117610655Y-116541857D01*
X117448307Y-116646325D01*
X117339393Y-116805725D01*
X117301076Y-116994940D01*
X115774404Y-116994940D01*
X115741143Y-116818175D01*
X115636675Y-116655827D01*
X115477275Y-116546913D01*
X115288060Y-116508596D01*
X111787940Y-116508596D01*
X111611175Y-116541857D01*
X111550000Y-116581222D01*
X111550000Y-110363000D01*
X120789000Y-110363000D01*
X120789000Y-112776000D01*
X120855758Y-113111613D01*
X121045867Y-113396133D01*
X121729231Y-114079496D01*
X121729233Y-114079499D01*
X121846921Y-114158135D01*
X122013752Y-114269608D01*
X122349366Y-114336366D01*
X127053634Y-114336366D01*
X127389247Y-114269608D01*
X127673767Y-114079499D01*
X127673768Y-114079498D01*
X127680388Y-114072877D01*
X138541866Y-114072877D01*
X138659908Y-114358560D01*
X138878290Y-114577324D01*
X139163767Y-114695865D01*
X139472877Y-114696134D01*
X139758560Y-114578092D01*
X139815752Y-114521000D01*
X147051029Y-114521000D01*
X147050866Y-114707877D01*
X147168908Y-114993560D01*
X147387290Y-115212324D01*
X147672767Y-115330865D01*
X147981877Y-115331134D01*
X148267560Y-115213092D01*
X148324752Y-115156000D01*
X150708260Y-115156000D01*
X150539676Y-115324290D01*
X150421135Y-115609767D01*
X150420866Y-115918877D01*
X150538908Y-116204560D01*
X150757290Y-116423324D01*
X151042767Y-116541865D01*
X151123579Y-116541935D01*
X151619032Y-117037388D01*
X151814335Y-117167885D01*
X152044710Y-117213710D01*
X153399744Y-117213710D01*
X153399590Y-117390597D01*
X153517632Y-117676280D01*
X153736014Y-117895044D01*
X154021491Y-118013585D01*
X154330601Y-118013854D01*
X154616284Y-117895812D01*
X154673476Y-117838720D01*
X161217498Y-117838720D01*
X161315459Y-117904175D01*
X161545834Y-117950000D01*
X162444064Y-117950000D01*
X162500290Y-118006324D01*
X162785767Y-118124865D01*
X163094877Y-118125134D01*
X163380560Y-118007092D01*
X163599324Y-117788710D01*
X163717865Y-117503233D01*
X163718134Y-117194123D01*
X163610229Y-116932972D01*
X175405577Y-116932972D01*
X177038000Y-118565395D01*
X178670423Y-116932972D01*
X178437047Y-116603313D01*
X177510963Y-116230947D01*
X176512874Y-116241323D01*
X175638953Y-116603313D01*
X175405577Y-116932972D01*
X163610229Y-116932972D01*
X163600092Y-116908440D01*
X163381710Y-116689676D01*
X163096233Y-116571135D01*
X162787123Y-116570866D01*
X162501440Y-116688908D01*
X162444248Y-116746000D01*
X161762890Y-116746000D01*
X161721527Y-116718362D01*
X161983560Y-116610092D01*
X162202324Y-116391710D01*
X162320865Y-116106233D01*
X162321134Y-115797123D01*
X162318604Y-115791000D01*
X165862000Y-115791000D01*
X166092375Y-115745175D01*
X166142156Y-115711912D01*
X166396877Y-115712134D01*
X166682560Y-115594092D01*
X166901324Y-115375710D01*
X167019865Y-115090233D01*
X167020134Y-114781123D01*
X166912653Y-114521000D01*
X173874064Y-114521000D01*
X173930290Y-114577324D01*
X174215767Y-114695865D01*
X174524877Y-114696134D01*
X174810560Y-114578092D01*
X175029324Y-114359710D01*
X175147865Y-114074233D01*
X175148134Y-113765123D01*
X175030092Y-113479440D01*
X174811710Y-113260676D01*
X174526233Y-113142135D01*
X174217123Y-113141866D01*
X173931440Y-113259908D01*
X173874248Y-113317000D01*
X173411357Y-113317000D01*
X173653679Y-113074678D01*
X173784175Y-112879375D01*
X173830000Y-112649000D01*
X173830000Y-111686651D01*
X174202211Y-111437947D01*
X174492817Y-111003025D01*
X174509354Y-110919886D01*
X174613652Y-111171703D01*
X174962398Y-111561561D01*
X175433789Y-111788284D01*
X175641000Y-111705332D01*
X175641000Y-110617000D01*
X175895000Y-110617000D01*
X175895000Y-111705332D01*
X176102211Y-111788284D01*
X176573602Y-111561561D01*
X176922348Y-111171703D01*
X177066273Y-110824209D01*
X176982729Y-110617000D01*
X175895000Y-110617000D01*
X175641000Y-110617000D01*
X175621000Y-110617000D01*
X175621000Y-110363000D01*
X175641000Y-110363000D01*
X175641000Y-110343000D01*
X175895000Y-110343000D01*
X175895000Y-110363000D01*
X176982729Y-110363000D01*
X177066273Y-110155791D01*
X176922348Y-109808297D01*
X176573602Y-109418439D01*
X176157558Y-109218336D01*
X176307289Y-109188553D01*
X176742211Y-108897947D01*
X177032817Y-108463025D01*
X177134864Y-107950000D01*
X177032817Y-107436975D01*
X176742211Y-107002053D01*
X176307289Y-106711447D01*
X176149194Y-106680000D01*
X176307289Y-106648553D01*
X176742211Y-106357947D01*
X177032817Y-105923025D01*
X177134864Y-105410000D01*
X177032817Y-104896975D01*
X176742211Y-104462053D01*
X176307289Y-104171447D01*
X175794264Y-104069400D01*
X175741736Y-104069400D01*
X175228711Y-104171447D01*
X174793789Y-104462053D01*
X174577944Y-104785087D01*
X174577944Y-104546400D01*
X174544683Y-104369635D01*
X174440215Y-104207287D01*
X174280815Y-104098373D01*
X174091600Y-104060056D01*
X172364400Y-104060056D01*
X172187635Y-104093317D01*
X172025287Y-104197785D01*
X171916373Y-104357185D01*
X171878056Y-104546400D01*
X171878056Y-105056833D01*
X162639389Y-105056833D01*
X162694865Y-104923233D01*
X162695134Y-104614123D01*
X162577092Y-104328440D01*
X162358710Y-104109676D01*
X162073233Y-103991135D01*
X161764123Y-103990866D01*
X161478440Y-104108908D01*
X161333093Y-104254001D01*
X156255999Y-104254001D01*
X156025624Y-104299826D01*
X155907194Y-104378957D01*
X155802123Y-104378866D01*
X155516440Y-104496908D01*
X155297676Y-104715290D01*
X155179135Y-105000767D01*
X155179011Y-105143001D01*
X154261919Y-105143001D01*
X154031544Y-105188826D01*
X153913127Y-105267949D01*
X153818052Y-105267866D01*
X153532369Y-105385908D01*
X153475177Y-105443000D01*
X152288015Y-105443000D01*
X152288134Y-105306113D01*
X152170092Y-105020430D01*
X151951710Y-104801666D01*
X151666233Y-104683125D01*
X151357123Y-104682856D01*
X151071440Y-104800898D01*
X151014248Y-104857990D01*
X148334905Y-104857990D01*
X148278679Y-104801666D01*
X147993202Y-104683125D01*
X147684092Y-104682856D01*
X147398409Y-104800898D01*
X147179645Y-105019280D01*
X147061104Y-105304757D01*
X147060984Y-105443000D01*
X140323936Y-105443000D01*
X140267710Y-105386676D01*
X139982233Y-105268135D01*
X139673123Y-105267866D01*
X139387440Y-105385908D01*
X139168676Y-105604290D01*
X139050135Y-105889767D01*
X139049866Y-106198877D01*
X139167908Y-106484560D01*
X139386290Y-106703324D01*
X139671767Y-106821865D01*
X139980877Y-106822134D01*
X140266560Y-106704092D01*
X140323752Y-106647000D01*
X140447020Y-106647000D01*
X140446866Y-106823887D01*
X140564908Y-107109570D01*
X140783290Y-107328334D01*
X141068767Y-107446875D01*
X141377877Y-107447144D01*
X141663560Y-107329102D01*
X141720752Y-107272010D01*
X143621985Y-107272010D01*
X143621866Y-107408897D01*
X143739908Y-107694580D01*
X143958290Y-107913344D01*
X144243767Y-108031885D01*
X144552877Y-108032154D01*
X144838560Y-107914112D01*
X144870708Y-107882020D01*
X144899891Y-107882020D01*
X144975255Y-107897011D01*
X153873299Y-107897011D01*
X154192530Y-108216242D01*
X154183507Y-108222270D01*
X154078436Y-108222179D01*
X153792753Y-108340221D01*
X153573989Y-108558603D01*
X153455448Y-108844080D01*
X153455179Y-109153190D01*
X153573221Y-109438873D01*
X153791603Y-109657637D01*
X154037804Y-109759869D01*
X154138908Y-110004560D01*
X154357290Y-110223324D01*
X154642767Y-110341865D01*
X154951877Y-110342134D01*
X155237560Y-110224092D01*
X155304760Y-110157009D01*
X157718985Y-110157009D01*
X157718866Y-110293887D01*
X157836908Y-110579570D01*
X158055290Y-110798334D01*
X158140694Y-110833797D01*
X154272486Y-110833797D01*
X154216260Y-110777473D01*
X153930783Y-110658932D01*
X153621673Y-110658663D01*
X153335990Y-110776705D01*
X153278798Y-110833797D01*
X153080633Y-110833797D01*
X152967710Y-110720676D01*
X152682233Y-110602135D01*
X152373123Y-110601866D01*
X152087440Y-110719908D01*
X151868676Y-110938290D01*
X151750135Y-111223767D01*
X151749866Y-111532877D01*
X151867908Y-111818560D01*
X152086290Y-112037324D01*
X152371767Y-112155865D01*
X152680877Y-112156134D01*
X152966560Y-112038092D01*
X152966856Y-112037797D01*
X153278614Y-112037797D01*
X153334840Y-112094121D01*
X153620317Y-112212662D01*
X153929427Y-112212931D01*
X154215110Y-112094889D01*
X154272302Y-112037797D01*
X154699847Y-112037797D01*
X154484709Y-112252935D01*
X154405123Y-112252866D01*
X154119440Y-112370908D01*
X153900676Y-112589290D01*
X153782135Y-112874767D01*
X153781866Y-113183877D01*
X153899908Y-113469560D01*
X154118290Y-113688324D01*
X154403767Y-113806865D01*
X154712877Y-113807134D01*
X154998560Y-113689092D01*
X155217324Y-113470710D01*
X155335865Y-113185233D01*
X155335935Y-113104421D01*
X155888072Y-112552284D01*
X157661895Y-112552284D01*
X157539676Y-112674290D01*
X157421135Y-112959767D01*
X157420866Y-113268877D01*
X157538908Y-113554560D01*
X157757290Y-113773324D01*
X157799887Y-113791012D01*
X157548440Y-113894908D01*
X157446456Y-113996714D01*
X157285710Y-113835686D01*
X157000233Y-113717145D01*
X156691123Y-113716876D01*
X156405440Y-113834918D01*
X156186676Y-114053300D01*
X156176004Y-114079000D01*
X153754358Y-114079000D01*
X153168680Y-113493322D01*
X152973377Y-113362825D01*
X152743002Y-113317000D01*
X139815936Y-113317000D01*
X139759710Y-113260676D01*
X139474233Y-113142135D01*
X139165123Y-113141866D01*
X138879440Y-113259908D01*
X138660676Y-113478290D01*
X138542135Y-113763767D01*
X138541866Y-114072877D01*
X127680388Y-114072877D01*
X129711265Y-112042000D01*
X130348000Y-112042000D01*
X130683613Y-111975242D01*
X130968133Y-111785133D01*
X131158242Y-111500613D01*
X131225000Y-111165000D01*
X131158242Y-110829387D01*
X130968133Y-110544867D01*
X130683613Y-110354758D01*
X130348000Y-110288000D01*
X129348005Y-110288000D01*
X129348000Y-110287999D01*
X129032898Y-110350678D01*
X129012387Y-110354758D01*
X128727867Y-110544867D01*
X128727865Y-110544870D01*
X126690368Y-112582366D01*
X122712631Y-112582366D01*
X122543000Y-112412734D01*
X122543000Y-110726266D01*
X122921133Y-110348132D01*
X123111242Y-110063613D01*
X123122129Y-110008877D01*
X144256866Y-110008877D01*
X144374908Y-110294560D01*
X144593290Y-110513324D01*
X144689930Y-110553452D01*
X144594440Y-110592908D01*
X144375676Y-110811290D01*
X144257135Y-111096767D01*
X144256866Y-111405877D01*
X144374908Y-111691560D01*
X144593290Y-111910324D01*
X144878767Y-112028865D01*
X145187877Y-112029134D01*
X145473560Y-111911092D01*
X145530752Y-111854000D01*
X149208496Y-111854000D01*
X149323767Y-111901865D01*
X149632877Y-111902134D01*
X149918560Y-111784092D01*
X150137324Y-111565710D01*
X150255865Y-111280233D01*
X150256134Y-110971123D01*
X150144879Y-110701867D01*
X150451877Y-110702134D01*
X150737560Y-110584092D01*
X150956324Y-110365710D01*
X151074865Y-110080233D01*
X151075134Y-109771123D01*
X150957092Y-109485440D01*
X150738710Y-109266676D01*
X150453233Y-109148135D01*
X150144123Y-109147866D01*
X149858440Y-109265908D01*
X149801248Y-109323000D01*
X145600813Y-109323000D01*
X145474710Y-109196676D01*
X145189233Y-109078135D01*
X144880123Y-109077866D01*
X144594440Y-109195908D01*
X144375676Y-109414290D01*
X144257135Y-109699767D01*
X144256866Y-110008877D01*
X123122129Y-110008877D01*
X123178001Y-109728000D01*
X123111242Y-109392386D01*
X122921133Y-109107867D01*
X122636614Y-108917758D01*
X122301000Y-108850999D01*
X121965387Y-108917758D01*
X121680868Y-109107867D01*
X121091867Y-109696867D01*
X121045867Y-109742867D01*
X120855758Y-110027387D01*
X120789000Y-110363000D01*
X111550000Y-110363000D01*
X111550000Y-108738877D01*
X134350866Y-108738877D01*
X134468908Y-109024560D01*
X134687290Y-109243324D01*
X134972767Y-109361865D01*
X135281877Y-109362134D01*
X135567560Y-109244092D01*
X135599708Y-109212000D01*
X137958021Y-109212000D01*
X137989290Y-109243324D01*
X138274767Y-109361865D01*
X138583877Y-109362134D01*
X138869560Y-109244092D01*
X139088324Y-109025710D01*
X139206865Y-108740233D01*
X139207134Y-108431123D01*
X139089092Y-108145440D01*
X138870710Y-107926676D01*
X138585233Y-107808135D01*
X138276123Y-107807866D01*
X137990440Y-107925908D01*
X137958292Y-107958000D01*
X135599979Y-107958000D01*
X135568710Y-107926676D01*
X135283233Y-107808135D01*
X134974123Y-107807866D01*
X134688440Y-107925908D01*
X134469676Y-108144290D01*
X134351135Y-108429767D01*
X134350866Y-108738877D01*
X111550000Y-108738877D01*
X111550000Y-105537000D01*
X114693000Y-105537000D01*
X114759758Y-105872613D01*
X114949867Y-106157133D01*
X115234387Y-106347242D01*
X115570000Y-106414000D01*
X115905613Y-106347242D01*
X116190133Y-106157133D01*
X118603130Y-103744135D01*
X118603133Y-103744133D01*
X118747331Y-103528324D01*
X118793242Y-103459614D01*
X118860000Y-103124000D01*
X118860000Y-100457000D01*
X118793242Y-100121387D01*
X118603133Y-99836867D01*
X118318613Y-99646758D01*
X117983000Y-99580000D01*
X117647387Y-99646758D01*
X117362867Y-99836867D01*
X117172758Y-100121387D01*
X117106000Y-100457000D01*
X117106000Y-102760735D01*
X114949867Y-104916867D01*
X114759758Y-105201387D01*
X114693000Y-105537000D01*
X111550000Y-105537000D01*
X111550000Y-91130868D01*
X111569100Y-91143630D01*
X111942982Y-91218000D01*
X112593018Y-91218000D01*
X112966900Y-91143630D01*
X113005258Y-91118000D01*
X113968000Y-91118000D01*
X114303613Y-91051242D01*
X114588133Y-90861133D01*
X114959015Y-90490251D01*
X114968000Y-90492038D01*
X115361016Y-90413862D01*
X115694199Y-90191237D01*
X115916824Y-89858054D01*
X115995000Y-89465038D01*
X115995000Y-89016962D01*
X115916824Y-88623946D01*
X115694199Y-88290763D01*
X115361016Y-88068138D01*
X114968000Y-87989962D01*
X114574984Y-88068138D01*
X114241801Y-88290763D01*
X114019176Y-88623946D01*
X113941000Y-89016962D01*
X113941000Y-89027735D01*
X113604734Y-89364000D01*
X113005258Y-89364000D01*
X112966900Y-89338370D01*
X112593018Y-89264000D01*
X111942982Y-89264000D01*
X111569100Y-89338370D01*
X111550000Y-89351132D01*
X111550000Y-86007519D01*
X115594103Y-86007519D01*
X115712145Y-86293202D01*
X115930527Y-86511966D01*
X116216004Y-86630507D01*
X116296816Y-86630577D01*
X116541476Y-86875237D01*
X116541476Y-87298476D01*
X116587301Y-87528851D01*
X116717798Y-87724154D01*
X116951935Y-87958291D01*
X116951866Y-88037877D01*
X117069908Y-88323560D01*
X117288290Y-88542324D01*
X117573767Y-88660865D01*
X117882877Y-88661134D01*
X118168560Y-88543092D01*
X118387324Y-88324710D01*
X118505865Y-88039233D01*
X118506134Y-87730123D01*
X118388092Y-87444440D01*
X118169710Y-87225676D01*
X117884233Y-87107135D01*
X117803421Y-87107065D01*
X117745476Y-87049120D01*
X117745476Y-86625881D01*
X117699651Y-86395506D01*
X117569154Y-86200203D01*
X117148302Y-85779351D01*
X117148371Y-85699765D01*
X117090617Y-85559989D01*
X120645856Y-85559989D01*
X120763898Y-85845672D01*
X120982280Y-86064436D01*
X121267757Y-86182977D01*
X121394561Y-86183087D01*
X121552799Y-86341326D01*
X121552730Y-86420911D01*
X121670772Y-86706594D01*
X121889154Y-86925358D01*
X122174631Y-87043899D01*
X122483741Y-87044168D01*
X122729978Y-86942425D01*
X122667135Y-87093767D01*
X122666866Y-87402877D01*
X122784908Y-87688560D01*
X123003290Y-87907324D01*
X123288767Y-88025865D01*
X123334193Y-88025905D01*
X124143644Y-88835356D01*
X124347057Y-88971272D01*
X124587000Y-89019000D01*
X125738000Y-89019000D01*
X125738000Y-96693021D01*
X125706676Y-96724290D01*
X125588135Y-97009767D01*
X125587866Y-97318877D01*
X125705908Y-97604560D01*
X125924290Y-97823324D01*
X126209767Y-97941865D01*
X126518877Y-97942134D01*
X126804560Y-97824092D01*
X126870150Y-97758617D01*
X126887867Y-97785133D01*
X127172387Y-97975242D01*
X127508000Y-98042000D01*
X132623000Y-98042000D01*
X132958613Y-97975242D01*
X133243133Y-97785133D01*
X134351133Y-96677132D01*
X134541242Y-96392613D01*
X134608001Y-96057000D01*
X134541242Y-95721386D01*
X134351133Y-95436867D01*
X134066614Y-95246758D01*
X133731000Y-95179999D01*
X133395387Y-95246758D01*
X133110868Y-95436867D01*
X132259734Y-96288000D01*
X127508000Y-96288000D01*
X127172387Y-96354758D01*
X126992000Y-96475288D01*
X126992000Y-88863979D01*
X127023324Y-88832710D01*
X127141865Y-88547233D01*
X127142134Y-88238123D01*
X127024092Y-87952440D01*
X126805710Y-87733676D01*
X126520233Y-87615135D01*
X126211123Y-87614866D01*
X125925440Y-87732908D01*
X125893292Y-87765000D01*
X124846712Y-87765000D01*
X124221095Y-87139383D01*
X124221134Y-87095123D01*
X124103092Y-86809440D01*
X124071000Y-86777292D01*
X124071000Y-83566000D01*
X124023272Y-83326057D01*
X123887356Y-83122644D01*
X122824095Y-82059383D01*
X122824134Y-82015123D01*
X122706092Y-81729440D01*
X122487710Y-81510676D01*
X122202233Y-81392135D01*
X121893123Y-81391866D01*
X121607440Y-81509908D01*
X121388676Y-81728290D01*
X121270135Y-82013767D01*
X121269866Y-82322877D01*
X121387908Y-82608560D01*
X121606290Y-82827324D01*
X121891767Y-82945865D01*
X121937193Y-82945905D01*
X122817000Y-83825712D01*
X122817000Y-85655217D01*
X122770574Y-85608710D01*
X122485097Y-85490169D01*
X122404285Y-85490099D01*
X122200095Y-85285908D01*
X122200124Y-85252235D01*
X122082082Y-84966552D01*
X122040681Y-84925079D01*
X122197324Y-84768710D01*
X122315865Y-84483233D01*
X122316134Y-84174123D01*
X122198092Y-83888440D01*
X121979710Y-83669676D01*
X121694233Y-83551135D01*
X121385123Y-83550866D01*
X121099440Y-83668908D01*
X120880676Y-83887290D01*
X120762135Y-84172767D01*
X120761866Y-84481877D01*
X120879908Y-84767560D01*
X120921309Y-84809033D01*
X120764666Y-84965402D01*
X120646125Y-85250879D01*
X120645856Y-85559989D01*
X117090617Y-85559989D01*
X117030329Y-85414082D01*
X116811947Y-85195318D01*
X116526470Y-85076777D01*
X116217360Y-85076508D01*
X115931677Y-85194550D01*
X115712913Y-85412932D01*
X115594372Y-85698409D01*
X115594103Y-86007519D01*
X111550000Y-86007519D01*
X111550000Y-84130868D01*
X111569100Y-84143630D01*
X111942982Y-84218000D01*
X112593018Y-84218000D01*
X112966900Y-84143630D01*
X113156471Y-84016962D01*
X113941000Y-84016962D01*
X113941000Y-84465038D01*
X114019176Y-84858054D01*
X114241801Y-85191237D01*
X114574984Y-85413862D01*
X114968000Y-85492038D01*
X115361016Y-85413862D01*
X115694199Y-85191237D01*
X115916824Y-84858054D01*
X115995000Y-84465038D01*
X115995000Y-84016962D01*
X115916824Y-83623946D01*
X115694199Y-83290763D01*
X115361016Y-83068138D01*
X114968000Y-82989962D01*
X114574984Y-83068138D01*
X114241801Y-83290763D01*
X114019176Y-83623946D01*
X113941000Y-84016962D01*
X113156471Y-84016962D01*
X113283861Y-83931843D01*
X113495648Y-83614882D01*
X113570018Y-83241000D01*
X113495648Y-82867118D01*
X113283861Y-82550157D01*
X112966900Y-82338370D01*
X112593018Y-82264000D01*
X111942982Y-82264000D01*
X111569100Y-82338370D01*
X111550000Y-82351132D01*
X111550000Y-77377028D01*
X124605577Y-77377028D01*
X124838953Y-77706687D01*
X125765037Y-78079053D01*
X126763126Y-78068677D01*
X127637047Y-77706687D01*
X127870423Y-77377028D01*
X126238000Y-75744605D01*
X124605577Y-77377028D01*
X111550000Y-77377028D01*
X111550000Y-75092037D01*
X123723947Y-75092037D01*
X123734323Y-76090126D01*
X124096313Y-76964047D01*
X124425972Y-77197423D01*
X126058395Y-75565000D01*
X126417605Y-75565000D01*
X128050028Y-77197423D01*
X128379687Y-76964047D01*
X128622535Y-76360079D01*
X128846053Y-76694597D01*
X129280975Y-76985203D01*
X129794000Y-77087250D01*
X130195192Y-77007448D01*
X133223380Y-80172191D01*
X134464864Y-81469660D01*
X134464781Y-81564865D01*
X134582823Y-81850548D01*
X134801205Y-82069312D01*
X135086682Y-82187853D01*
X135395792Y-82188122D01*
X135681475Y-82070080D01*
X135782768Y-81968964D01*
X135954765Y-82140962D01*
X135972322Y-82167238D01*
X136375151Y-82570067D01*
X136570453Y-82700564D01*
X136608675Y-82708167D01*
X136800829Y-82746389D01*
X137135071Y-82746389D01*
X136977439Y-82887398D01*
X136777336Y-83303442D01*
X136747553Y-83153711D01*
X136456947Y-82718789D01*
X136022025Y-82428183D01*
X135509000Y-82326136D01*
X134995975Y-82428183D01*
X134561053Y-82718789D01*
X134555054Y-82727767D01*
X132808608Y-80981322D01*
X132613305Y-80850825D01*
X132382930Y-80805000D01*
X132068936Y-80805000D01*
X132012710Y-80748676D01*
X131727233Y-80630135D01*
X131418123Y-80629866D01*
X131132440Y-80747908D01*
X130913676Y-80966290D01*
X130795135Y-81251767D01*
X130794866Y-81560877D01*
X130912908Y-81846560D01*
X131131290Y-82065324D01*
X131416767Y-82183865D01*
X131725877Y-82184134D01*
X132011560Y-82066092D01*
X132068752Y-82009000D01*
X132133574Y-82009000D01*
X132536700Y-82412126D01*
X132455975Y-82428183D01*
X132021053Y-82718789D01*
X131730447Y-83153711D01*
X131628400Y-83666736D01*
X131628400Y-83719264D01*
X131730447Y-84232289D01*
X132021053Y-84667211D01*
X132344087Y-84883056D01*
X132105400Y-84883056D01*
X131928635Y-84916317D01*
X131766287Y-85020785D01*
X131657373Y-85180185D01*
X131656795Y-85183039D01*
X131148001Y-84674245D01*
X131148001Y-84332509D01*
X131102176Y-84102134D01*
X130971679Y-83906831D01*
X130523000Y-83458152D01*
X130523000Y-83300936D01*
X130579324Y-83244710D01*
X130697865Y-82959233D01*
X130698134Y-82650123D01*
X130580092Y-82364440D01*
X130361710Y-82145676D01*
X130076233Y-82027135D01*
X129903446Y-82026985D01*
X129903446Y-80878910D01*
X130122291Y-80660065D01*
X130201877Y-80660134D01*
X130487560Y-80542092D01*
X130706324Y-80323710D01*
X130824865Y-80038233D01*
X130825134Y-79729123D01*
X130707092Y-79443440D01*
X130488710Y-79224676D01*
X130203233Y-79106135D01*
X129894123Y-79105866D01*
X129608440Y-79223908D01*
X129389676Y-79442290D01*
X129271135Y-79727767D01*
X129271065Y-79808579D01*
X128875768Y-80203876D01*
X128745271Y-80399179D01*
X128699446Y-80629554D01*
X128699446Y-84012956D01*
X128745271Y-84243331D01*
X128875768Y-84438634D01*
X129143935Y-84706802D01*
X129143866Y-84786387D01*
X129261908Y-85072070D01*
X129455639Y-85266140D01*
X129412482Y-85283972D01*
X129193718Y-85502354D01*
X129075177Y-85787831D01*
X129074908Y-86096941D01*
X129192950Y-86382624D01*
X129218048Y-86407766D01*
X129144135Y-86585767D01*
X129143866Y-86894877D01*
X129261908Y-87180560D01*
X129452586Y-87371572D01*
X129395568Y-87508886D01*
X129395299Y-87817996D01*
X129503343Y-88079482D01*
X129408126Y-88308789D01*
X129407857Y-88617899D01*
X129525899Y-88903582D01*
X129744281Y-89122346D01*
X130029758Y-89240887D01*
X130110570Y-89240957D01*
X130627240Y-89757627D01*
X130822543Y-89888124D01*
X131052918Y-89933949D01*
X131695653Y-89933949D01*
X131733626Y-89971988D01*
X132019103Y-90090529D01*
X132240000Y-90090721D01*
X132240000Y-91832064D01*
X132183676Y-91888290D01*
X132065135Y-92173767D01*
X132064866Y-92482877D01*
X132182908Y-92768560D01*
X132401290Y-92987324D01*
X132686767Y-93105865D01*
X132995877Y-93106134D01*
X133281560Y-92988092D01*
X133500324Y-92769710D01*
X133618865Y-92484233D01*
X133619134Y-92175123D01*
X133501092Y-91889440D01*
X133444000Y-91832248D01*
X133444000Y-90690886D01*
X133448767Y-90692865D01*
X133757877Y-90693134D01*
X134043560Y-90575092D01*
X134262324Y-90356710D01*
X134380865Y-90071233D01*
X134380876Y-90058124D01*
X134392877Y-90058134D01*
X134678560Y-89940092D01*
X134735752Y-89883000D01*
X136002029Y-89883000D01*
X136001866Y-90069877D01*
X136119908Y-90355560D01*
X136338290Y-90574324D01*
X136623767Y-90692865D01*
X136932877Y-90693134D01*
X137218560Y-90575092D01*
X137275752Y-90518000D01*
X137933064Y-90518000D01*
X137989290Y-90574324D01*
X138274767Y-90692865D01*
X138583877Y-90693134D01*
X138869560Y-90575092D01*
X139088324Y-90356710D01*
X139206865Y-90071233D01*
X139207036Y-89874636D01*
X142087685Y-89874636D01*
X142129728Y-89882999D01*
X142171771Y-89874636D01*
X143114036Y-89874636D01*
X143113866Y-90069877D01*
X143231908Y-90355560D01*
X143450290Y-90574324D01*
X143735767Y-90692865D01*
X144044877Y-90693134D01*
X144178000Y-90638129D01*
X144178000Y-91346000D01*
X136652000Y-91346000D01*
X136459846Y-91384222D01*
X136421624Y-91391825D01*
X136226322Y-91522322D01*
X135632333Y-92116311D01*
X135501836Y-92311614D01*
X135456011Y-92541989D01*
X135456011Y-96572075D01*
X135399687Y-96628301D01*
X135281146Y-96913778D01*
X135280877Y-97222888D01*
X135398919Y-97508571D01*
X135617301Y-97727335D01*
X135902778Y-97845876D01*
X136211888Y-97846145D01*
X136497571Y-97728103D01*
X136716335Y-97509721D01*
X136834876Y-97224244D01*
X136835145Y-96915134D01*
X136783029Y-96789004D01*
X136932877Y-96789134D01*
X137218560Y-96671092D01*
X137275752Y-96614000D01*
X138811000Y-96614000D01*
X138811045Y-96613991D01*
X144946853Y-96613991D01*
X144892135Y-96745767D01*
X144891866Y-97054877D01*
X145009908Y-97340560D01*
X145228290Y-97559324D01*
X145513767Y-97677865D01*
X145822877Y-97678134D01*
X146108560Y-97560092D01*
X146165752Y-97503000D01*
X149098000Y-97503000D01*
X149163333Y-97490004D01*
X149239114Y-97565918D01*
X149201676Y-97603290D01*
X149083135Y-97888767D01*
X149082866Y-98197877D01*
X149200908Y-98483560D01*
X149419290Y-98702324D01*
X149704767Y-98820865D01*
X150013877Y-98821134D01*
X150299560Y-98703092D01*
X150356752Y-98646000D01*
X150549518Y-98646000D01*
X150520133Y-98716766D01*
X150519930Y-98950134D01*
X144323289Y-98940260D01*
X144296092Y-98874440D01*
X144077710Y-98655676D01*
X143792233Y-98537135D01*
X143483123Y-98536866D01*
X143197440Y-98654908D01*
X142978676Y-98873290D01*
X142869364Y-99136542D01*
X142649233Y-99045135D01*
X142340123Y-99044866D01*
X142054440Y-99162908D01*
X141997248Y-99220000D01*
X137910936Y-99220000D01*
X137854710Y-99163676D01*
X137569233Y-99045135D01*
X137260123Y-99044866D01*
X136974440Y-99162908D01*
X136755676Y-99381290D01*
X136637135Y-99666767D01*
X136636953Y-99875999D01*
X134944601Y-99875999D01*
X134898092Y-99763440D01*
X134679710Y-99544676D01*
X134394233Y-99426135D01*
X134085123Y-99425866D01*
X133799440Y-99543908D01*
X133580676Y-99762290D01*
X133462135Y-100047767D01*
X133461866Y-100356877D01*
X133579908Y-100642560D01*
X133798290Y-100861324D01*
X134083767Y-100979865D01*
X134145875Y-100979919D01*
X134299057Y-101082272D01*
X134538999Y-101129999D01*
X137750161Y-101129999D01*
X137862290Y-101242324D01*
X138147767Y-101360865D01*
X138456877Y-101361134D01*
X138742560Y-101243092D01*
X138961324Y-101024710D01*
X139079865Y-100739233D01*
X139080134Y-100430123D01*
X139077604Y-100424000D01*
X141997064Y-100424000D01*
X142053290Y-100480324D01*
X142338767Y-100598865D01*
X142647877Y-100599134D01*
X142933560Y-100481092D01*
X143152324Y-100262710D01*
X143261636Y-99999458D01*
X143481767Y-100090865D01*
X143623801Y-100090989D01*
X143633269Y-100097337D01*
X143633748Y-100097433D01*
X143634155Y-100097705D01*
X143749024Y-100120554D01*
X143863571Y-100143529D01*
X151623140Y-100155893D01*
X151567440Y-100178908D01*
X151348676Y-100397290D01*
X151230135Y-100682767D01*
X151229866Y-100991877D01*
X151347908Y-101277560D01*
X151566290Y-101496324D01*
X151851767Y-101614865D01*
X152160877Y-101615134D01*
X152446560Y-101497092D01*
X152503752Y-101440000D01*
X153889585Y-101440000D01*
X153782135Y-101698767D01*
X153781866Y-102007877D01*
X153899908Y-102293560D01*
X154118290Y-102512324D01*
X154403767Y-102630865D01*
X154578911Y-102631017D01*
X154544135Y-102714767D01*
X154543866Y-103023877D01*
X154661908Y-103309560D01*
X154880290Y-103528324D01*
X155165767Y-103646865D01*
X155474877Y-103647134D01*
X155760560Y-103529092D01*
X155817752Y-103472000D01*
X159368496Y-103472000D01*
X159483767Y-103519865D01*
X159792877Y-103520134D01*
X160078560Y-103402092D01*
X160297324Y-103183710D01*
X160415865Y-102898233D01*
X160415985Y-102759999D01*
X164357287Y-102759999D01*
X164402644Y-102805356D01*
X164606057Y-102941272D01*
X164846000Y-102989000D01*
X176947021Y-102989000D01*
X176978290Y-103020324D01*
X177263767Y-103138865D01*
X177572877Y-103139134D01*
X177858560Y-103021092D01*
X178077324Y-102802710D01*
X178195865Y-102517233D01*
X178196134Y-102208123D01*
X178078092Y-101922440D01*
X177859710Y-101703676D01*
X177574233Y-101585135D01*
X177265123Y-101584866D01*
X176979440Y-101702908D01*
X176947292Y-101735000D01*
X176843362Y-101735000D01*
X176922348Y-101646703D01*
X177066273Y-101299209D01*
X176982729Y-101092000D01*
X175895000Y-101092000D01*
X175895000Y-101112000D01*
X175641000Y-101112000D01*
X175641000Y-101092000D01*
X175621000Y-101092000D01*
X175621000Y-100838000D01*
X175641000Y-100838000D01*
X175641000Y-100818000D01*
X175895000Y-100818000D01*
X175895000Y-100838000D01*
X176982729Y-100838000D01*
X177066273Y-100630791D01*
X176922348Y-100283297D01*
X176573602Y-99893439D01*
X176157558Y-99693336D01*
X176307289Y-99663553D01*
X176742211Y-99372947D01*
X177032817Y-98938025D01*
X177134864Y-98425000D01*
X177032817Y-97911975D01*
X176742211Y-97477053D01*
X176307289Y-97186447D01*
X176149194Y-97155000D01*
X176307289Y-97123553D01*
X176742211Y-96832947D01*
X177032817Y-96398025D01*
X177134864Y-95885000D01*
X177032817Y-95371975D01*
X176742211Y-94937053D01*
X176307289Y-94646447D01*
X175794264Y-94544400D01*
X175741736Y-94544400D01*
X175228711Y-94646447D01*
X174793789Y-94937053D01*
X174577944Y-95260087D01*
X174577944Y-95021400D01*
X174544683Y-94844635D01*
X174440215Y-94682287D01*
X174280815Y-94573373D01*
X174091600Y-94535056D01*
X172582399Y-94535056D01*
X172667864Y-94329234D01*
X172668133Y-94020124D01*
X172550091Y-93734441D01*
X172331709Y-93515677D01*
X172046232Y-93397136D01*
X171737122Y-93396867D01*
X171451439Y-93514909D01*
X171394247Y-93572001D01*
X171089805Y-93572001D01*
X171219324Y-93442708D01*
X171337865Y-93157231D01*
X171338134Y-92848121D01*
X171242649Y-92617028D01*
X175405577Y-92617028D01*
X175638953Y-92946687D01*
X176565037Y-93319053D01*
X177563126Y-93308677D01*
X178437047Y-92946687D01*
X178670423Y-92617028D01*
X177038000Y-90984605D01*
X175405577Y-92617028D01*
X171242649Y-92617028D01*
X171220092Y-92562438D01*
X171001710Y-92343674D01*
X170716233Y-92225133D01*
X170407123Y-92224864D01*
X170244037Y-92292250D01*
X170152123Y-92230835D01*
X169921748Y-92185010D01*
X169462633Y-92185010D01*
X169670570Y-92099092D01*
X169889334Y-91880710D01*
X170007875Y-91595233D01*
X170008144Y-91286123D01*
X169890102Y-91000440D01*
X169671720Y-90781676D01*
X169386243Y-90663135D01*
X169077133Y-90662866D01*
X168791450Y-90780908D01*
X168734258Y-90838000D01*
X167866998Y-90838000D01*
X167674844Y-90876222D01*
X167636622Y-90883825D01*
X167441319Y-91014322D01*
X167440642Y-91014999D01*
X164330124Y-91014999D01*
X164352865Y-90960233D01*
X164353134Y-90651123D01*
X164235092Y-90365440D01*
X164201748Y-90332037D01*
X174523947Y-90332037D01*
X174534323Y-91330126D01*
X174896313Y-92204047D01*
X175225972Y-92437423D01*
X176858395Y-90805000D01*
X175225972Y-89172577D01*
X174896313Y-89405953D01*
X174523947Y-90332037D01*
X164201748Y-90332037D01*
X164016710Y-90146676D01*
X163731233Y-90028135D01*
X163422123Y-90027866D01*
X163136440Y-90145908D01*
X163104292Y-90178000D01*
X157735426Y-90178000D01*
X158920454Y-88992972D01*
X175405577Y-88992972D01*
X177038000Y-90625395D01*
X178670423Y-88992972D01*
X178437047Y-88663313D01*
X177510963Y-88290947D01*
X176512874Y-88301323D01*
X175638953Y-88663313D01*
X175405577Y-88992972D01*
X158920454Y-88992972D01*
X163348798Y-84564629D01*
X163464726Y-84680760D01*
X163750203Y-84799301D01*
X164059313Y-84799570D01*
X164184588Y-84747807D01*
X164265307Y-84943161D01*
X164483689Y-85161925D01*
X164769166Y-85280466D01*
X165078276Y-85280735D01*
X165363959Y-85162693D01*
X165411133Y-85115601D01*
X168417850Y-85115601D01*
X168233183Y-85391975D01*
X168131136Y-85905000D01*
X168233183Y-86418025D01*
X168386179Y-86647000D01*
X166231936Y-86647000D01*
X166175710Y-86590676D01*
X165890233Y-86472135D01*
X165581123Y-86471866D01*
X165295440Y-86589908D01*
X165076676Y-86808290D01*
X164958135Y-87093767D01*
X164957866Y-87402877D01*
X165075908Y-87688560D01*
X165294290Y-87907324D01*
X165579767Y-88025865D01*
X165888877Y-88026134D01*
X166174560Y-87908092D01*
X166231752Y-87851000D01*
X168734074Y-87851000D01*
X168790300Y-87907324D01*
X169075777Y-88025865D01*
X169384887Y-88026134D01*
X169670570Y-87908092D01*
X169889334Y-87689710D01*
X170007875Y-87404233D01*
X170008097Y-87149360D01*
X170037289Y-87143553D01*
X170472211Y-86852947D01*
X170762817Y-86418025D01*
X170779354Y-86334886D01*
X170883652Y-86586703D01*
X171232398Y-86976561D01*
X171703789Y-87203284D01*
X171911000Y-87120332D01*
X171911000Y-86032000D01*
X172165000Y-86032000D01*
X172165000Y-87120332D01*
X172372211Y-87203284D01*
X172843602Y-86976561D01*
X173192348Y-86586703D01*
X173336273Y-86239209D01*
X173252729Y-86032000D01*
X172165000Y-86032000D01*
X171911000Y-86032000D01*
X171891000Y-86032000D01*
X171891000Y-85778000D01*
X171911000Y-85778000D01*
X171911000Y-85758000D01*
X172165000Y-85758000D01*
X172165000Y-85778000D01*
X173252729Y-85778000D01*
X173336273Y-85570791D01*
X173192348Y-85223297D01*
X172843602Y-84833439D01*
X172427558Y-84633336D01*
X172577289Y-84603553D01*
X173012211Y-84312947D01*
X173302817Y-83878025D01*
X173404864Y-83365000D01*
X173302817Y-82851975D01*
X173012211Y-82417053D01*
X172577289Y-82126447D01*
X172419194Y-82095000D01*
X172577289Y-82063553D01*
X173012211Y-81772947D01*
X173302817Y-81338025D01*
X173404864Y-80825000D01*
X173302817Y-80311975D01*
X173012211Y-79877053D01*
X172577289Y-79586447D01*
X172064264Y-79484400D01*
X172011736Y-79484400D01*
X171498711Y-79586447D01*
X171063789Y-79877053D01*
X170847944Y-80200087D01*
X170847944Y-79961400D01*
X170814683Y-79784635D01*
X170710215Y-79622287D01*
X170550815Y-79513373D01*
X170361600Y-79475056D01*
X168724332Y-79475056D01*
X169843678Y-78355710D01*
X169974175Y-78160407D01*
X170020000Y-77930032D01*
X170020000Y-76925752D01*
X170365947Y-76694597D01*
X170656553Y-76259675D01*
X170688000Y-76101580D01*
X170719447Y-76259675D01*
X171010053Y-76694597D01*
X171444975Y-76985203D01*
X171958000Y-77087250D01*
X172471025Y-76985203D01*
X172905947Y-76694597D01*
X173196553Y-76259675D01*
X173228000Y-76101580D01*
X173259447Y-76259675D01*
X173550053Y-76694597D01*
X173984975Y-76985203D01*
X174498000Y-77087250D01*
X175011025Y-76985203D01*
X175445947Y-76694597D01*
X175736553Y-76259675D01*
X175838600Y-75746650D01*
X175838600Y-75383350D01*
X175736553Y-74870325D01*
X175445947Y-74435403D01*
X175011025Y-74144797D01*
X174498000Y-74042750D01*
X173984975Y-74144797D01*
X173550053Y-74435403D01*
X173259447Y-74870325D01*
X173228000Y-75028420D01*
X173196553Y-74870325D01*
X172905947Y-74435403D01*
X172471025Y-74144797D01*
X171958000Y-74042750D01*
X171444975Y-74144797D01*
X171010053Y-74435403D01*
X170719447Y-74870325D01*
X170688000Y-75028420D01*
X170656553Y-74870325D01*
X170365947Y-74435403D01*
X169931025Y-74144797D01*
X169418000Y-74042750D01*
X168904975Y-74144797D01*
X168470053Y-74435403D01*
X168179447Y-74870325D01*
X168148000Y-75028420D01*
X168116553Y-74870325D01*
X167825947Y-74435403D01*
X167391025Y-74144797D01*
X166878000Y-74042750D01*
X166364975Y-74144797D01*
X165930053Y-74435403D01*
X165639447Y-74870325D01*
X165608000Y-75028420D01*
X165576553Y-74870325D01*
X165285947Y-74435403D01*
X164851025Y-74144797D01*
X164338000Y-74042750D01*
X163824975Y-74144797D01*
X163390053Y-74435403D01*
X163099447Y-74870325D01*
X163068000Y-75028420D01*
X163036553Y-74870325D01*
X162745947Y-74435403D01*
X162311025Y-74144797D01*
X161798000Y-74042750D01*
X161284975Y-74144797D01*
X160850053Y-74435403D01*
X160559447Y-74870325D01*
X160528000Y-75028420D01*
X160496553Y-74870325D01*
X160205947Y-74435403D01*
X159771025Y-74144797D01*
X159258000Y-74042750D01*
X158744975Y-74144797D01*
X158310053Y-74435403D01*
X158019447Y-74870325D01*
X157988000Y-75028420D01*
X157956553Y-74870325D01*
X157665947Y-74435403D01*
X157231025Y-74144797D01*
X156718000Y-74042750D01*
X156204975Y-74144797D01*
X155770053Y-74435403D01*
X155479447Y-74870325D01*
X155377400Y-75383350D01*
X155377400Y-75746650D01*
X155479447Y-76259675D01*
X155770053Y-76694597D01*
X156116000Y-76925752D01*
X156116000Y-80610670D01*
X153636253Y-83090417D01*
X153541813Y-82949077D01*
X151302673Y-80709937D01*
X151302673Y-78529683D01*
X152767729Y-77064628D01*
X153167025Y-76985203D01*
X153601947Y-76694597D01*
X153892553Y-76259675D01*
X153994600Y-75746650D01*
X153994600Y-75383350D01*
X153892553Y-74870325D01*
X153601947Y-74435403D01*
X153167025Y-74144797D01*
X152654000Y-74042750D01*
X152140975Y-74144797D01*
X151706053Y-74435403D01*
X151415447Y-74870325D01*
X151384000Y-75028420D01*
X151352553Y-74870325D01*
X151061947Y-74435403D01*
X150627025Y-74144797D01*
X150114000Y-74042750D01*
X149600975Y-74144797D01*
X149166053Y-74435403D01*
X148875447Y-74870325D01*
X148844000Y-75028420D01*
X148812553Y-74870325D01*
X148521947Y-74435403D01*
X148087025Y-74144797D01*
X147574000Y-74042750D01*
X147060975Y-74144797D01*
X146626053Y-74435403D01*
X146588596Y-74491461D01*
X145935447Y-73838312D01*
X145740144Y-73707815D01*
X145509769Y-73661990D01*
X134398231Y-73661990D01*
X134167856Y-73707815D01*
X133972553Y-73838312D01*
X133319404Y-74491461D01*
X133281947Y-74435403D01*
X132847025Y-74144797D01*
X132334000Y-74042750D01*
X131820975Y-74144797D01*
X131386053Y-74435403D01*
X131095447Y-74870325D01*
X131064000Y-75028420D01*
X131032553Y-74870325D01*
X130741947Y-74435403D01*
X130307025Y-74144797D01*
X129794000Y-74042750D01*
X129280975Y-74144797D01*
X128846053Y-74435403D01*
X128627056Y-74763155D01*
X128379687Y-74165953D01*
X128050028Y-73932577D01*
X126417605Y-75565000D01*
X126058395Y-75565000D01*
X124425972Y-73932577D01*
X124096313Y-74165953D01*
X123723947Y-75092037D01*
X111550000Y-75092037D01*
X111550000Y-73577000D01*
X124730153Y-73577000D01*
X124605577Y-73752972D01*
X124605577Y-73752972D01*
G37*
X124605577Y-73752972D02*
X126238000Y-75385395D01*
X127870423Y-73752972D01*
X127745847Y-73577000D01*
X175285354Y-73577000D01*
X176486000Y-74777646D01*
X176486000Y-85979000D01*
X176528018Y-86190242D01*
X176647677Y-86369323D01*
X179026000Y-88747646D01*
X179026000Y-89297153D01*
X178850028Y-89172577D01*
X177217605Y-90805000D01*
X178850028Y-92437423D01*
X179026000Y-92312847D01*
X179026000Y-117237153D01*
X178850028Y-117112577D01*
X177217605Y-118745000D01*
X178850028Y-120377423D01*
X179026000Y-120252847D01*
X179026000Y-121056354D01*
X176647677Y-123434677D01*
X176528018Y-123613758D01*
X176497877Y-123765290D01*
X176486000Y-123825000D01*
X176486000Y-125813000D01*
X156122666Y-125813000D01*
X156609915Y-125325751D01*
X156718000Y-125347250D01*
X157231025Y-125245203D01*
X157665947Y-124954597D01*
X157956553Y-124519675D01*
X158058600Y-124006650D01*
X158058600Y-123643350D01*
X157956553Y-123130325D01*
X157665947Y-122695403D01*
X157231025Y-122404797D01*
X156718000Y-122302750D01*
X156204975Y-122404797D01*
X155770053Y-122695403D01*
X155479447Y-123130325D01*
X155444347Y-123306787D01*
X155335345Y-122993169D01*
X154987240Y-122601991D01*
X154512209Y-122374327D01*
X154305000Y-122457871D01*
X154305000Y-123698000D01*
X154325000Y-123698000D01*
X154325000Y-123952000D01*
X154305000Y-123952000D01*
X154305000Y-123972000D01*
X154051000Y-123972000D01*
X154051000Y-123952000D01*
X152955450Y-123952000D01*
X152908000Y-124045481D01*
X152860550Y-123952000D01*
X151765000Y-123952000D01*
X151765000Y-123972000D01*
X151511000Y-123972000D01*
X151511000Y-123952000D01*
X151491000Y-123952000D01*
X151491000Y-123698000D01*
X151511000Y-123698000D01*
X151511000Y-122457871D01*
X151765000Y-122457871D01*
X151765000Y-123698000D01*
X152860550Y-123698000D01*
X152908000Y-123604519D01*
X152955450Y-123698000D01*
X154051000Y-123698000D01*
X154051000Y-122457871D01*
X153843791Y-122374327D01*
X153368760Y-122601991D01*
X153020655Y-122993169D01*
X152908000Y-123317299D01*
X152795345Y-122993169D01*
X152447240Y-122601991D01*
X151972209Y-122374327D01*
X151765000Y-122457871D01*
X151511000Y-122457871D01*
X151303791Y-122374327D01*
X150828760Y-122601991D01*
X150480655Y-122993169D01*
X150371653Y-123306787D01*
X150336553Y-123130325D01*
X150045947Y-122695403D01*
X149611025Y-122404797D01*
X149098000Y-122302750D01*
X148584975Y-122404797D01*
X148150053Y-122695403D01*
X147859447Y-123130325D01*
X147828000Y-123288420D01*
X147796553Y-123130325D01*
X147505947Y-122695403D01*
X147071025Y-122404797D01*
X146558000Y-122302750D01*
X146155020Y-122382908D01*
X145827746Y-122055634D01*
X145774600Y-122020123D01*
X145624333Y-121919718D01*
X145384390Y-121871990D01*
X138451875Y-121871990D01*
X138401602Y-121881990D01*
X136356059Y-121881990D01*
X136295092Y-121734440D01*
X136076710Y-121515676D01*
X135791233Y-121397135D01*
X135482123Y-121396866D01*
X135196440Y-121514908D01*
X135116000Y-121595208D01*
X135116000Y-121057877D01*
X137779866Y-121057877D01*
X137897908Y-121343560D01*
X138116290Y-121562324D01*
X138401767Y-121680865D01*
X138710877Y-121681134D01*
X138996560Y-121563092D01*
X139042731Y-121517002D01*
X168735745Y-121517002D01*
X168755809Y-121513011D01*
X168914644Y-121513011D01*
X169775492Y-122373860D01*
X169418000Y-122302750D01*
X168904975Y-122404797D01*
X168470053Y-122695403D01*
X168179447Y-123130325D01*
X168148000Y-123288420D01*
X168116553Y-123130325D01*
X167825947Y-122695403D01*
X167391025Y-122404797D01*
X166878000Y-122302750D01*
X166364975Y-122404797D01*
X165930053Y-122695403D01*
X165639447Y-123130325D01*
X165608000Y-123288420D01*
X165576553Y-123130325D01*
X165285947Y-122695403D01*
X164851025Y-122404797D01*
X164338000Y-122302750D01*
X163824975Y-122404797D01*
X163390053Y-122695403D01*
X163147944Y-123057744D01*
X163147944Y-122809000D01*
X163114683Y-122632235D01*
X163010215Y-122469887D01*
X162850815Y-122360973D01*
X162661600Y-122322656D01*
X160934400Y-122322656D01*
X160757635Y-122355917D01*
X160595287Y-122460385D01*
X160486373Y-122619785D01*
X160448056Y-122809000D01*
X160448056Y-124841000D01*
X160481317Y-125017765D01*
X160585785Y-125180113D01*
X160745185Y-125289027D01*
X160934400Y-125327344D01*
X162661600Y-125327344D01*
X162838365Y-125294083D01*
X163000713Y-125189615D01*
X163109627Y-125030215D01*
X163147944Y-124841000D01*
X163147944Y-124592256D01*
X163390053Y-124954597D01*
X163824975Y-125245203D01*
X164338000Y-125347250D01*
X164851025Y-125245203D01*
X165285947Y-124954597D01*
X165576553Y-124519675D01*
X165608000Y-124361580D01*
X165639447Y-124519675D01*
X165930053Y-124954597D01*
X166364975Y-125245203D01*
X166878000Y-125347250D01*
X167391025Y-125245203D01*
X167825947Y-124954597D01*
X168116553Y-124519675D01*
X168148000Y-124361580D01*
X168179447Y-124519675D01*
X168470053Y-124954597D01*
X168904975Y-125245203D01*
X169418000Y-125347250D01*
X169931025Y-125245203D01*
X170365947Y-124954597D01*
X170656553Y-124519675D01*
X170688000Y-124361580D01*
X170719447Y-124519675D01*
X171010053Y-124954597D01*
X171444975Y-125245203D01*
X171958000Y-125347250D01*
X172471025Y-125245203D01*
X172905947Y-124954597D01*
X173196553Y-124519675D01*
X173228000Y-124361580D01*
X173259447Y-124519675D01*
X173550053Y-124954597D01*
X173984975Y-125245203D01*
X174498000Y-125347250D01*
X175011025Y-125245203D01*
X175445947Y-124954597D01*
X175736553Y-124519675D01*
X175838600Y-124006650D01*
X175838600Y-123643350D01*
X175736553Y-123130325D01*
X175445947Y-122695403D01*
X175011025Y-122404797D01*
X174498000Y-122302750D01*
X174065530Y-122388774D01*
X172233784Y-120557028D01*
X175405577Y-120557028D01*
X175638953Y-120886687D01*
X176565037Y-121259053D01*
X177563126Y-121248677D01*
X178437047Y-120886687D01*
X178670423Y-120557028D01*
X177038000Y-118924605D01*
X175405577Y-120557028D01*
X172233784Y-120557028D01*
X171752079Y-120075323D01*
X171556776Y-119944826D01*
X171326401Y-119899001D01*
X168569905Y-119899001D01*
X168549841Y-119902992D01*
X166130868Y-119902992D01*
X166131134Y-119597114D01*
X166013092Y-119311431D01*
X165794710Y-119092667D01*
X165509233Y-118974126D01*
X165200123Y-118973857D01*
X164914440Y-119091899D01*
X164857248Y-119148991D01*
X162421936Y-119148991D01*
X162365710Y-119092667D01*
X162080233Y-118974126D01*
X161771123Y-118973857D01*
X161485440Y-119091899D01*
X161266676Y-119310281D01*
X161148135Y-119595758D01*
X161147868Y-119902992D01*
X151774880Y-119902992D01*
X151775134Y-119611123D01*
X151657092Y-119325440D01*
X151600000Y-119268248D01*
X151600000Y-118697240D01*
X151837560Y-118599082D01*
X152056324Y-118380700D01*
X152101445Y-118272037D01*
X174523947Y-118272037D01*
X174534323Y-119270126D01*
X174896313Y-120144047D01*
X175225972Y-120377423D01*
X176858395Y-118745000D01*
X175225972Y-117112577D01*
X174896313Y-117345953D01*
X174523947Y-118272037D01*
X152101445Y-118272037D01*
X152174865Y-118095223D01*
X152175134Y-117786113D01*
X152057092Y-117500430D01*
X151838710Y-117281666D01*
X151553233Y-117163125D01*
X151244123Y-117162856D01*
X150958440Y-117280898D01*
X150739676Y-117499280D01*
X150621135Y-117784757D01*
X150621065Y-117865569D01*
X150572322Y-117914312D01*
X150441825Y-118109615D01*
X150396000Y-118339990D01*
X150396000Y-119268064D01*
X150339676Y-119324290D01*
X150221135Y-119609767D01*
X150220880Y-119902992D01*
X139604863Y-119902992D01*
X139555975Y-119784674D01*
X139337593Y-119565910D01*
X139052116Y-119447369D01*
X138743006Y-119447100D01*
X138457323Y-119565142D01*
X138238559Y-119783524D01*
X138120018Y-120069001D01*
X138119866Y-120243906D01*
X138117440Y-120244908D01*
X137898676Y-120463290D01*
X137780135Y-120748767D01*
X137779866Y-121057877D01*
X135116000Y-121057877D01*
X135116000Y-118935826D01*
X147803917Y-118935826D01*
X147921959Y-119221509D01*
X148140341Y-119440273D01*
X148425818Y-119558814D01*
X148734928Y-119559083D01*
X149020611Y-119441041D01*
X149239375Y-119222659D01*
X149357916Y-118937182D01*
X149357986Y-118856370D01*
X149756963Y-118457394D01*
X149837560Y-118424092D01*
X150056324Y-118205710D01*
X150174865Y-117920233D01*
X150175134Y-117611123D01*
X150057092Y-117325440D01*
X149838710Y-117106676D01*
X149553233Y-116988135D01*
X149244123Y-116987866D01*
X148958440Y-117105908D01*
X148739676Y-117324290D01*
X148621135Y-117609767D01*
X148620890Y-117890753D01*
X148506759Y-118004884D01*
X148427174Y-118004815D01*
X148141491Y-118122857D01*
X147922727Y-118341239D01*
X147804186Y-118626716D01*
X147803917Y-118935826D01*
X135116000Y-118935826D01*
X135116000Y-118110000D01*
X135049242Y-117774387D01*
X134859133Y-117489867D01*
X134574613Y-117299758D01*
X134239000Y-117233000D01*
X133903387Y-117299758D01*
X133618867Y-117489867D01*
X133428758Y-117774387D01*
X133362000Y-118110000D01*
X133362000Y-122035002D01*
X133428758Y-122370615D01*
X133618867Y-122655135D01*
X135689732Y-124726000D01*
X134620000Y-124726000D01*
X134284387Y-124792758D01*
X133999867Y-124982867D01*
X133809758Y-125267387D01*
X133743000Y-125603000D01*
X133784772Y-125813000D01*
X126475847Y-125813000D01*
X126600423Y-125637028D01*
X124968000Y-124004605D01*
X123335577Y-125637028D01*
X123460153Y-125813000D01*
X111550000Y-125813000D01*
X111550000Y-121693940D01*
X114301336Y-121693940D01*
X114301336Y-125194060D01*
X114334597Y-125370825D01*
X114439065Y-125533173D01*
X114598465Y-125642087D01*
X114787680Y-125680404D01*
X118287800Y-125680404D01*
X118464565Y-125647143D01*
X118626913Y-125542675D01*
X118735827Y-125383275D01*
X118774144Y-125194060D01*
X118774144Y-123352037D01*
X122453947Y-123352037D01*
X122464323Y-124350126D01*
X122826313Y-125224047D01*
X123155972Y-125457423D01*
X124788395Y-123825000D01*
X125147605Y-123825000D01*
X126780028Y-125457423D01*
X127109687Y-125224047D01*
X127482053Y-124297963D01*
X127471677Y-123299874D01*
X127109687Y-122425953D01*
X126780028Y-122192577D01*
X125147605Y-123825000D01*
X124788395Y-123825000D01*
X123155972Y-122192577D01*
X122826313Y-122425953D01*
X122453947Y-123352037D01*
X118774144Y-123352037D01*
X118774144Y-122012972D01*
X123335577Y-122012972D01*
X124968000Y-123645395D01*
X126600423Y-122012972D01*
X126367047Y-121683313D01*
X125440963Y-121310947D01*
X124442874Y-121321323D01*
X123568953Y-121683313D01*
X123335577Y-122012972D01*
X118774144Y-122012972D01*
X118774144Y-121693940D01*
X118740883Y-121517175D01*
X118636415Y-121354827D01*
X118477015Y-121245913D01*
X118287800Y-121207596D01*
X114787680Y-121207596D01*
X114610915Y-121240857D01*
X114448567Y-121345325D01*
X114339653Y-121504725D01*
X114301336Y-121693940D01*
X111550000Y-121693940D01*
X111550000Y-120909794D01*
X111598725Y-120943087D01*
X111787940Y-120981404D01*
X115288060Y-120981404D01*
X115464825Y-120948143D01*
X115627173Y-120843675D01*
X115736087Y-120684275D01*
X115774404Y-120495060D01*
X115774404Y-116994940D01*
X117301076Y-116994940D01*
X117301076Y-120495060D01*
X117334337Y-120671825D01*
X117438805Y-120834173D01*
X117598205Y-120943087D01*
X117787420Y-120981404D01*
X121287540Y-120981404D01*
X121464305Y-120948143D01*
X121626653Y-120843675D01*
X121735567Y-120684275D01*
X121773884Y-120495060D01*
X121773884Y-116994940D01*
X121740623Y-116818175D01*
X121636155Y-116655827D01*
X121476755Y-116546913D01*
X121287540Y-116508596D01*
X117787420Y-116508596D01*
X117610655Y-116541857D01*
X117448307Y-116646325D01*
X117339393Y-116805725D01*
X117301076Y-116994940D01*
X115774404Y-116994940D01*
X115741143Y-116818175D01*
X115636675Y-116655827D01*
X115477275Y-116546913D01*
X115288060Y-116508596D01*
X111787940Y-116508596D01*
X111611175Y-116541857D01*
X111550000Y-116581222D01*
X111550000Y-110363000D01*
X120789000Y-110363000D01*
X120789000Y-112776000D01*
X120855758Y-113111613D01*
X121045867Y-113396133D01*
X121729231Y-114079496D01*
X121729233Y-114079499D01*
X121846921Y-114158135D01*
X122013752Y-114269608D01*
X122349366Y-114336366D01*
X127053634Y-114336366D01*
X127389247Y-114269608D01*
X127673767Y-114079499D01*
X127673768Y-114079498D01*
X127680388Y-114072877D01*
X138541866Y-114072877D01*
X138659908Y-114358560D01*
X138878290Y-114577324D01*
X139163767Y-114695865D01*
X139472877Y-114696134D01*
X139758560Y-114578092D01*
X139815752Y-114521000D01*
X147051029Y-114521000D01*
X147050866Y-114707877D01*
X147168908Y-114993560D01*
X147387290Y-115212324D01*
X147672767Y-115330865D01*
X147981877Y-115331134D01*
X148267560Y-115213092D01*
X148324752Y-115156000D01*
X150708260Y-115156000D01*
X150539676Y-115324290D01*
X150421135Y-115609767D01*
X150420866Y-115918877D01*
X150538908Y-116204560D01*
X150757290Y-116423324D01*
X151042767Y-116541865D01*
X151123579Y-116541935D01*
X151619032Y-117037388D01*
X151814335Y-117167885D01*
X152044710Y-117213710D01*
X153399744Y-117213710D01*
X153399590Y-117390597D01*
X153517632Y-117676280D01*
X153736014Y-117895044D01*
X154021491Y-118013585D01*
X154330601Y-118013854D01*
X154616284Y-117895812D01*
X154673476Y-117838720D01*
X161217498Y-117838720D01*
X161315459Y-117904175D01*
X161545834Y-117950000D01*
X162444064Y-117950000D01*
X162500290Y-118006324D01*
X162785767Y-118124865D01*
X163094877Y-118125134D01*
X163380560Y-118007092D01*
X163599324Y-117788710D01*
X163717865Y-117503233D01*
X163718134Y-117194123D01*
X163610229Y-116932972D01*
X175405577Y-116932972D01*
X177038000Y-118565395D01*
X178670423Y-116932972D01*
X178437047Y-116603313D01*
X177510963Y-116230947D01*
X176512874Y-116241323D01*
X175638953Y-116603313D01*
X175405577Y-116932972D01*
X163610229Y-116932972D01*
X163600092Y-116908440D01*
X163381710Y-116689676D01*
X163096233Y-116571135D01*
X162787123Y-116570866D01*
X162501440Y-116688908D01*
X162444248Y-116746000D01*
X161762890Y-116746000D01*
X161721527Y-116718362D01*
X161983560Y-116610092D01*
X162202324Y-116391710D01*
X162320865Y-116106233D01*
X162321134Y-115797123D01*
X162318604Y-115791000D01*
X165862000Y-115791000D01*
X166092375Y-115745175D01*
X166142156Y-115711912D01*
X166396877Y-115712134D01*
X166682560Y-115594092D01*
X166901324Y-115375710D01*
X167019865Y-115090233D01*
X167020134Y-114781123D01*
X166912653Y-114521000D01*
X173874064Y-114521000D01*
X173930290Y-114577324D01*
X174215767Y-114695865D01*
X174524877Y-114696134D01*
X174810560Y-114578092D01*
X175029324Y-114359710D01*
X175147865Y-114074233D01*
X175148134Y-113765123D01*
X175030092Y-113479440D01*
X174811710Y-113260676D01*
X174526233Y-113142135D01*
X174217123Y-113141866D01*
X173931440Y-113259908D01*
X173874248Y-113317000D01*
X173411357Y-113317000D01*
X173653679Y-113074678D01*
X173784175Y-112879375D01*
X173830000Y-112649000D01*
X173830000Y-111686651D01*
X174202211Y-111437947D01*
X174492817Y-111003025D01*
X174509354Y-110919886D01*
X174613652Y-111171703D01*
X174962398Y-111561561D01*
X175433789Y-111788284D01*
X175641000Y-111705332D01*
X175641000Y-110617000D01*
X175895000Y-110617000D01*
X175895000Y-111705332D01*
X176102211Y-111788284D01*
X176573602Y-111561561D01*
X176922348Y-111171703D01*
X177066273Y-110824209D01*
X176982729Y-110617000D01*
X175895000Y-110617000D01*
X175641000Y-110617000D01*
X175621000Y-110617000D01*
X175621000Y-110363000D01*
X175641000Y-110363000D01*
X175641000Y-110343000D01*
X175895000Y-110343000D01*
X175895000Y-110363000D01*
X176982729Y-110363000D01*
X177066273Y-110155791D01*
X176922348Y-109808297D01*
X176573602Y-109418439D01*
X176157558Y-109218336D01*
X176307289Y-109188553D01*
X176742211Y-108897947D01*
X177032817Y-108463025D01*
X177134864Y-107950000D01*
X177032817Y-107436975D01*
X176742211Y-107002053D01*
X176307289Y-106711447D01*
X176149194Y-106680000D01*
X176307289Y-106648553D01*
X176742211Y-106357947D01*
X177032817Y-105923025D01*
X177134864Y-105410000D01*
X177032817Y-104896975D01*
X176742211Y-104462053D01*
X176307289Y-104171447D01*
X175794264Y-104069400D01*
X175741736Y-104069400D01*
X175228711Y-104171447D01*
X174793789Y-104462053D01*
X174577944Y-104785087D01*
X174577944Y-104546400D01*
X174544683Y-104369635D01*
X174440215Y-104207287D01*
X174280815Y-104098373D01*
X174091600Y-104060056D01*
X172364400Y-104060056D01*
X172187635Y-104093317D01*
X172025287Y-104197785D01*
X171916373Y-104357185D01*
X171878056Y-104546400D01*
X171878056Y-105056833D01*
X162639389Y-105056833D01*
X162694865Y-104923233D01*
X162695134Y-104614123D01*
X162577092Y-104328440D01*
X162358710Y-104109676D01*
X162073233Y-103991135D01*
X161764123Y-103990866D01*
X161478440Y-104108908D01*
X161333093Y-104254001D01*
X156255999Y-104254001D01*
X156025624Y-104299826D01*
X155907194Y-104378957D01*
X155802123Y-104378866D01*
X155516440Y-104496908D01*
X155297676Y-104715290D01*
X155179135Y-105000767D01*
X155179011Y-105143001D01*
X154261919Y-105143001D01*
X154031544Y-105188826D01*
X153913127Y-105267949D01*
X153818052Y-105267866D01*
X153532369Y-105385908D01*
X153475177Y-105443000D01*
X152288015Y-105443000D01*
X152288134Y-105306113D01*
X152170092Y-105020430D01*
X151951710Y-104801666D01*
X151666233Y-104683125D01*
X151357123Y-104682856D01*
X151071440Y-104800898D01*
X151014248Y-104857990D01*
X148334905Y-104857990D01*
X148278679Y-104801666D01*
X147993202Y-104683125D01*
X147684092Y-104682856D01*
X147398409Y-104800898D01*
X147179645Y-105019280D01*
X147061104Y-105304757D01*
X147060984Y-105443000D01*
X140323936Y-105443000D01*
X140267710Y-105386676D01*
X139982233Y-105268135D01*
X139673123Y-105267866D01*
X139387440Y-105385908D01*
X139168676Y-105604290D01*
X139050135Y-105889767D01*
X139049866Y-106198877D01*
X139167908Y-106484560D01*
X139386290Y-106703324D01*
X139671767Y-106821865D01*
X139980877Y-106822134D01*
X140266560Y-106704092D01*
X140323752Y-106647000D01*
X140447020Y-106647000D01*
X140446866Y-106823887D01*
X140564908Y-107109570D01*
X140783290Y-107328334D01*
X141068767Y-107446875D01*
X141377877Y-107447144D01*
X141663560Y-107329102D01*
X141720752Y-107272010D01*
X143621985Y-107272010D01*
X143621866Y-107408897D01*
X143739908Y-107694580D01*
X143958290Y-107913344D01*
X144243767Y-108031885D01*
X144552877Y-108032154D01*
X144838560Y-107914112D01*
X144870708Y-107882020D01*
X144899891Y-107882020D01*
X144975255Y-107897011D01*
X153873299Y-107897011D01*
X154192530Y-108216242D01*
X154183507Y-108222270D01*
X154078436Y-108222179D01*
X153792753Y-108340221D01*
X153573989Y-108558603D01*
X153455448Y-108844080D01*
X153455179Y-109153190D01*
X153573221Y-109438873D01*
X153791603Y-109657637D01*
X154037804Y-109759869D01*
X154138908Y-110004560D01*
X154357290Y-110223324D01*
X154642767Y-110341865D01*
X154951877Y-110342134D01*
X155237560Y-110224092D01*
X155304760Y-110157009D01*
X157718985Y-110157009D01*
X157718866Y-110293887D01*
X157836908Y-110579570D01*
X158055290Y-110798334D01*
X158140694Y-110833797D01*
X154272486Y-110833797D01*
X154216260Y-110777473D01*
X153930783Y-110658932D01*
X153621673Y-110658663D01*
X153335990Y-110776705D01*
X153278798Y-110833797D01*
X153080633Y-110833797D01*
X152967710Y-110720676D01*
X152682233Y-110602135D01*
X152373123Y-110601866D01*
X152087440Y-110719908D01*
X151868676Y-110938290D01*
X151750135Y-111223767D01*
X151749866Y-111532877D01*
X151867908Y-111818560D01*
X152086290Y-112037324D01*
X152371767Y-112155865D01*
X152680877Y-112156134D01*
X152966560Y-112038092D01*
X152966856Y-112037797D01*
X153278614Y-112037797D01*
X153334840Y-112094121D01*
X153620317Y-112212662D01*
X153929427Y-112212931D01*
X154215110Y-112094889D01*
X154272302Y-112037797D01*
X154699847Y-112037797D01*
X154484709Y-112252935D01*
X154405123Y-112252866D01*
X154119440Y-112370908D01*
X153900676Y-112589290D01*
X153782135Y-112874767D01*
X153781866Y-113183877D01*
X153899908Y-113469560D01*
X154118290Y-113688324D01*
X154403767Y-113806865D01*
X154712877Y-113807134D01*
X154998560Y-113689092D01*
X155217324Y-113470710D01*
X155335865Y-113185233D01*
X155335935Y-113104421D01*
X155888072Y-112552284D01*
X157661895Y-112552284D01*
X157539676Y-112674290D01*
X157421135Y-112959767D01*
X157420866Y-113268877D01*
X157538908Y-113554560D01*
X157757290Y-113773324D01*
X157799887Y-113791012D01*
X157548440Y-113894908D01*
X157446456Y-113996714D01*
X157285710Y-113835686D01*
X157000233Y-113717145D01*
X156691123Y-113716876D01*
X156405440Y-113834918D01*
X156186676Y-114053300D01*
X156176004Y-114079000D01*
X153754358Y-114079000D01*
X153168680Y-113493322D01*
X152973377Y-113362825D01*
X152743002Y-113317000D01*
X139815936Y-113317000D01*
X139759710Y-113260676D01*
X139474233Y-113142135D01*
X139165123Y-113141866D01*
X138879440Y-113259908D01*
X138660676Y-113478290D01*
X138542135Y-113763767D01*
X138541866Y-114072877D01*
X127680388Y-114072877D01*
X129711265Y-112042000D01*
X130348000Y-112042000D01*
X130683613Y-111975242D01*
X130968133Y-111785133D01*
X131158242Y-111500613D01*
X131225000Y-111165000D01*
X131158242Y-110829387D01*
X130968133Y-110544867D01*
X130683613Y-110354758D01*
X130348000Y-110288000D01*
X129348005Y-110288000D01*
X129348000Y-110287999D01*
X129032898Y-110350678D01*
X129012387Y-110354758D01*
X128727867Y-110544867D01*
X128727865Y-110544870D01*
X126690368Y-112582366D01*
X122712631Y-112582366D01*
X122543000Y-112412734D01*
X122543000Y-110726266D01*
X122921133Y-110348132D01*
X123111242Y-110063613D01*
X123122129Y-110008877D01*
X144256866Y-110008877D01*
X144374908Y-110294560D01*
X144593290Y-110513324D01*
X144689930Y-110553452D01*
X144594440Y-110592908D01*
X144375676Y-110811290D01*
X144257135Y-111096767D01*
X144256866Y-111405877D01*
X144374908Y-111691560D01*
X144593290Y-111910324D01*
X144878767Y-112028865D01*
X145187877Y-112029134D01*
X145473560Y-111911092D01*
X145530752Y-111854000D01*
X149208496Y-111854000D01*
X149323767Y-111901865D01*
X149632877Y-111902134D01*
X149918560Y-111784092D01*
X150137324Y-111565710D01*
X150255865Y-111280233D01*
X150256134Y-110971123D01*
X150144879Y-110701867D01*
X150451877Y-110702134D01*
X150737560Y-110584092D01*
X150956324Y-110365710D01*
X151074865Y-110080233D01*
X151075134Y-109771123D01*
X150957092Y-109485440D01*
X150738710Y-109266676D01*
X150453233Y-109148135D01*
X150144123Y-109147866D01*
X149858440Y-109265908D01*
X149801248Y-109323000D01*
X145600813Y-109323000D01*
X145474710Y-109196676D01*
X145189233Y-109078135D01*
X144880123Y-109077866D01*
X144594440Y-109195908D01*
X144375676Y-109414290D01*
X144257135Y-109699767D01*
X144256866Y-110008877D01*
X123122129Y-110008877D01*
X123178001Y-109728000D01*
X123111242Y-109392386D01*
X122921133Y-109107867D01*
X122636614Y-108917758D01*
X122301000Y-108850999D01*
X121965387Y-108917758D01*
X121680868Y-109107867D01*
X121091867Y-109696867D01*
X121045867Y-109742867D01*
X120855758Y-110027387D01*
X120789000Y-110363000D01*
X111550000Y-110363000D01*
X111550000Y-108738877D01*
X134350866Y-108738877D01*
X134468908Y-109024560D01*
X134687290Y-109243324D01*
X134972767Y-109361865D01*
X135281877Y-109362134D01*
X135567560Y-109244092D01*
X135599708Y-109212000D01*
X137958021Y-109212000D01*
X137989290Y-109243324D01*
X138274767Y-109361865D01*
X138583877Y-109362134D01*
X138869560Y-109244092D01*
X139088324Y-109025710D01*
X139206865Y-108740233D01*
X139207134Y-108431123D01*
X139089092Y-108145440D01*
X138870710Y-107926676D01*
X138585233Y-107808135D01*
X138276123Y-107807866D01*
X137990440Y-107925908D01*
X137958292Y-107958000D01*
X135599979Y-107958000D01*
X135568710Y-107926676D01*
X135283233Y-107808135D01*
X134974123Y-107807866D01*
X134688440Y-107925908D01*
X134469676Y-108144290D01*
X134351135Y-108429767D01*
X134350866Y-108738877D01*
X111550000Y-108738877D01*
X111550000Y-105537000D01*
X114693000Y-105537000D01*
X114759758Y-105872613D01*
X114949867Y-106157133D01*
X115234387Y-106347242D01*
X115570000Y-106414000D01*
X115905613Y-106347242D01*
X116190133Y-106157133D01*
X118603130Y-103744135D01*
X118603133Y-103744133D01*
X118747331Y-103528324D01*
X118793242Y-103459614D01*
X118860000Y-103124000D01*
X118860000Y-100457000D01*
X118793242Y-100121387D01*
X118603133Y-99836867D01*
X118318613Y-99646758D01*
X117983000Y-99580000D01*
X117647387Y-99646758D01*
X117362867Y-99836867D01*
X117172758Y-100121387D01*
X117106000Y-100457000D01*
X117106000Y-102760735D01*
X114949867Y-104916867D01*
X114759758Y-105201387D01*
X114693000Y-105537000D01*
X111550000Y-105537000D01*
X111550000Y-91130868D01*
X111569100Y-91143630D01*
X111942982Y-91218000D01*
X112593018Y-91218000D01*
X112966900Y-91143630D01*
X113005258Y-91118000D01*
X113968000Y-91118000D01*
X114303613Y-91051242D01*
X114588133Y-90861133D01*
X114959015Y-90490251D01*
X114968000Y-90492038D01*
X115361016Y-90413862D01*
X115694199Y-90191237D01*
X115916824Y-89858054D01*
X115995000Y-89465038D01*
X115995000Y-89016962D01*
X115916824Y-88623946D01*
X115694199Y-88290763D01*
X115361016Y-88068138D01*
X114968000Y-87989962D01*
X114574984Y-88068138D01*
X114241801Y-88290763D01*
X114019176Y-88623946D01*
X113941000Y-89016962D01*
X113941000Y-89027735D01*
X113604734Y-89364000D01*
X113005258Y-89364000D01*
X112966900Y-89338370D01*
X112593018Y-89264000D01*
X111942982Y-89264000D01*
X111569100Y-89338370D01*
X111550000Y-89351132D01*
X111550000Y-86007519D01*
X115594103Y-86007519D01*
X115712145Y-86293202D01*
X115930527Y-86511966D01*
X116216004Y-86630507D01*
X116296816Y-86630577D01*
X116541476Y-86875237D01*
X116541476Y-87298476D01*
X116587301Y-87528851D01*
X116717798Y-87724154D01*
X116951935Y-87958291D01*
X116951866Y-88037877D01*
X117069908Y-88323560D01*
X117288290Y-88542324D01*
X117573767Y-88660865D01*
X117882877Y-88661134D01*
X118168560Y-88543092D01*
X118387324Y-88324710D01*
X118505865Y-88039233D01*
X118506134Y-87730123D01*
X118388092Y-87444440D01*
X118169710Y-87225676D01*
X117884233Y-87107135D01*
X117803421Y-87107065D01*
X117745476Y-87049120D01*
X117745476Y-86625881D01*
X117699651Y-86395506D01*
X117569154Y-86200203D01*
X117148302Y-85779351D01*
X117148371Y-85699765D01*
X117090617Y-85559989D01*
X120645856Y-85559989D01*
X120763898Y-85845672D01*
X120982280Y-86064436D01*
X121267757Y-86182977D01*
X121394561Y-86183087D01*
X121552799Y-86341326D01*
X121552730Y-86420911D01*
X121670772Y-86706594D01*
X121889154Y-86925358D01*
X122174631Y-87043899D01*
X122483741Y-87044168D01*
X122729978Y-86942425D01*
X122667135Y-87093767D01*
X122666866Y-87402877D01*
X122784908Y-87688560D01*
X123003290Y-87907324D01*
X123288767Y-88025865D01*
X123334193Y-88025905D01*
X124143644Y-88835356D01*
X124347057Y-88971272D01*
X124587000Y-89019000D01*
X125738000Y-89019000D01*
X125738000Y-96693021D01*
X125706676Y-96724290D01*
X125588135Y-97009767D01*
X125587866Y-97318877D01*
X125705908Y-97604560D01*
X125924290Y-97823324D01*
X126209767Y-97941865D01*
X126518877Y-97942134D01*
X126804560Y-97824092D01*
X126870150Y-97758617D01*
X126887867Y-97785133D01*
X127172387Y-97975242D01*
X127508000Y-98042000D01*
X132623000Y-98042000D01*
X132958613Y-97975242D01*
X133243133Y-97785133D01*
X134351133Y-96677132D01*
X134541242Y-96392613D01*
X134608001Y-96057000D01*
X134541242Y-95721386D01*
X134351133Y-95436867D01*
X134066614Y-95246758D01*
X133731000Y-95179999D01*
X133395387Y-95246758D01*
X133110868Y-95436867D01*
X132259734Y-96288000D01*
X127508000Y-96288000D01*
X127172387Y-96354758D01*
X126992000Y-96475288D01*
X126992000Y-88863979D01*
X127023324Y-88832710D01*
X127141865Y-88547233D01*
X127142134Y-88238123D01*
X127024092Y-87952440D01*
X126805710Y-87733676D01*
X126520233Y-87615135D01*
X126211123Y-87614866D01*
X125925440Y-87732908D01*
X125893292Y-87765000D01*
X124846712Y-87765000D01*
X124221095Y-87139383D01*
X124221134Y-87095123D01*
X124103092Y-86809440D01*
X124071000Y-86777292D01*
X124071000Y-83566000D01*
X124023272Y-83326057D01*
X123887356Y-83122644D01*
X122824095Y-82059383D01*
X122824134Y-82015123D01*
X122706092Y-81729440D01*
X122487710Y-81510676D01*
X122202233Y-81392135D01*
X121893123Y-81391866D01*
X121607440Y-81509908D01*
X121388676Y-81728290D01*
X121270135Y-82013767D01*
X121269866Y-82322877D01*
X121387908Y-82608560D01*
X121606290Y-82827324D01*
X121891767Y-82945865D01*
X121937193Y-82945905D01*
X122817000Y-83825712D01*
X122817000Y-85655217D01*
X122770574Y-85608710D01*
X122485097Y-85490169D01*
X122404285Y-85490099D01*
X122200095Y-85285908D01*
X122200124Y-85252235D01*
X122082082Y-84966552D01*
X122040681Y-84925079D01*
X122197324Y-84768710D01*
X122315865Y-84483233D01*
X122316134Y-84174123D01*
X122198092Y-83888440D01*
X121979710Y-83669676D01*
X121694233Y-83551135D01*
X121385123Y-83550866D01*
X121099440Y-83668908D01*
X120880676Y-83887290D01*
X120762135Y-84172767D01*
X120761866Y-84481877D01*
X120879908Y-84767560D01*
X120921309Y-84809033D01*
X120764666Y-84965402D01*
X120646125Y-85250879D01*
X120645856Y-85559989D01*
X117090617Y-85559989D01*
X117030329Y-85414082D01*
X116811947Y-85195318D01*
X116526470Y-85076777D01*
X116217360Y-85076508D01*
X115931677Y-85194550D01*
X115712913Y-85412932D01*
X115594372Y-85698409D01*
X115594103Y-86007519D01*
X111550000Y-86007519D01*
X111550000Y-84130868D01*
X111569100Y-84143630D01*
X111942982Y-84218000D01*
X112593018Y-84218000D01*
X112966900Y-84143630D01*
X113156471Y-84016962D01*
X113941000Y-84016962D01*
X113941000Y-84465038D01*
X114019176Y-84858054D01*
X114241801Y-85191237D01*
X114574984Y-85413862D01*
X114968000Y-85492038D01*
X115361016Y-85413862D01*
X115694199Y-85191237D01*
X115916824Y-84858054D01*
X115995000Y-84465038D01*
X115995000Y-84016962D01*
X115916824Y-83623946D01*
X115694199Y-83290763D01*
X115361016Y-83068138D01*
X114968000Y-82989962D01*
X114574984Y-83068138D01*
X114241801Y-83290763D01*
X114019176Y-83623946D01*
X113941000Y-84016962D01*
X113156471Y-84016962D01*
X113283861Y-83931843D01*
X113495648Y-83614882D01*
X113570018Y-83241000D01*
X113495648Y-82867118D01*
X113283861Y-82550157D01*
X112966900Y-82338370D01*
X112593018Y-82264000D01*
X111942982Y-82264000D01*
X111569100Y-82338370D01*
X111550000Y-82351132D01*
X111550000Y-77377028D01*
X124605577Y-77377028D01*
X124838953Y-77706687D01*
X125765037Y-78079053D01*
X126763126Y-78068677D01*
X127637047Y-77706687D01*
X127870423Y-77377028D01*
X126238000Y-75744605D01*
X124605577Y-77377028D01*
X111550000Y-77377028D01*
X111550000Y-75092037D01*
X123723947Y-75092037D01*
X123734323Y-76090126D01*
X124096313Y-76964047D01*
X124425972Y-77197423D01*
X126058395Y-75565000D01*
X126417605Y-75565000D01*
X128050028Y-77197423D01*
X128379687Y-76964047D01*
X128622535Y-76360079D01*
X128846053Y-76694597D01*
X129280975Y-76985203D01*
X129794000Y-77087250D01*
X130195192Y-77007448D01*
X133223380Y-80172191D01*
X134464864Y-81469660D01*
X134464781Y-81564865D01*
X134582823Y-81850548D01*
X134801205Y-82069312D01*
X135086682Y-82187853D01*
X135395792Y-82188122D01*
X135681475Y-82070080D01*
X135782768Y-81968964D01*
X135954765Y-82140962D01*
X135972322Y-82167238D01*
X136375151Y-82570067D01*
X136570453Y-82700564D01*
X136608675Y-82708167D01*
X136800829Y-82746389D01*
X137135071Y-82746389D01*
X136977439Y-82887398D01*
X136777336Y-83303442D01*
X136747553Y-83153711D01*
X136456947Y-82718789D01*
X136022025Y-82428183D01*
X135509000Y-82326136D01*
X134995975Y-82428183D01*
X134561053Y-82718789D01*
X134555054Y-82727767D01*
X132808608Y-80981322D01*
X132613305Y-80850825D01*
X132382930Y-80805000D01*
X132068936Y-80805000D01*
X132012710Y-80748676D01*
X131727233Y-80630135D01*
X131418123Y-80629866D01*
X131132440Y-80747908D01*
X130913676Y-80966290D01*
X130795135Y-81251767D01*
X130794866Y-81560877D01*
X130912908Y-81846560D01*
X131131290Y-82065324D01*
X131416767Y-82183865D01*
X131725877Y-82184134D01*
X132011560Y-82066092D01*
X132068752Y-82009000D01*
X132133574Y-82009000D01*
X132536700Y-82412126D01*
X132455975Y-82428183D01*
X132021053Y-82718789D01*
X131730447Y-83153711D01*
X131628400Y-83666736D01*
X131628400Y-83719264D01*
X131730447Y-84232289D01*
X132021053Y-84667211D01*
X132344087Y-84883056D01*
X132105400Y-84883056D01*
X131928635Y-84916317D01*
X131766287Y-85020785D01*
X131657373Y-85180185D01*
X131656795Y-85183039D01*
X131148001Y-84674245D01*
X131148001Y-84332509D01*
X131102176Y-84102134D01*
X130971679Y-83906831D01*
X130523000Y-83458152D01*
X130523000Y-83300936D01*
X130579324Y-83244710D01*
X130697865Y-82959233D01*
X130698134Y-82650123D01*
X130580092Y-82364440D01*
X130361710Y-82145676D01*
X130076233Y-82027135D01*
X129903446Y-82026985D01*
X129903446Y-80878910D01*
X130122291Y-80660065D01*
X130201877Y-80660134D01*
X130487560Y-80542092D01*
X130706324Y-80323710D01*
X130824865Y-80038233D01*
X130825134Y-79729123D01*
X130707092Y-79443440D01*
X130488710Y-79224676D01*
X130203233Y-79106135D01*
X129894123Y-79105866D01*
X129608440Y-79223908D01*
X129389676Y-79442290D01*
X129271135Y-79727767D01*
X129271065Y-79808579D01*
X128875768Y-80203876D01*
X128745271Y-80399179D01*
X128699446Y-80629554D01*
X128699446Y-84012956D01*
X128745271Y-84243331D01*
X128875768Y-84438634D01*
X129143935Y-84706802D01*
X129143866Y-84786387D01*
X129261908Y-85072070D01*
X129455639Y-85266140D01*
X129412482Y-85283972D01*
X129193718Y-85502354D01*
X129075177Y-85787831D01*
X129074908Y-86096941D01*
X129192950Y-86382624D01*
X129218048Y-86407766D01*
X129144135Y-86585767D01*
X129143866Y-86894877D01*
X129261908Y-87180560D01*
X129452586Y-87371572D01*
X129395568Y-87508886D01*
X129395299Y-87817996D01*
X129503343Y-88079482D01*
X129408126Y-88308789D01*
X129407857Y-88617899D01*
X129525899Y-88903582D01*
X129744281Y-89122346D01*
X130029758Y-89240887D01*
X130110570Y-89240957D01*
X130627240Y-89757627D01*
X130822543Y-89888124D01*
X131052918Y-89933949D01*
X131695653Y-89933949D01*
X131733626Y-89971988D01*
X132019103Y-90090529D01*
X132240000Y-90090721D01*
X132240000Y-91832064D01*
X132183676Y-91888290D01*
X132065135Y-92173767D01*
X132064866Y-92482877D01*
X132182908Y-92768560D01*
X132401290Y-92987324D01*
X132686767Y-93105865D01*
X132995877Y-93106134D01*
X133281560Y-92988092D01*
X133500324Y-92769710D01*
X133618865Y-92484233D01*
X133619134Y-92175123D01*
X133501092Y-91889440D01*
X133444000Y-91832248D01*
X133444000Y-90690886D01*
X133448767Y-90692865D01*
X133757877Y-90693134D01*
X134043560Y-90575092D01*
X134262324Y-90356710D01*
X134380865Y-90071233D01*
X134380876Y-90058124D01*
X134392877Y-90058134D01*
X134678560Y-89940092D01*
X134735752Y-89883000D01*
X136002029Y-89883000D01*
X136001866Y-90069877D01*
X136119908Y-90355560D01*
X136338290Y-90574324D01*
X136623767Y-90692865D01*
X136932877Y-90693134D01*
X137218560Y-90575092D01*
X137275752Y-90518000D01*
X137933064Y-90518000D01*
X137989290Y-90574324D01*
X138274767Y-90692865D01*
X138583877Y-90693134D01*
X138869560Y-90575092D01*
X139088324Y-90356710D01*
X139206865Y-90071233D01*
X139207036Y-89874636D01*
X142087685Y-89874636D01*
X142129728Y-89882999D01*
X142171771Y-89874636D01*
X143114036Y-89874636D01*
X143113866Y-90069877D01*
X143231908Y-90355560D01*
X143450290Y-90574324D01*
X143735767Y-90692865D01*
X144044877Y-90693134D01*
X144178000Y-90638129D01*
X144178000Y-91346000D01*
X136652000Y-91346000D01*
X136459846Y-91384222D01*
X136421624Y-91391825D01*
X136226322Y-91522322D01*
X135632333Y-92116311D01*
X135501836Y-92311614D01*
X135456011Y-92541989D01*
X135456011Y-96572075D01*
X135399687Y-96628301D01*
X135281146Y-96913778D01*
X135280877Y-97222888D01*
X135398919Y-97508571D01*
X135617301Y-97727335D01*
X135902778Y-97845876D01*
X136211888Y-97846145D01*
X136497571Y-97728103D01*
X136716335Y-97509721D01*
X136834876Y-97224244D01*
X136835145Y-96915134D01*
X136783029Y-96789004D01*
X136932877Y-96789134D01*
X137218560Y-96671092D01*
X137275752Y-96614000D01*
X138811000Y-96614000D01*
X138811045Y-96613991D01*
X144946853Y-96613991D01*
X144892135Y-96745767D01*
X144891866Y-97054877D01*
X145009908Y-97340560D01*
X145228290Y-97559324D01*
X145513767Y-97677865D01*
X145822877Y-97678134D01*
X146108560Y-97560092D01*
X146165752Y-97503000D01*
X149098000Y-97503000D01*
X149163333Y-97490004D01*
X149239114Y-97565918D01*
X149201676Y-97603290D01*
X149083135Y-97888767D01*
X149082866Y-98197877D01*
X149200908Y-98483560D01*
X149419290Y-98702324D01*
X149704767Y-98820865D01*
X150013877Y-98821134D01*
X150299560Y-98703092D01*
X150356752Y-98646000D01*
X150549518Y-98646000D01*
X150520133Y-98716766D01*
X150519930Y-98950134D01*
X144323289Y-98940260D01*
X144296092Y-98874440D01*
X144077710Y-98655676D01*
X143792233Y-98537135D01*
X143483123Y-98536866D01*
X143197440Y-98654908D01*
X142978676Y-98873290D01*
X142869364Y-99136542D01*
X142649233Y-99045135D01*
X142340123Y-99044866D01*
X142054440Y-99162908D01*
X141997248Y-99220000D01*
X137910936Y-99220000D01*
X137854710Y-99163676D01*
X137569233Y-99045135D01*
X137260123Y-99044866D01*
X136974440Y-99162908D01*
X136755676Y-99381290D01*
X136637135Y-99666767D01*
X136636953Y-99875999D01*
X134944601Y-99875999D01*
X134898092Y-99763440D01*
X134679710Y-99544676D01*
X134394233Y-99426135D01*
X134085123Y-99425866D01*
X133799440Y-99543908D01*
X133580676Y-99762290D01*
X133462135Y-100047767D01*
X133461866Y-100356877D01*
X133579908Y-100642560D01*
X133798290Y-100861324D01*
X134083767Y-100979865D01*
X134145875Y-100979919D01*
X134299057Y-101082272D01*
X134538999Y-101129999D01*
X137750161Y-101129999D01*
X137862290Y-101242324D01*
X138147767Y-101360865D01*
X138456877Y-101361134D01*
X138742560Y-101243092D01*
X138961324Y-101024710D01*
X139079865Y-100739233D01*
X139080134Y-100430123D01*
X139077604Y-100424000D01*
X141997064Y-100424000D01*
X142053290Y-100480324D01*
X142338767Y-100598865D01*
X142647877Y-100599134D01*
X142933560Y-100481092D01*
X143152324Y-100262710D01*
X143261636Y-99999458D01*
X143481767Y-100090865D01*
X143623801Y-100090989D01*
X143633269Y-100097337D01*
X143633748Y-100097433D01*
X143634155Y-100097705D01*
X143749024Y-100120554D01*
X143863571Y-100143529D01*
X151623140Y-100155893D01*
X151567440Y-100178908D01*
X151348676Y-100397290D01*
X151230135Y-100682767D01*
X151229866Y-100991877D01*
X151347908Y-101277560D01*
X151566290Y-101496324D01*
X151851767Y-101614865D01*
X152160877Y-101615134D01*
X152446560Y-101497092D01*
X152503752Y-101440000D01*
X153889585Y-101440000D01*
X153782135Y-101698767D01*
X153781866Y-102007877D01*
X153899908Y-102293560D01*
X154118290Y-102512324D01*
X154403767Y-102630865D01*
X154578911Y-102631017D01*
X154544135Y-102714767D01*
X154543866Y-103023877D01*
X154661908Y-103309560D01*
X154880290Y-103528324D01*
X155165767Y-103646865D01*
X155474877Y-103647134D01*
X155760560Y-103529092D01*
X155817752Y-103472000D01*
X159368496Y-103472000D01*
X159483767Y-103519865D01*
X159792877Y-103520134D01*
X160078560Y-103402092D01*
X160297324Y-103183710D01*
X160415865Y-102898233D01*
X160415985Y-102759999D01*
X164357287Y-102759999D01*
X164402644Y-102805356D01*
X164606057Y-102941272D01*
X164846000Y-102989000D01*
X176947021Y-102989000D01*
X176978290Y-103020324D01*
X177263767Y-103138865D01*
X177572877Y-103139134D01*
X177858560Y-103021092D01*
X178077324Y-102802710D01*
X178195865Y-102517233D01*
X178196134Y-102208123D01*
X178078092Y-101922440D01*
X177859710Y-101703676D01*
X177574233Y-101585135D01*
X177265123Y-101584866D01*
X176979440Y-101702908D01*
X176947292Y-101735000D01*
X176843362Y-101735000D01*
X176922348Y-101646703D01*
X177066273Y-101299209D01*
X176982729Y-101092000D01*
X175895000Y-101092000D01*
X175895000Y-101112000D01*
X175641000Y-101112000D01*
X175641000Y-101092000D01*
X175621000Y-101092000D01*
X175621000Y-100838000D01*
X175641000Y-100838000D01*
X175641000Y-100818000D01*
X175895000Y-100818000D01*
X175895000Y-100838000D01*
X176982729Y-100838000D01*
X177066273Y-100630791D01*
X176922348Y-100283297D01*
X176573602Y-99893439D01*
X176157558Y-99693336D01*
X176307289Y-99663553D01*
X176742211Y-99372947D01*
X177032817Y-98938025D01*
X177134864Y-98425000D01*
X177032817Y-97911975D01*
X176742211Y-97477053D01*
X176307289Y-97186447D01*
X176149194Y-97155000D01*
X176307289Y-97123553D01*
X176742211Y-96832947D01*
X177032817Y-96398025D01*
X177134864Y-95885000D01*
X177032817Y-95371975D01*
X176742211Y-94937053D01*
X176307289Y-94646447D01*
X175794264Y-94544400D01*
X175741736Y-94544400D01*
X175228711Y-94646447D01*
X174793789Y-94937053D01*
X174577944Y-95260087D01*
X174577944Y-95021400D01*
X174544683Y-94844635D01*
X174440215Y-94682287D01*
X174280815Y-94573373D01*
X174091600Y-94535056D01*
X172582399Y-94535056D01*
X172667864Y-94329234D01*
X172668133Y-94020124D01*
X172550091Y-93734441D01*
X172331709Y-93515677D01*
X172046232Y-93397136D01*
X171737122Y-93396867D01*
X171451439Y-93514909D01*
X171394247Y-93572001D01*
X171089805Y-93572001D01*
X171219324Y-93442708D01*
X171337865Y-93157231D01*
X171338134Y-92848121D01*
X171242649Y-92617028D01*
X175405577Y-92617028D01*
X175638953Y-92946687D01*
X176565037Y-93319053D01*
X177563126Y-93308677D01*
X178437047Y-92946687D01*
X178670423Y-92617028D01*
X177038000Y-90984605D01*
X175405577Y-92617028D01*
X171242649Y-92617028D01*
X171220092Y-92562438D01*
X171001710Y-92343674D01*
X170716233Y-92225133D01*
X170407123Y-92224864D01*
X170244037Y-92292250D01*
X170152123Y-92230835D01*
X169921748Y-92185010D01*
X169462633Y-92185010D01*
X169670570Y-92099092D01*
X169889334Y-91880710D01*
X170007875Y-91595233D01*
X170008144Y-91286123D01*
X169890102Y-91000440D01*
X169671720Y-90781676D01*
X169386243Y-90663135D01*
X169077133Y-90662866D01*
X168791450Y-90780908D01*
X168734258Y-90838000D01*
X167866998Y-90838000D01*
X167674844Y-90876222D01*
X167636622Y-90883825D01*
X167441319Y-91014322D01*
X167440642Y-91014999D01*
X164330124Y-91014999D01*
X164352865Y-90960233D01*
X164353134Y-90651123D01*
X164235092Y-90365440D01*
X164201748Y-90332037D01*
X174523947Y-90332037D01*
X174534323Y-91330126D01*
X174896313Y-92204047D01*
X175225972Y-92437423D01*
X176858395Y-90805000D01*
X175225972Y-89172577D01*
X174896313Y-89405953D01*
X174523947Y-90332037D01*
X164201748Y-90332037D01*
X164016710Y-90146676D01*
X163731233Y-90028135D01*
X163422123Y-90027866D01*
X163136440Y-90145908D01*
X163104292Y-90178000D01*
X157735426Y-90178000D01*
X158920454Y-88992972D01*
X175405577Y-88992972D01*
X177038000Y-90625395D01*
X178670423Y-88992972D01*
X178437047Y-88663313D01*
X177510963Y-88290947D01*
X176512874Y-88301323D01*
X175638953Y-88663313D01*
X175405577Y-88992972D01*
X158920454Y-88992972D01*
X163348798Y-84564629D01*
X163464726Y-84680760D01*
X163750203Y-84799301D01*
X164059313Y-84799570D01*
X164184588Y-84747807D01*
X164265307Y-84943161D01*
X164483689Y-85161925D01*
X164769166Y-85280466D01*
X165078276Y-85280735D01*
X165363959Y-85162693D01*
X165411133Y-85115601D01*
X168417850Y-85115601D01*
X168233183Y-85391975D01*
X168131136Y-85905000D01*
X168233183Y-86418025D01*
X168386179Y-86647000D01*
X166231936Y-86647000D01*
X166175710Y-86590676D01*
X165890233Y-86472135D01*
X165581123Y-86471866D01*
X165295440Y-86589908D01*
X165076676Y-86808290D01*
X164958135Y-87093767D01*
X164957866Y-87402877D01*
X165075908Y-87688560D01*
X165294290Y-87907324D01*
X165579767Y-88025865D01*
X165888877Y-88026134D01*
X166174560Y-87908092D01*
X166231752Y-87851000D01*
X168734074Y-87851000D01*
X168790300Y-87907324D01*
X169075777Y-88025865D01*
X169384887Y-88026134D01*
X169670570Y-87908092D01*
X169889334Y-87689710D01*
X170007875Y-87404233D01*
X170008097Y-87149360D01*
X170037289Y-87143553D01*
X170472211Y-86852947D01*
X170762817Y-86418025D01*
X170779354Y-86334886D01*
X170883652Y-86586703D01*
X171232398Y-86976561D01*
X171703789Y-87203284D01*
X171911000Y-87120332D01*
X171911000Y-86032000D01*
X172165000Y-86032000D01*
X172165000Y-87120332D01*
X172372211Y-87203284D01*
X172843602Y-86976561D01*
X173192348Y-86586703D01*
X173336273Y-86239209D01*
X173252729Y-86032000D01*
X172165000Y-86032000D01*
X171911000Y-86032000D01*
X171891000Y-86032000D01*
X171891000Y-85778000D01*
X171911000Y-85778000D01*
X171911000Y-85758000D01*
X172165000Y-85758000D01*
X172165000Y-85778000D01*
X173252729Y-85778000D01*
X173336273Y-85570791D01*
X173192348Y-85223297D01*
X172843602Y-84833439D01*
X172427558Y-84633336D01*
X172577289Y-84603553D01*
X173012211Y-84312947D01*
X173302817Y-83878025D01*
X173404864Y-83365000D01*
X173302817Y-82851975D01*
X173012211Y-82417053D01*
X172577289Y-82126447D01*
X172419194Y-82095000D01*
X172577289Y-82063553D01*
X173012211Y-81772947D01*
X173302817Y-81338025D01*
X173404864Y-80825000D01*
X173302817Y-80311975D01*
X173012211Y-79877053D01*
X172577289Y-79586447D01*
X172064264Y-79484400D01*
X172011736Y-79484400D01*
X171498711Y-79586447D01*
X171063789Y-79877053D01*
X170847944Y-80200087D01*
X170847944Y-79961400D01*
X170814683Y-79784635D01*
X170710215Y-79622287D01*
X170550815Y-79513373D01*
X170361600Y-79475056D01*
X168724332Y-79475056D01*
X169843678Y-78355710D01*
X169974175Y-78160407D01*
X170020000Y-77930032D01*
X170020000Y-76925752D01*
X170365947Y-76694597D01*
X170656553Y-76259675D01*
X170688000Y-76101580D01*
X170719447Y-76259675D01*
X171010053Y-76694597D01*
X171444975Y-76985203D01*
X171958000Y-77087250D01*
X172471025Y-76985203D01*
X172905947Y-76694597D01*
X173196553Y-76259675D01*
X173228000Y-76101580D01*
X173259447Y-76259675D01*
X173550053Y-76694597D01*
X173984975Y-76985203D01*
X174498000Y-77087250D01*
X175011025Y-76985203D01*
X175445947Y-76694597D01*
X175736553Y-76259675D01*
X175838600Y-75746650D01*
X175838600Y-75383350D01*
X175736553Y-74870325D01*
X175445947Y-74435403D01*
X175011025Y-74144797D01*
X174498000Y-74042750D01*
X173984975Y-74144797D01*
X173550053Y-74435403D01*
X173259447Y-74870325D01*
X173228000Y-75028420D01*
X173196553Y-74870325D01*
X172905947Y-74435403D01*
X172471025Y-74144797D01*
X171958000Y-74042750D01*
X171444975Y-74144797D01*
X171010053Y-74435403D01*
X170719447Y-74870325D01*
X170688000Y-75028420D01*
X170656553Y-74870325D01*
X170365947Y-74435403D01*
X169931025Y-74144797D01*
X169418000Y-74042750D01*
X168904975Y-74144797D01*
X168470053Y-74435403D01*
X168179447Y-74870325D01*
X168148000Y-75028420D01*
X168116553Y-74870325D01*
X167825947Y-74435403D01*
X167391025Y-74144797D01*
X166878000Y-74042750D01*
X166364975Y-74144797D01*
X165930053Y-74435403D01*
X165639447Y-74870325D01*
X165608000Y-75028420D01*
X165576553Y-74870325D01*
X165285947Y-74435403D01*
X164851025Y-74144797D01*
X164338000Y-74042750D01*
X163824975Y-74144797D01*
X163390053Y-74435403D01*
X163099447Y-74870325D01*
X163068000Y-75028420D01*
X163036553Y-74870325D01*
X162745947Y-74435403D01*
X162311025Y-74144797D01*
X161798000Y-74042750D01*
X161284975Y-74144797D01*
X160850053Y-74435403D01*
X160559447Y-74870325D01*
X160528000Y-75028420D01*
X160496553Y-74870325D01*
X160205947Y-74435403D01*
X159771025Y-74144797D01*
X159258000Y-74042750D01*
X158744975Y-74144797D01*
X158310053Y-74435403D01*
X158019447Y-74870325D01*
X157988000Y-75028420D01*
X157956553Y-74870325D01*
X157665947Y-74435403D01*
X157231025Y-74144797D01*
X156718000Y-74042750D01*
X156204975Y-74144797D01*
X155770053Y-74435403D01*
X155479447Y-74870325D01*
X155377400Y-75383350D01*
X155377400Y-75746650D01*
X155479447Y-76259675D01*
X155770053Y-76694597D01*
X156116000Y-76925752D01*
X156116000Y-80610670D01*
X153636253Y-83090417D01*
X153541813Y-82949077D01*
X151302673Y-80709937D01*
X151302673Y-78529683D01*
X152767729Y-77064628D01*
X153167025Y-76985203D01*
X153601947Y-76694597D01*
X153892553Y-76259675D01*
X153994600Y-75746650D01*
X153994600Y-75383350D01*
X153892553Y-74870325D01*
X153601947Y-74435403D01*
X153167025Y-74144797D01*
X152654000Y-74042750D01*
X152140975Y-74144797D01*
X151706053Y-74435403D01*
X151415447Y-74870325D01*
X151384000Y-75028420D01*
X151352553Y-74870325D01*
X151061947Y-74435403D01*
X150627025Y-74144797D01*
X150114000Y-74042750D01*
X149600975Y-74144797D01*
X149166053Y-74435403D01*
X148875447Y-74870325D01*
X148844000Y-75028420D01*
X148812553Y-74870325D01*
X148521947Y-74435403D01*
X148087025Y-74144797D01*
X147574000Y-74042750D01*
X147060975Y-74144797D01*
X146626053Y-74435403D01*
X146588596Y-74491461D01*
X145935447Y-73838312D01*
X145740144Y-73707815D01*
X145509769Y-73661990D01*
X134398231Y-73661990D01*
X134167856Y-73707815D01*
X133972553Y-73838312D01*
X133319404Y-74491461D01*
X133281947Y-74435403D01*
X132847025Y-74144797D01*
X132334000Y-74042750D01*
X131820975Y-74144797D01*
X131386053Y-74435403D01*
X131095447Y-74870325D01*
X131064000Y-75028420D01*
X131032553Y-74870325D01*
X130741947Y-74435403D01*
X130307025Y-74144797D01*
X129794000Y-74042750D01*
X129280975Y-74144797D01*
X128846053Y-74435403D01*
X128627056Y-74763155D01*
X128379687Y-74165953D01*
X128050028Y-73932577D01*
X126417605Y-75565000D01*
X126058395Y-75565000D01*
X124425972Y-73932577D01*
X124096313Y-74165953D01*
X123723947Y-75092037D01*
X111550000Y-75092037D01*
X111550000Y-73577000D01*
X124730153Y-73577000D01*
X124605577Y-73752972D01*
G36*
X171963183Y-107436975D02*
X171861136Y-107950000D01*
X171963183Y-108463025D01*
X172253789Y-108897947D01*
X172688711Y-109188553D01*
X172846806Y-109220000D01*
X172688711Y-109251447D01*
X172253789Y-109542053D01*
X171963183Y-109976975D01*
X171861136Y-110490000D01*
X171963183Y-111003025D01*
X172253789Y-111437947D01*
X172626000Y-111686651D01*
X172626000Y-112399643D01*
X172333654Y-112691990D01*
X165095356Y-112691990D01*
X164636687Y-112233321D01*
X164441384Y-112102824D01*
X164211009Y-112056999D01*
X163275999Y-112056999D01*
X163085515Y-112094889D01*
X163045623Y-112102824D01*
X162939100Y-112174000D01*
X162178926Y-112174000D01*
X162188251Y-112164691D01*
X162291956Y-111914944D01*
X162581600Y-111914944D01*
X162758365Y-111881683D01*
X162920713Y-111777215D01*
X163029627Y-111617815D01*
X163067944Y-111428600D01*
X163067944Y-111176870D01*
X163310053Y-111539211D01*
X163744975Y-111829817D01*
X164258000Y-111931864D01*
X164771025Y-111829817D01*
X165205947Y-111539211D01*
X165496553Y-111104289D01*
X165528000Y-110946194D01*
X165559447Y-111104289D01*
X165850053Y-111539211D01*
X166284975Y-111829817D01*
X166798000Y-111931864D01*
X167311025Y-111829817D01*
X167745947Y-111539211D01*
X168036553Y-111104289D01*
X168138600Y-110591264D01*
X168138600Y-110538736D01*
X168036553Y-110025711D01*
X167745947Y-109590789D01*
X167311025Y-109300183D01*
X167227886Y-109283646D01*
X167479703Y-109179348D01*
X167869561Y-108830602D01*
X168096284Y-108359211D01*
X168013332Y-108152000D01*
X166925000Y-108152000D01*
X166925000Y-108172000D01*
X166671000Y-108172000D01*
X166671000Y-108152000D01*
X166651000Y-108152000D01*
X166651000Y-107898000D01*
X166671000Y-107898000D01*
X166671000Y-107878000D01*
X166925000Y-107878000D01*
X166925000Y-107898000D01*
X168013332Y-107898000D01*
X168096284Y-107690789D01*
X167958059Y-107403399D01*
X171985618Y-107403399D01*
X171963183Y-107436975D01*
X171963183Y-107436975D01*
G37*
X171963183Y-107436975D02*
X171861136Y-107950000D01*
X171963183Y-108463025D01*
X172253789Y-108897947D01*
X172688711Y-109188553D01*
X172846806Y-109220000D01*
X172688711Y-109251447D01*
X172253789Y-109542053D01*
X171963183Y-109976975D01*
X171861136Y-110490000D01*
X171963183Y-111003025D01*
X172253789Y-111437947D01*
X172626000Y-111686651D01*
X172626000Y-112399643D01*
X172333654Y-112691990D01*
X165095356Y-112691990D01*
X164636687Y-112233321D01*
X164441384Y-112102824D01*
X164211009Y-112056999D01*
X163275999Y-112056999D01*
X163085515Y-112094889D01*
X163045623Y-112102824D01*
X162939100Y-112174000D01*
X162178926Y-112174000D01*
X162188251Y-112164691D01*
X162291956Y-111914944D01*
X162581600Y-111914944D01*
X162758365Y-111881683D01*
X162920713Y-111777215D01*
X163029627Y-111617815D01*
X163067944Y-111428600D01*
X163067944Y-111176870D01*
X163310053Y-111539211D01*
X163744975Y-111829817D01*
X164258000Y-111931864D01*
X164771025Y-111829817D01*
X165205947Y-111539211D01*
X165496553Y-111104289D01*
X165528000Y-110946194D01*
X165559447Y-111104289D01*
X165850053Y-111539211D01*
X166284975Y-111829817D01*
X166798000Y-111931864D01*
X167311025Y-111829817D01*
X167745947Y-111539211D01*
X168036553Y-111104289D01*
X168138600Y-110591264D01*
X168138600Y-110538736D01*
X168036553Y-110025711D01*
X167745947Y-109590789D01*
X167311025Y-109300183D01*
X167227886Y-109283646D01*
X167479703Y-109179348D01*
X167869561Y-108830602D01*
X168096284Y-108359211D01*
X168013332Y-108152000D01*
X166925000Y-108152000D01*
X166925000Y-108172000D01*
X166671000Y-108172000D01*
X166671000Y-108152000D01*
X166651000Y-108152000D01*
X166651000Y-107898000D01*
X166671000Y-107898000D01*
X166671000Y-107878000D01*
X166925000Y-107878000D01*
X166925000Y-107898000D01*
X168013332Y-107898000D01*
X168096284Y-107690789D01*
X167958059Y-107403399D01*
X171985618Y-107403399D01*
X171963183Y-107436975D01*
G36*
X154798037Y-100160952D02*
X154797971Y-100236000D01*
X152503936Y-100236000D01*
X152447710Y-100179676D01*
X152393390Y-100157120D01*
X154798037Y-100160952D01*
X154798037Y-100160952D01*
G37*
X154798037Y-100160952D02*
X154797971Y-100236000D01*
X152503936Y-100236000D01*
X152447710Y-100179676D01*
X152393390Y-100157120D01*
X154798037Y-100160952D01*
G36*
X171450289Y-94832325D02*
X171735766Y-94950866D01*
X171892312Y-94951002D01*
X171878056Y-95021400D01*
X171878056Y-96748600D01*
X171911317Y-96925365D01*
X172015785Y-97087713D01*
X172023518Y-97092996D01*
X169915524Y-99200990D01*
X167853488Y-99200990D01*
X167945947Y-99139211D01*
X168236553Y-98704289D01*
X168338600Y-98191264D01*
X168338600Y-98138736D01*
X168236553Y-97625711D01*
X168189036Y-97554596D01*
X168425209Y-97554802D01*
X168710892Y-97436760D01*
X168929656Y-97218378D01*
X169048197Y-96932901D01*
X169048466Y-96623791D01*
X168930424Y-96338108D01*
X168712042Y-96119344D01*
X168426565Y-96000803D01*
X168276343Y-96000672D01*
X168296284Y-95959211D01*
X168213332Y-95752000D01*
X167125000Y-95752000D01*
X167125000Y-95772000D01*
X166871000Y-95772000D01*
X166871000Y-95752000D01*
X166851000Y-95752000D01*
X166851000Y-95498000D01*
X166871000Y-95498000D01*
X166871000Y-95478000D01*
X167125000Y-95478000D01*
X167125000Y-95498000D01*
X168213332Y-95498000D01*
X168296284Y-95290789D01*
X168069561Y-94819398D01*
X168021048Y-94776001D01*
X171394063Y-94776001D01*
X171450289Y-94832325D01*
X171450289Y-94832325D01*
G37*
X171450289Y-94832325D02*
X171735766Y-94950866D01*
X171892312Y-94951002D01*
X171878056Y-95021400D01*
X171878056Y-96748600D01*
X171911317Y-96925365D01*
X172015785Y-97087713D01*
X172023518Y-97092996D01*
X169915524Y-99200990D01*
X167853488Y-99200990D01*
X167945947Y-99139211D01*
X168236553Y-98704289D01*
X168338600Y-98191264D01*
X168338600Y-98138736D01*
X168236553Y-97625711D01*
X168189036Y-97554596D01*
X168425209Y-97554802D01*
X168710892Y-97436760D01*
X168929656Y-97218378D01*
X169048197Y-96932901D01*
X169048466Y-96623791D01*
X168930424Y-96338108D01*
X168712042Y-96119344D01*
X168426565Y-96000803D01*
X168276343Y-96000672D01*
X168296284Y-95959211D01*
X168213332Y-95752000D01*
X167125000Y-95752000D01*
X167125000Y-95772000D01*
X166871000Y-95772000D01*
X166871000Y-95752000D01*
X166851000Y-95752000D01*
X166851000Y-95498000D01*
X166871000Y-95498000D01*
X166871000Y-95478000D01*
X167125000Y-95478000D01*
X167125000Y-95498000D01*
X168213332Y-95498000D01*
X168296284Y-95290789D01*
X168069561Y-94819398D01*
X168021048Y-94776001D01*
X171394063Y-94776001D01*
X171450289Y-94832325D01*
G36*
X152663705Y-96003602D02*
X152685816Y-96018376D01*
X152916191Y-96064201D01*
X152956752Y-96064201D01*
X153039739Y-96265045D01*
X153069901Y-96295260D01*
X152855451Y-96509336D01*
X152846343Y-96531271D01*
X152757375Y-96471825D01*
X152527000Y-96426000D01*
X150547065Y-96426000D01*
X150576866Y-96354232D01*
X150577135Y-96045122D01*
X150549814Y-95979000D01*
X152322990Y-95979000D01*
X152553365Y-95933175D01*
X152555834Y-95931525D01*
X152663705Y-96003602D01*
X152663705Y-96003602D01*
G37*
X152663705Y-96003602D02*
X152685816Y-96018376D01*
X152916191Y-96064201D01*
X152956752Y-96064201D01*
X153039739Y-96265045D01*
X153069901Y-96295260D01*
X152855451Y-96509336D01*
X152846343Y-96531271D01*
X152757375Y-96471825D01*
X152527000Y-96426000D01*
X150547065Y-96426000D01*
X150576866Y-96354232D01*
X150577135Y-96045122D01*
X150549814Y-95979000D01*
X152322990Y-95979000D01*
X152553365Y-95933175D01*
X152555834Y-95931525D01*
X152663705Y-96003602D01*
G36*
X160734968Y-95002618D02*
X160683233Y-94981135D01*
X160374123Y-94980866D01*
X160095475Y-95096001D01*
X158638015Y-95096001D01*
X158638037Y-95070319D01*
X158932355Y-94776001D01*
X160886389Y-94776001D01*
X160734968Y-95002618D01*
X160734968Y-95002618D01*
G37*
X160734968Y-95002618D02*
X160683233Y-94981135D01*
X160374123Y-94980866D01*
X160095475Y-95096001D01*
X158638015Y-95096001D01*
X158638037Y-95070319D01*
X158932355Y-94776001D01*
X160886389Y-94776001D01*
X160734968Y-95002618D01*
G36*
X163135290Y-80668324D02*
X163420767Y-80786865D01*
X163729877Y-80787134D01*
X163736000Y-80784604D01*
X163736000Y-80958804D01*
X156288771Y-88406033D01*
X155778879Y-88406033D01*
X155548504Y-88451858D01*
X155430074Y-88530989D01*
X155325003Y-88530898D01*
X155039320Y-88648940D01*
X154820556Y-88867322D01*
X154702015Y-89152799D01*
X154701746Y-89461909D01*
X154819788Y-89747592D01*
X155038170Y-89966356D01*
X155323647Y-90084897D01*
X155618654Y-90085154D01*
X155677908Y-90228560D01*
X155829898Y-90380816D01*
X155805036Y-90405678D01*
X155138035Y-90405678D01*
X155082065Y-90349708D01*
X155082134Y-90270123D01*
X154964092Y-89984440D01*
X154745710Y-89765676D01*
X154460233Y-89647135D01*
X154151123Y-89646866D01*
X153872012Y-89762193D01*
X153872012Y-87263344D01*
X155268291Y-85867065D01*
X155347877Y-85867134D01*
X155633560Y-85749092D01*
X155852324Y-85530710D01*
X155970865Y-85245233D01*
X155971081Y-84997001D01*
X156942997Y-84997001D01*
X157173372Y-84951176D01*
X157368675Y-84820679D01*
X161577354Y-80612000D01*
X163079064Y-80612000D01*
X163135290Y-80668324D01*
X163135290Y-80668324D01*
G37*
X163135290Y-80668324D02*
X163420767Y-80786865D01*
X163729877Y-80787134D01*
X163736000Y-80784604D01*
X163736000Y-80958804D01*
X156288771Y-88406033D01*
X155778879Y-88406033D01*
X155548504Y-88451858D01*
X155430074Y-88530989D01*
X155325003Y-88530898D01*
X155039320Y-88648940D01*
X154820556Y-88867322D01*
X154702015Y-89152799D01*
X154701746Y-89461909D01*
X154819788Y-89747592D01*
X155038170Y-89966356D01*
X155323647Y-90084897D01*
X155618654Y-90085154D01*
X155677908Y-90228560D01*
X155829898Y-90380816D01*
X155805036Y-90405678D01*
X155138035Y-90405678D01*
X155082065Y-90349708D01*
X155082134Y-90270123D01*
X154964092Y-89984440D01*
X154745710Y-89765676D01*
X154460233Y-89647135D01*
X154151123Y-89646866D01*
X153872012Y-89762193D01*
X153872012Y-87263344D01*
X155268291Y-85867065D01*
X155347877Y-85867134D01*
X155633560Y-85749092D01*
X155852324Y-85530710D01*
X155970865Y-85245233D01*
X155971081Y-84997001D01*
X156942997Y-84997001D01*
X157173372Y-84951176D01*
X157368675Y-84820679D01*
X161577354Y-80612000D01*
X163079064Y-80612000D01*
X163135290Y-80668324D01*
G36*
X146978171Y-88640679D02*
X147173474Y-88771176D01*
X147403849Y-88817001D01*
X148524685Y-88817001D01*
X148524685Y-89393054D01*
X148309123Y-89392866D01*
X148023440Y-89510908D01*
X147881163Y-89652937D01*
X144858740Y-89646637D01*
X144858612Y-89646612D01*
X144845787Y-89646612D01*
X144731257Y-89669394D01*
X144637445Y-89687851D01*
X144550092Y-89476440D01*
X144490787Y-89417031D01*
X144540865Y-89296430D01*
X144540886Y-89272355D01*
X144675315Y-89272472D01*
X144960998Y-89154430D01*
X145179762Y-88936048D01*
X145298303Y-88650571D01*
X145298572Y-88341461D01*
X145180530Y-88055778D01*
X144962148Y-87837014D01*
X144676671Y-87718473D01*
X144367561Y-87718204D01*
X144081878Y-87836246D01*
X143963731Y-87954187D01*
X142872444Y-87954187D01*
X142889865Y-87912233D01*
X142890134Y-87603123D01*
X142772092Y-87317440D01*
X142553710Y-87098676D01*
X142268233Y-86980135D01*
X141959123Y-86979866D01*
X141673440Y-87097908D01*
X141601825Y-87169398D01*
X139022213Y-87169398D01*
X139287553Y-86772289D01*
X139389600Y-86259264D01*
X139389600Y-86206736D01*
X139287553Y-85693711D01*
X139201551Y-85565000D01*
X142759064Y-85565000D01*
X142815290Y-85621324D01*
X143100767Y-85739865D01*
X143409877Y-85740134D01*
X143695560Y-85622092D01*
X143827687Y-85490195D01*
X146978171Y-88640679D01*
X146978171Y-88640679D01*
G37*
X146978171Y-88640679D02*
X147173474Y-88771176D01*
X147403849Y-88817001D01*
X148524685Y-88817001D01*
X148524685Y-89393054D01*
X148309123Y-89392866D01*
X148023440Y-89510908D01*
X147881163Y-89652937D01*
X144858740Y-89646637D01*
X144858612Y-89646612D01*
X144845787Y-89646612D01*
X144731257Y-89669394D01*
X144637445Y-89687851D01*
X144550092Y-89476440D01*
X144490787Y-89417031D01*
X144540865Y-89296430D01*
X144540886Y-89272355D01*
X144675315Y-89272472D01*
X144960998Y-89154430D01*
X145179762Y-88936048D01*
X145298303Y-88650571D01*
X145298572Y-88341461D01*
X145180530Y-88055778D01*
X144962148Y-87837014D01*
X144676671Y-87718473D01*
X144367561Y-87718204D01*
X144081878Y-87836246D01*
X143963731Y-87954187D01*
X142872444Y-87954187D01*
X142889865Y-87912233D01*
X142890134Y-87603123D01*
X142772092Y-87317440D01*
X142553710Y-87098676D01*
X142268233Y-86980135D01*
X141959123Y-86979866D01*
X141673440Y-87097908D01*
X141601825Y-87169398D01*
X139022213Y-87169398D01*
X139287553Y-86772289D01*
X139389600Y-86259264D01*
X139389600Y-86206736D01*
X139287553Y-85693711D01*
X139201551Y-85565000D01*
X142759064Y-85565000D01*
X142815290Y-85621324D01*
X143100767Y-85739865D01*
X143409877Y-85740134D01*
X143695560Y-85622092D01*
X143827687Y-85490195D01*
X146978171Y-88640679D01*
G36*
X137541000Y-75438000D02*
X137561000Y-75438000D01*
X137561000Y-75692000D01*
X137541000Y-75692000D01*
X137541000Y-76932129D01*
X137748209Y-77015673D01*
X138223240Y-76788009D01*
X138571345Y-76396831D01*
X138680347Y-76083213D01*
X138715447Y-76259675D01*
X139006053Y-76694597D01*
X139352000Y-76925752D01*
X139352000Y-76963000D01*
X139397825Y-77193375D01*
X139528322Y-77388678D01*
X139723625Y-77519175D01*
X139802510Y-77534866D01*
X147616393Y-85348750D01*
X147616367Y-85378706D01*
X147652022Y-85464998D01*
X147388440Y-85573908D01*
X147356292Y-85606000D01*
X147074588Y-85606000D01*
X146332771Y-84864183D01*
X146327594Y-84856436D01*
X146327643Y-84800614D01*
X146209601Y-84514931D01*
X145991219Y-84296167D01*
X145705742Y-84177626D01*
X145396632Y-84177357D01*
X145110949Y-84295399D01*
X145013112Y-84393066D01*
X142348757Y-81728711D01*
X142153454Y-81598214D01*
X141923079Y-81552389D01*
X141239015Y-81552389D01*
X141239134Y-81415502D01*
X141121092Y-81129819D01*
X140902710Y-80911055D01*
X140617233Y-80792514D01*
X140308123Y-80792245D01*
X140022440Y-80910287D01*
X139955231Y-80977379D01*
X137073735Y-80977379D01*
X136238000Y-80141644D01*
X136238000Y-79864043D01*
X136294324Y-79807817D01*
X136412865Y-79522340D01*
X136413134Y-79213230D01*
X136295092Y-78927547D01*
X136076710Y-78708783D01*
X135791233Y-78590242D01*
X135482123Y-78589973D01*
X135476000Y-78592503D01*
X135476000Y-76925752D01*
X135821947Y-76694597D01*
X136112553Y-76259675D01*
X136147653Y-76083213D01*
X136256655Y-76396831D01*
X136604760Y-76788009D01*
X137079791Y-77015673D01*
X137287000Y-76932129D01*
X137287000Y-75692000D01*
X137267000Y-75692000D01*
X137267000Y-75438000D01*
X137287000Y-75438000D01*
X137287000Y-75418000D01*
X137541000Y-75418000D01*
X137541000Y-75438000D01*
X137541000Y-75438000D01*
G37*
X137541000Y-75438000D02*
X137561000Y-75438000D01*
X137561000Y-75692000D01*
X137541000Y-75692000D01*
X137541000Y-76932129D01*
X137748209Y-77015673D01*
X138223240Y-76788009D01*
X138571345Y-76396831D01*
X138680347Y-76083213D01*
X138715447Y-76259675D01*
X139006053Y-76694597D01*
X139352000Y-76925752D01*
X139352000Y-76963000D01*
X139397825Y-77193375D01*
X139528322Y-77388678D01*
X139723625Y-77519175D01*
X139802510Y-77534866D01*
X147616393Y-85348750D01*
X147616367Y-85378706D01*
X147652022Y-85464998D01*
X147388440Y-85573908D01*
X147356292Y-85606000D01*
X147074588Y-85606000D01*
X146332771Y-84864183D01*
X146327594Y-84856436D01*
X146327643Y-84800614D01*
X146209601Y-84514931D01*
X145991219Y-84296167D01*
X145705742Y-84177626D01*
X145396632Y-84177357D01*
X145110949Y-84295399D01*
X145013112Y-84393066D01*
X142348757Y-81728711D01*
X142153454Y-81598214D01*
X141923079Y-81552389D01*
X141239015Y-81552389D01*
X141239134Y-81415502D01*
X141121092Y-81129819D01*
X140902710Y-80911055D01*
X140617233Y-80792514D01*
X140308123Y-80792245D01*
X140022440Y-80910287D01*
X139955231Y-80977379D01*
X137073735Y-80977379D01*
X136238000Y-80141644D01*
X136238000Y-79864043D01*
X136294324Y-79807817D01*
X136412865Y-79522340D01*
X136413134Y-79213230D01*
X136295092Y-78927547D01*
X136076710Y-78708783D01*
X135791233Y-78590242D01*
X135482123Y-78589973D01*
X135476000Y-78592503D01*
X135476000Y-76925752D01*
X135821947Y-76694597D01*
X136112553Y-76259675D01*
X136147653Y-76083213D01*
X136256655Y-76396831D01*
X136604760Y-76788009D01*
X137079791Y-77015673D01*
X137287000Y-76932129D01*
X137287000Y-75692000D01*
X137267000Y-75692000D01*
X137267000Y-75438000D01*
X137287000Y-75438000D01*
X137287000Y-75418000D01*
X137541000Y-75418000D01*
X137541000Y-75438000D01*
G36*
X142698492Y-84361000D02*
X139186743Y-84361000D01*
X139347284Y-84027211D01*
X139264332Y-83820000D01*
X138176000Y-83820000D01*
X138176000Y-83840000D01*
X137922000Y-83840000D01*
X137922000Y-83820000D01*
X137902000Y-83820000D01*
X137902000Y-83566000D01*
X137922000Y-83566000D01*
X137922000Y-83546000D01*
X138176000Y-83546000D01*
X138176000Y-83566000D01*
X139264332Y-83566000D01*
X139288203Y-83506372D01*
X139472877Y-83506533D01*
X139758560Y-83388491D01*
X139815752Y-83331399D01*
X141668891Y-83331399D01*
X142698492Y-84361000D01*
X142698492Y-84361000D01*
G37*
X142698492Y-84361000D02*
X139186743Y-84361000D01*
X139347284Y-84027211D01*
X139264332Y-83820000D01*
X138176000Y-83820000D01*
X138176000Y-83840000D01*
X137922000Y-83840000D01*
X137922000Y-83820000D01*
X137902000Y-83820000D01*
X137902000Y-83566000D01*
X137922000Y-83566000D01*
X137922000Y-83546000D01*
X138176000Y-83546000D01*
X138176000Y-83566000D01*
X139264332Y-83566000D01*
X139288203Y-83506372D01*
X139472877Y-83506533D01*
X139758560Y-83388491D01*
X139815752Y-83331399D01*
X141668891Y-83331399D01*
X142698492Y-84361000D01*
G36*
X137608746Y-123487784D02*
X137715450Y-123698000D01*
X138811000Y-123698000D01*
X138811000Y-123678000D01*
X139065000Y-123678000D01*
X139065000Y-123698000D01*
X139085000Y-123698000D01*
X139085000Y-123952000D01*
X139065000Y-123952000D01*
X139065000Y-123972000D01*
X138811000Y-123972000D01*
X138811000Y-123952000D01*
X137715450Y-123952000D01*
X137608746Y-124162216D01*
X137780655Y-124656831D01*
X137842208Y-124726000D01*
X137212039Y-124726000D01*
X137335242Y-124541613D01*
X137402000Y-124206000D01*
X137335242Y-123870387D01*
X137145133Y-123585867D01*
X136860613Y-123395758D01*
X136834909Y-123390645D01*
X136580254Y-123135990D01*
X137731016Y-123135990D01*
X137608746Y-123487784D01*
X137608746Y-123487784D01*
G37*
X137608746Y-123487784D02*
X137715450Y-123698000D01*
X138811000Y-123698000D01*
X138811000Y-123678000D01*
X139065000Y-123678000D01*
X139065000Y-123698000D01*
X139085000Y-123698000D01*
X139085000Y-123952000D01*
X139065000Y-123952000D01*
X139065000Y-123972000D01*
X138811000Y-123972000D01*
X138811000Y-123952000D01*
X137715450Y-123952000D01*
X137608746Y-124162216D01*
X137780655Y-124656831D01*
X137842208Y-124726000D01*
X137212039Y-124726000D01*
X137335242Y-124541613D01*
X137402000Y-124206000D01*
X137335242Y-123870387D01*
X137145133Y-123585867D01*
X136860613Y-123395758D01*
X136834909Y-123390645D01*
X136580254Y-123135990D01*
X137731016Y-123135990D01*
X137608746Y-123487784D01*
M02*
