G04 #@! TF.FileFunction,Paste,Top*
%FSLAX46Y46*%
G04 Gerber Fmt 4.6, Leading zero omitted, Abs format (unit mm)*
G04 Created by KiCad (PCBNEW 4.0.2-stable) date Fri 17 Jun 2016 03:11:16 PM EDT*
%MOMM*%
G01*
G04 APERTURE LIST*
%ADD10C,0.100000*%
%ADD11R,0.700000X0.250000*%
%ADD12R,0.250000X0.700000*%
%ADD13R,1.035000X1.035000*%
%ADD14R,0.750000X0.800000*%
%ADD15R,0.500000X0.900000*%
%ADD16O,0.750000X0.300000*%
%ADD17O,0.300000X0.750000*%
%ADD18R,0.540000X0.540000*%
%ADD19R,1.400000X1.200000*%
%ADD20R,0.797560X0.797560*%
%ADD21R,4.100000X0.700000*%
%ADD22R,4.100000X1.000000*%
%ADD23R,0.900000X0.500000*%
%ADD24R,0.800000X0.750000*%
%ADD25R,1.600200X2.999740*%
%ADD26R,1.600000X1.400000*%
%ADD27R,1.600000X3.500000*%
%ADD28R,0.700000X1.300000*%
%ADD29R,1.350000X0.400000*%
%ADD30R,1.500000X1.550000*%
%ADD31R,0.800100X0.800100*%
%ADD32R,1.550000X1.300000*%
%ADD33R,0.508000X1.143000*%
%ADD34R,1.700000X0.650000*%
%ADD35R,1.450000X0.450000*%
%ADD36R,3.657600X2.032000*%
%ADD37R,1.016000X2.032000*%
%ADD38R,0.650000X1.060000*%
%ADD39R,0.398780X0.749300*%
G04 APERTURE END LIST*
D10*
D11*
X154276000Y-89760000D03*
X154276000Y-89260000D03*
X154276000Y-88760000D03*
X154276000Y-88260000D03*
X154276000Y-87760000D03*
X154276000Y-87260000D03*
X154276000Y-86760000D03*
X154276000Y-86260000D03*
D12*
X153626000Y-85610000D03*
X153126000Y-85610000D03*
X152626000Y-85610000D03*
X152126000Y-85610000D03*
X151626000Y-85610000D03*
X151126000Y-85610000D03*
X150626000Y-85610000D03*
X150126000Y-85610000D03*
D11*
X149476000Y-86260000D03*
X149476000Y-86760000D03*
X149476000Y-87260000D03*
X149476000Y-87760000D03*
X149476000Y-88260000D03*
X149476000Y-88760000D03*
X149476000Y-89260000D03*
X149476000Y-89760000D03*
D12*
X150126000Y-90410000D03*
X150626000Y-90410000D03*
X151126000Y-90410000D03*
X151626000Y-90410000D03*
X152126000Y-90410000D03*
X152626000Y-90410000D03*
X153126000Y-90410000D03*
X153626000Y-90410000D03*
D13*
X151013500Y-87147500D03*
X151013500Y-88872500D03*
X152738500Y-87147500D03*
X152738500Y-88872500D03*
D14*
X147447000Y-86753000D03*
X147447000Y-88253000D03*
D15*
X139448000Y-108565000D03*
X140948000Y-108565000D03*
D16*
X157798000Y-97565000D03*
X157798000Y-97065000D03*
X157798000Y-96565000D03*
X157798000Y-96065000D03*
D17*
X157073000Y-95340000D03*
X156573000Y-95340000D03*
X156073000Y-95340000D03*
X155573000Y-95340000D03*
D16*
X154848000Y-96065000D03*
X154848000Y-96565000D03*
X154848000Y-97065000D03*
X154848000Y-97565000D03*
D17*
X155573000Y-98290000D03*
X156073000Y-98290000D03*
X156573000Y-98290000D03*
X157073000Y-98290000D03*
D18*
X155873000Y-96365000D03*
X155873000Y-97265000D03*
X156773000Y-96365000D03*
X156773000Y-97265000D03*
D19*
X124208000Y-89578000D03*
X124208000Y-91278000D03*
X126408000Y-89578000D03*
X126408000Y-91278000D03*
D20*
X135160000Y-91239000D03*
X133661400Y-91239000D03*
D16*
X155123000Y-110815000D03*
X155123000Y-111315000D03*
X155123000Y-111815000D03*
X155123000Y-112315000D03*
D17*
X155848000Y-113040000D03*
X156348000Y-113040000D03*
X156848000Y-113040000D03*
X157348000Y-113040000D03*
D16*
X158073000Y-112315000D03*
X158073000Y-111815000D03*
X158073000Y-111315000D03*
X158073000Y-110815000D03*
D17*
X157348000Y-110090000D03*
X156848000Y-110090000D03*
X156348000Y-110090000D03*
X155848000Y-110090000D03*
D18*
X157048000Y-112015000D03*
X157048000Y-111115000D03*
X156148000Y-112015000D03*
X156148000Y-111115000D03*
D15*
X120548000Y-86665000D03*
X119048000Y-86665000D03*
D21*
X158498000Y-88015000D03*
X158498000Y-85015000D03*
D22*
X158498000Y-86515000D03*
D23*
X162198000Y-87215000D03*
X162198000Y-85715000D03*
D24*
X125210000Y-101727000D03*
X123710000Y-101727000D03*
D14*
X122386000Y-91061000D03*
X122386000Y-89561000D03*
X118998000Y-107865000D03*
X118998000Y-106365000D03*
D24*
X120765000Y-83185000D03*
X119265000Y-83185000D03*
D14*
X128136000Y-89561000D03*
X128136000Y-91061000D03*
D25*
X131998000Y-111165360D03*
X131998000Y-115564640D03*
D24*
X133498000Y-99365000D03*
X134998000Y-99365000D03*
X139458000Y-79502000D03*
X140958000Y-79502000D03*
X127774000Y-79248000D03*
X129274000Y-79248000D03*
D25*
X131998000Y-119465720D03*
X131998000Y-123865000D03*
X131998000Y-102870000D03*
X131998000Y-107269280D03*
D24*
X150298000Y-115846000D03*
X148798000Y-115846000D03*
X150498000Y-97115000D03*
X151998000Y-97115000D03*
D26*
X125998000Y-115848000D03*
X125998000Y-118848000D03*
D20*
X116487000Y-102254000D03*
X114988400Y-102254000D03*
X135109300Y-93139000D03*
X133610700Y-93139000D03*
D27*
X115417600Y-94107000D03*
X120294400Y-94107000D03*
D28*
X113157000Y-99314000D03*
X115057000Y-99314000D03*
D29*
X114974500Y-85441000D03*
X114974500Y-86091000D03*
X114974500Y-86740100D03*
X114974500Y-87391000D03*
X114974500Y-88041000D03*
D30*
X112268000Y-85741000D03*
X112268000Y-87741000D03*
D31*
X114998760Y-111815000D03*
X114998760Y-109915000D03*
X112999780Y-110865000D03*
D23*
X118998000Y-111615000D03*
X118998000Y-113115000D03*
D15*
X119048000Y-85015000D03*
X120548000Y-85015000D03*
X122047000Y-81026000D03*
X123547000Y-81026000D03*
X162663000Y-78486000D03*
X161163000Y-78486000D03*
X165112000Y-78486000D03*
X166612000Y-78486000D03*
D23*
X130810000Y-90055000D03*
X130810000Y-91555000D03*
D15*
X150348000Y-95365000D03*
X151848000Y-95365000D03*
X118302000Y-102254000D03*
X119802000Y-102254000D03*
X138410000Y-93139000D03*
X136910000Y-93139000D03*
X138410000Y-91239000D03*
X136910000Y-91239000D03*
X150507000Y-98933000D03*
X152007000Y-98933000D03*
X150148000Y-117765000D03*
X148648000Y-117765000D03*
X148648000Y-119865000D03*
X150148000Y-119865000D03*
D23*
X164592000Y-85737000D03*
X164592000Y-87237000D03*
D32*
X120473000Y-74615000D03*
X120473000Y-79115000D03*
X112523000Y-79115000D03*
X112523000Y-74615000D03*
D33*
X139893000Y-98390000D03*
X141163000Y-98390000D03*
X142433000Y-98390000D03*
X143703000Y-98390000D03*
X143703000Y-104740000D03*
X142433000Y-104740000D03*
X141163000Y-104740000D03*
X139893000Y-104740000D03*
D34*
X149948000Y-103060000D03*
X149948000Y-104330000D03*
X149948000Y-105600000D03*
X149948000Y-106870000D03*
X157248000Y-106870000D03*
X157248000Y-105600000D03*
X157248000Y-104330000D03*
X157248000Y-103060000D03*
D35*
X145998000Y-92565000D03*
X145998000Y-91915000D03*
X145998000Y-91265000D03*
X145998000Y-90615000D03*
X141598000Y-90615000D03*
X141598000Y-91265000D03*
X141598000Y-91915000D03*
X141598000Y-92565000D03*
D34*
X152998000Y-116025000D03*
X152998000Y-117295000D03*
X152998000Y-118565000D03*
X152998000Y-119835000D03*
X160298000Y-119835000D03*
X160298000Y-118565000D03*
X160298000Y-117295000D03*
X160298000Y-116025000D03*
D23*
X117748000Y-88765000D03*
X117748000Y-90265000D03*
X119898000Y-88765000D03*
X119898000Y-90265000D03*
D36*
X123998000Y-105063000D03*
D37*
X123998000Y-111667000D03*
X126284000Y-111667000D03*
X121712000Y-111667000D03*
D38*
X131498000Y-97165000D03*
X130548000Y-97165000D03*
X129598000Y-97165000D03*
X129598000Y-99365000D03*
X131498000Y-99365000D03*
D39*
X143097520Y-109965000D03*
X143747760Y-109965000D03*
X144398000Y-109965000D03*
X144398000Y-108065080D03*
X143747760Y-108065080D03*
X143097520Y-108065080D03*
D12*
X124890500Y-87657500D03*
X125390500Y-87657500D03*
X125890500Y-87657500D03*
X126390500Y-87657500D03*
X126890500Y-87657500D03*
X127390500Y-87657500D03*
X127890500Y-87657500D03*
X128390500Y-87657500D03*
D11*
X129040500Y-87007500D03*
X129040500Y-86507500D03*
X129040500Y-86007500D03*
X129040500Y-85507500D03*
X129040500Y-85007500D03*
X129040500Y-84507500D03*
X129040500Y-84007500D03*
X129040500Y-83507500D03*
D12*
X128390500Y-82857500D03*
X127890500Y-82857500D03*
X127390500Y-82857500D03*
X126890500Y-82857500D03*
X126390500Y-82857500D03*
X125890500Y-82857500D03*
X125390500Y-82857500D03*
X124890500Y-82857500D03*
D11*
X124240500Y-83507500D03*
X124240500Y-84007500D03*
X124240500Y-84507500D03*
X124240500Y-85007500D03*
X124240500Y-85507500D03*
X124240500Y-86007500D03*
X124240500Y-86507500D03*
X124240500Y-87007500D03*
D13*
X127503000Y-84395000D03*
X125778000Y-84395000D03*
X127503000Y-86120000D03*
X125778000Y-86120000D03*
M02*
