G04 #@! TF.FileFunction,Soldermask,Bot*
%FSLAX46Y46*%
G04 Gerber Fmt 4.6, Leading zero omitted, Abs format (unit mm)*
G04 Created by KiCad (PCBNEW 4.0.2-stable) date Fri 17 Jun 2016 01:05:30 PM EDT*
%MOMM*%
G01*
G04 APERTURE LIST*
%ADD10C,0.100000*%
%ADD11C,4.064000*%
%ADD12C,0.600000*%
%ADD13R,1.727200X1.727200*%
%ADD14O,1.727200X1.727200*%
%ADD15R,1.727200X2.032000*%
%ADD16O,1.727200X2.032000*%
%ADD17R,3.500120X3.500120*%
%ADD18O,1.600000X1.000000*%
%ADD19O,1.100000X1.500000*%
G04 APERTURE END LIST*
D10*
D11*
X177038000Y-118745000D03*
D12*
X125890500Y-86232500D03*
X127762000Y-86233000D03*
X127762000Y-84395000D03*
X125778000Y-84395000D03*
D13*
X161918000Y-98165000D03*
D14*
X161918000Y-95625000D03*
X164458000Y-98165000D03*
X164458000Y-95625000D03*
X166998000Y-98165000D03*
X166998000Y-95625000D03*
D15*
X161798000Y-123825000D03*
D16*
X164338000Y-123825000D03*
X166878000Y-123825000D03*
X169418000Y-123825000D03*
X171958000Y-123825000D03*
X174498000Y-123825000D03*
D13*
X169498000Y-80825000D03*
D14*
X172038000Y-80825000D03*
X169498000Y-83365000D03*
X172038000Y-83365000D03*
X169498000Y-85905000D03*
X172038000Y-85905000D03*
D13*
X161718000Y-110565000D03*
D14*
X161718000Y-108025000D03*
X164258000Y-110565000D03*
X164258000Y-108025000D03*
X166798000Y-110565000D03*
X166798000Y-108025000D03*
D13*
X132969000Y-86233000D03*
D14*
X132969000Y-83693000D03*
X135509000Y-86233000D03*
X135509000Y-83693000D03*
X138049000Y-86233000D03*
X138049000Y-83693000D03*
D11*
X177038000Y-90805000D03*
D16*
X138938000Y-123825000D03*
X141478000Y-123825000D03*
X144018000Y-123825000D03*
X146558000Y-123825000D03*
X149098000Y-123825000D03*
X151638000Y-123825000D03*
X154178000Y-123825000D03*
X156718000Y-123825000D03*
X174498000Y-75565000D03*
X171958000Y-75565000D03*
X169418000Y-75565000D03*
X166878000Y-75565000D03*
X164338000Y-75565000D03*
X161798000Y-75565000D03*
X159258000Y-75565000D03*
X156718000Y-75565000D03*
D17*
X119537480Y-118745000D03*
X113538000Y-118745000D03*
X116537740Y-123444000D03*
D18*
X112268000Y-90241000D03*
D19*
X114968000Y-84241000D03*
X114968000Y-89241000D03*
D18*
X112268000Y-83241000D03*
D16*
X152654000Y-75565000D03*
X150114000Y-75565000D03*
X147574000Y-75565000D03*
X145034000Y-75565000D03*
X142494000Y-75565000D03*
X139954000Y-75565000D03*
X137414000Y-75565000D03*
X134874000Y-75565000D03*
X132334000Y-75565000D03*
X129794000Y-75565000D03*
D13*
X173228000Y-105410000D03*
D14*
X175768000Y-105410000D03*
X173228000Y-107950000D03*
X175768000Y-107950000D03*
X173228000Y-110490000D03*
X175768000Y-110490000D03*
D13*
X173228000Y-95885000D03*
D14*
X175768000Y-95885000D03*
X173228000Y-98425000D03*
X175768000Y-98425000D03*
X173228000Y-100965000D03*
X175768000Y-100965000D03*
D11*
X126238000Y-75565000D03*
X124968000Y-123825000D03*
M02*
