M48
;DRILL file {KiCad 4.0.2-stable} date Fri 17 Jun 2016 03:11:11 PM EDT
;FORMAT={2:4/ absolute / inch / suppress trailing zeros}
FMAT,2
INCH,LZ
T1C0.012
T2C0.016
T3C0.022
T4C0.024
T5C0.026
T6C0.039
T7C0.040
T8C0.120
%
G90
G05
M72
T1
X0441Y-04455
X04445Y-04
X04445Y-04125
X04445Y-048
X04445Y-04925
X0453Y-02955
X0453Y-03075
X0453Y-03195
X04545Y-04275
X0461Y-0385
X0462Y-042
X0463Y-0332
X04645Y-03625
X0465Y-02955
X0465Y-03075
X0465Y-03195
X0469Y-04115
X04745Y-048
X04745Y-04925
X0475Y-04555
X04795Y-039
X0481Y-04215
X0481Y-04255
X0485Y-04215
X0485Y-04255
X0487Y-03235
X0487Y-0369
X0487Y-03775
X0487Y-04555
X0489Y-04215
X0489Y-04255
X0489Y-04295
X0492Y-0395
X0493Y-04215
X0493Y-04255
X0493Y-04295
X049519Y-033226
X049563Y-03395
X0497Y-04215
X0497Y-04255
X0497Y-04295
X0503Y-033226
X0503Y-03395
X05045Y-03725
X05045Y-039
X0509Y-03555
X05095Y-04025
X05095Y-0425
X05095Y-0455
X05095Y-04775
X05095Y-04925
X0517Y-03725
X0537Y-04725
X0545Y-04535
X0545Y-04635
X05455Y-03075
X0547Y-04355
X0549Y-03315
X0552Y-04
X05545Y-04355
X0555Y-04435
X0555Y-04535
X0559Y-03315
X0563Y-03215
X05645Y-04
X0565Y-04395
X0565Y-04535
X0565Y-04635
X0575Y-048
X05785Y-03975
X05785Y-04105
X05795Y-04275
X0582Y-04425
X0597Y-04275
X0599Y-03155
X05995Y-041
X0609Y-02915
X0611Y-03075
X0617Y-04675
X0625Y-04875
X0629Y-04935
X0633Y-03525
X0643Y-03375
X0643Y-04095
X0657Y-03375
X0657Y-03535
X0663Y-04095
X0663Y-04555
X0663Y-04695
X0665Y-04315
X0667Y-03755
X0667Y-03875
X0673Y-03095
X0679Y-03515
X0681Y-04555
X0681Y-04695
X0687Y-04095
X0691Y-03095
X0703Y-03835
X0703Y-04115
X0703Y-04375
T2
X044857Y-0346
X0455Y-04155
X045815Y-033801
X04635Y-0346
X04645Y-03955
X047804Y-033624
X04785Y-0332
X047918Y-043432
X04805Y-03235
X04815Y-0432
X04815Y-0432
X048161Y-033963
X0482Y-0348
X0486Y-03435
X049323Y-035569
X04975Y-0348
X04975Y-038254
X0502Y-038254
X051123Y-033836
X05115Y-0326
X05115Y-03332
X05115Y-03415
X0512Y-03145
X051249Y-034513
X051254Y-034828
X051318Y-043766
X051776Y-034924
X0518Y-03205
X052037Y-035163
X0523Y-03635
X0526Y-0354
X05265Y-037818
X052739Y-034865
X05285Y-03515
X05285Y-03945
X05285Y-0465
X053Y-04945
X053133Y-031517
X0532Y-04275
X053245Y-032052
X0534Y-031247
X0534Y-0481
X053566Y-038216
X0536Y-03345
X05375Y-0489
X05385Y-0354
X05385Y-0378
X0541Y-0393
X05445Y-0396
X0545Y-0354
X0545Y-04275
X05455Y-0476
X054684Y-047332
X05485Y-032571
X05485Y-04485
X0549Y-035377
X055036Y-03415
X05505Y-04175
X055113Y-0367
X0553Y-032114
X0553Y-03757
X0556Y-041996
X0557Y-035377
X05595Y-03455
X0561Y-0393
X05627Y-037339
X0563Y-03575
X0564Y-03345
X0565Y-03415
X05655Y-0391
X0566Y-035095
X05665Y-0354
X05685Y-042226
X056898Y-034841
X0569Y-037092
X057Y-0362
X0571Y-04325
X0571Y-0438
X057303Y-033447
X05735Y-03815
X0575Y-03475
X0575Y-03675
X0576Y-03757
X058Y-03635
X058Y-037092
X058Y-0378
X0582Y-03395
X0582Y-0451
X058204Y-04152
X058391Y-037893
X058423Y-033553
X05845Y-034157
X05845Y-0345
X05845Y-0355
X058451Y-0376
X058461Y-036599
X058496Y-046765
X058711Y-035884
X058818Y-046364
X05885Y-04375
X05885Y-04535
X0589Y-033705
X058976Y-037874
X058976Y-0382
X059Y-0386
X059067Y-033367
X059156Y-036106
X059172Y-043278
X059274Y-037906
X0593Y-04605
X059448Y-047152
X0595Y-0372
X059527Y-045577
X059566Y-038926
X0596Y-033
X059606Y-046433
X05965Y-04152
X05967Y-03605
X059845Y-0397
X05985Y-037904
X059899Y-032999
X059921Y-036229
X06005Y-04385
X06005Y-0451
X06007Y-03745
X060174Y-036044
X0602Y-03835
X0602Y-03945
X060282Y-032992
X0603Y-04535
X060389Y-04198
X0604Y-04465
X060438Y-038169
X060511Y-037727
X060542Y-043872
X060579Y-033029
X060619Y-04175
X060699Y-046156
X0607Y-0359
X060721Y-042913
X060743Y-042085
X06075Y-0356
X060846Y-038959
X06085Y-0401
X06085Y-0445
X0609Y-032992
X0609Y-03755
X060944Y-043136
X060956Y-038681
X061Y-0363
X061071Y-034518
X0611Y-0335
X06115Y-0372
X06115Y-0405
X061212Y-035161
X06125Y-03945
X061387Y-032994
X0614Y-0414
X06145Y-0339
X06145Y-03705
X06145Y-04485
X061513Y-040087
X06155Y-03535
X061695Y-032995
X06175Y-042577
X06175Y-045076
X061772Y-039198
X0619Y-03575
X0619Y-0369
X0621Y-03895
X0621Y-03995
X06215Y-037446
X0622Y-0451
X062283Y-044533
X0624Y-043362
X06245Y-039224
X062478Y-041914
X0626Y-0444
X06265Y-0429
X062746Y-03815
X06275Y-03865
X0628Y-043845
X06285Y-03735
X06285Y-04045
X062852Y-041598
X06294Y-03905
X0631Y-04345
X0632Y-0377
X063226Y-03865
X0633Y-03135
X063302Y-042052
X06345Y-03995
X0636Y-04565
X063747Y-041247
X06375Y-0363
X06375Y-047146
X0639Y-04415
X064001Y-038103
X06415Y-0462
X0643Y-039062
X0644Y-0315
X0644Y-03575
X0644Y-0446
X06453Y-03308
X064931Y-033269
X0651Y-047146
X0652Y-036846
X06525Y-03435
X06545Y-04525
X0658Y-0397
X066249Y-038101
X06625Y-03975
X066626Y-03435
X066626Y-036
X06715Y-036615
X067674Y-037076
X06865Y-04485
X06985Y-0403
T7
X0511Y-02975
X0521Y-02975
X05235Y-03295
X05235Y-03395
X0531Y-02975
X05335Y-03295
X05335Y-03395
X0541Y-02975
X05435Y-03295
X05435Y-03395
X0547Y-04875
X0551Y-02975
X0557Y-04875
X0561Y-02975
X0567Y-04875
X0571Y-02975
X0577Y-04875
X0581Y-02975
X0587Y-04875
X0591Y-02975
X0597Y-04875
X0601Y-02975
X0607Y-04875
X0617Y-02975
X0617Y-04875
X0627Y-02975
X063669Y-04253
X063669Y-04353
X0637Y-02975
X0637Y-04875
X063747Y-037648
X063747Y-038648
X064669Y-04253
X064669Y-04353
X0647Y-02975
X0647Y-04875
X064747Y-037648
X064747Y-038648
X065669Y-04253
X065669Y-04353
X0657Y-02975
X0657Y-04875
X065747Y-037648
X065747Y-038648
X0667Y-02975
X0667Y-04875
X066731Y-031821
X066731Y-032821
X066731Y-033821
X0677Y-02975
X0677Y-04875
X067731Y-031821
X067731Y-032821
X067731Y-033821
X0682Y-03775
X0682Y-03875
X0682Y-03975
X0682Y-0415
X0682Y-0425
X0682Y-0435
X0687Y-02975
X0687Y-04875
X0692Y-03775
X0692Y-03875
X0692Y-03975
X0692Y-0415
X0692Y-0425
X0692Y-0435
T8
X0492Y-04875
X0497Y-02975
X0697Y-03575
X0697Y-04675
T3
X044074Y-032772G85X044326Y-032772
G05
X044074Y-035528G85X044326Y-035528
G05
T4
X045263Y-033254G85X045263Y-033077
G05
T5
X045263Y-035213G85X045263Y-035056
G05
T6
X0447Y-046357G85X0447Y-047143
G05
X045488Y-0486G85X046275Y-0486
G05
X047062Y-046357G85X047062Y-047143
G05
T0
M30
