G04 #@! TF.FileFunction,Legend,Bot*
%FSLAX46Y46*%
G04 Gerber Fmt 4.6, Leading zero omitted, Abs format (unit mm)*
G04 Created by KiCad (PCBNEW 4.0.2-stable) date Fri 17 Jun 2016 03:11:16 PM EDT*
%MOMM*%
G01*
G04 APERTURE LIST*
%ADD10C,0.100000*%
%ADD11C,0.150000*%
%ADD12C,0.200000*%
%ADD13C,0.300000*%
%ADD14C,4.064000*%
%ADD15C,0.600000*%
%ADD16R,1.727200X1.727200*%
%ADD17O,1.727200X1.727200*%
%ADD18R,1.727200X2.032000*%
%ADD19O,1.727200X2.032000*%
%ADD20R,3.500120X3.500120*%
%ADD21O,1.600000X1.000000*%
%ADD22O,1.100000X1.500000*%
G04 APERTURE END LIST*
D10*
D11*
X122682000Y-105156000D02*
X122682000Y-104902000D01*
X127508000Y-105156000D02*
X122682000Y-105156000D01*
X122682000Y-102489000D02*
X122682000Y-105029000D01*
X137668000Y-102489000D02*
X122682000Y-102489000D01*
X137668000Y-105156000D02*
X137668000Y-102489000D01*
X127508000Y-105156000D02*
X127635000Y-105156000D01*
X127508000Y-106426000D02*
X127508000Y-105156000D01*
X137668000Y-106426000D02*
X127508000Y-106426000D01*
X137668000Y-105156000D02*
X137668000Y-106426000D01*
X127635000Y-105156000D02*
X137668000Y-105156000D01*
D12*
X137311811Y-105619571D02*
X137007049Y-105619571D01*
X137197525Y-105352905D02*
X137197525Y-106038619D01*
X137159430Y-106114810D01*
X137083239Y-106152905D01*
X137007049Y-106152905D01*
X136740382Y-106152905D02*
X136740382Y-105352905D01*
X136397525Y-106152905D02*
X136397525Y-105733857D01*
X136435620Y-105657667D01*
X136511810Y-105619571D01*
X136626096Y-105619571D01*
X136702287Y-105657667D01*
X136740382Y-105695762D01*
X136016572Y-106152905D02*
X136016572Y-105619571D01*
X136016572Y-105352905D02*
X136054667Y-105391000D01*
X136016572Y-105429095D01*
X135978477Y-105391000D01*
X136016572Y-105352905D01*
X136016572Y-105429095D01*
X135635620Y-106152905D02*
X135635620Y-105619571D01*
X135635620Y-105695762D02*
X135597525Y-105657667D01*
X135521334Y-105619571D01*
X135407048Y-105619571D01*
X135330858Y-105657667D01*
X135292763Y-105733857D01*
X135292763Y-106152905D01*
X135292763Y-105733857D02*
X135254667Y-105657667D01*
X135178477Y-105619571D01*
X135064191Y-105619571D01*
X134988001Y-105657667D01*
X134949906Y-105733857D01*
X134949906Y-106152905D01*
X134568953Y-106152905D02*
X134568953Y-105352905D01*
X134568953Y-105657667D02*
X134492762Y-105619571D01*
X134340381Y-105619571D01*
X134264191Y-105657667D01*
X134226096Y-105695762D01*
X134188000Y-105771952D01*
X134188000Y-106000524D01*
X134226096Y-106076714D01*
X134264191Y-106114810D01*
X134340381Y-106152905D01*
X134492762Y-106152905D01*
X134568953Y-106114810D01*
X133730857Y-106152905D02*
X133807048Y-106114810D01*
X133845143Y-106038619D01*
X133845143Y-105352905D01*
X133121333Y-106114810D02*
X133197523Y-106152905D01*
X133349904Y-106152905D01*
X133426095Y-106114810D01*
X133464190Y-106038619D01*
X133464190Y-105733857D01*
X133426095Y-105657667D01*
X133349904Y-105619571D01*
X133197523Y-105619571D01*
X133121333Y-105657667D01*
X133083238Y-105733857D01*
X133083238Y-105810048D01*
X133464190Y-105886238D01*
X132740381Y-106076714D02*
X132702286Y-106114810D01*
X132740381Y-106152905D01*
X132778476Y-106114810D01*
X132740381Y-106076714D01*
X132740381Y-106152905D01*
X132359429Y-106152905D02*
X132359429Y-105619571D01*
X132359429Y-105352905D02*
X132397524Y-105391000D01*
X132359429Y-105429095D01*
X132321334Y-105391000D01*
X132359429Y-105352905D01*
X132359429Y-105429095D01*
X131864191Y-106152905D02*
X131940382Y-106114810D01*
X131978477Y-106076714D01*
X132016572Y-106000524D01*
X132016572Y-105771952D01*
X131978477Y-105695762D01*
X131940382Y-105657667D01*
X131864191Y-105619571D01*
X131749905Y-105619571D01*
X131673715Y-105657667D01*
X131635620Y-105695762D01*
X131597524Y-105771952D01*
X131597524Y-106000524D01*
X131635620Y-106076714D01*
X131673715Y-106114810D01*
X131749905Y-106152905D01*
X131864191Y-106152905D01*
X130683238Y-105429095D02*
X130645143Y-105391000D01*
X130568952Y-105352905D01*
X130378476Y-105352905D01*
X130302286Y-105391000D01*
X130264190Y-105429095D01*
X130226095Y-105505286D01*
X130226095Y-105581476D01*
X130264190Y-105695762D01*
X130721333Y-106152905D01*
X130226095Y-106152905D01*
X129730857Y-105352905D02*
X129654666Y-105352905D01*
X129578476Y-105391000D01*
X129540381Y-105429095D01*
X129502285Y-105505286D01*
X129464190Y-105657667D01*
X129464190Y-105848143D01*
X129502285Y-106000524D01*
X129540381Y-106076714D01*
X129578476Y-106114810D01*
X129654666Y-106152905D01*
X129730857Y-106152905D01*
X129807047Y-106114810D01*
X129845143Y-106076714D01*
X129883238Y-106000524D01*
X129921333Y-105848143D01*
X129921333Y-105657667D01*
X129883238Y-105505286D01*
X129845143Y-105429095D01*
X129807047Y-105391000D01*
X129730857Y-105352905D01*
X128702285Y-106152905D02*
X129159428Y-106152905D01*
X128930857Y-106152905D02*
X128930857Y-105352905D01*
X129007047Y-105467190D01*
X129083238Y-105543381D01*
X129159428Y-105581476D01*
X128016571Y-105352905D02*
X128168952Y-105352905D01*
X128245142Y-105391000D01*
X128283237Y-105429095D01*
X128359428Y-105543381D01*
X128397523Y-105695762D01*
X128397523Y-106000524D01*
X128359428Y-106076714D01*
X128321333Y-106114810D01*
X128245142Y-106152905D01*
X128092761Y-106152905D01*
X128016571Y-106114810D01*
X127978475Y-106076714D01*
X127940380Y-106000524D01*
X127940380Y-105810048D01*
X127978475Y-105733857D01*
X128016571Y-105695762D01*
X128092761Y-105657667D01*
X128245142Y-105657667D01*
X128321333Y-105695762D01*
X128359428Y-105733857D01*
X128397523Y-105810048D01*
D13*
X137266286Y-104323571D02*
X137266286Y-102823571D01*
X136694858Y-102823571D01*
X136552000Y-102895000D01*
X136480572Y-102966429D01*
X136409143Y-103109286D01*
X136409143Y-103323571D01*
X136480572Y-103466429D01*
X136552000Y-103537857D01*
X136694858Y-103609286D01*
X137266286Y-103609286D01*
X135123429Y-104323571D02*
X135123429Y-103537857D01*
X135194858Y-103395000D01*
X135337715Y-103323571D01*
X135623429Y-103323571D01*
X135766286Y-103395000D01*
X135123429Y-104252143D02*
X135266286Y-104323571D01*
X135623429Y-104323571D01*
X135766286Y-104252143D01*
X135837715Y-104109286D01*
X135837715Y-103966429D01*
X135766286Y-103823571D01*
X135623429Y-103752143D01*
X135266286Y-103752143D01*
X135123429Y-103680714D01*
X133766286Y-103323571D02*
X133766286Y-104323571D01*
X134409143Y-103323571D02*
X134409143Y-104109286D01*
X134337715Y-104252143D01*
X134194857Y-104323571D01*
X133980572Y-104323571D01*
X133837715Y-104252143D01*
X133766286Y-104180714D01*
X132837714Y-104323571D02*
X132980572Y-104252143D01*
X133052000Y-104109286D01*
X133052000Y-102823571D01*
X131123429Y-102823571D02*
X131123429Y-104037857D01*
X131052001Y-104180714D01*
X130980572Y-104252143D01*
X130837715Y-104323571D01*
X130552001Y-104323571D01*
X130409143Y-104252143D01*
X130337715Y-104180714D01*
X130266286Y-104037857D01*
X130266286Y-102823571D01*
X128909143Y-103323571D02*
X128909143Y-104537857D01*
X128980572Y-104680714D01*
X129052000Y-104752143D01*
X129194857Y-104823571D01*
X129409143Y-104823571D01*
X129552000Y-104752143D01*
X128909143Y-104252143D02*
X129052000Y-104323571D01*
X129337714Y-104323571D01*
X129480572Y-104252143D01*
X129552000Y-104180714D01*
X129623429Y-104037857D01*
X129623429Y-103609286D01*
X129552000Y-103466429D01*
X129480572Y-103395000D01*
X129337714Y-103323571D01*
X129052000Y-103323571D01*
X128909143Y-103395000D01*
X127980571Y-104323571D02*
X128123429Y-104252143D01*
X128194857Y-104180714D01*
X128266286Y-104037857D01*
X128266286Y-103609286D01*
X128194857Y-103466429D01*
X128123429Y-103395000D01*
X127980571Y-103323571D01*
X127766286Y-103323571D01*
X127623429Y-103395000D01*
X127552000Y-103466429D01*
X127480571Y-103609286D01*
X127480571Y-104037857D01*
X127552000Y-104180714D01*
X127623429Y-104252143D01*
X127766286Y-104323571D01*
X127980571Y-104323571D01*
X126623428Y-104323571D02*
X126766286Y-104252143D01*
X126837714Y-104109286D01*
X126837714Y-102823571D01*
X126052000Y-104323571D02*
X126052000Y-103323571D01*
X126052000Y-102823571D02*
X126123429Y-102895000D01*
X126052000Y-102966429D01*
X125980572Y-102895000D01*
X126052000Y-102823571D01*
X126052000Y-102966429D01*
X125337714Y-103323571D02*
X125337714Y-104323571D01*
X125337714Y-103466429D02*
X125266286Y-103395000D01*
X125123428Y-103323571D01*
X124909143Y-103323571D01*
X124766286Y-103395000D01*
X124694857Y-103537857D01*
X124694857Y-104323571D01*
X123766285Y-104323571D02*
X123909143Y-104252143D01*
X123980571Y-104180714D01*
X124052000Y-104037857D01*
X124052000Y-103609286D01*
X123980571Y-103466429D01*
X123909143Y-103395000D01*
X123766285Y-103323571D01*
X123552000Y-103323571D01*
X123409143Y-103395000D01*
X123337714Y-103466429D01*
X123266285Y-103609286D01*
X123266285Y-104037857D01*
X123337714Y-104180714D01*
X123409143Y-104252143D01*
X123552000Y-104323571D01*
X123766285Y-104323571D01*
%LPC*%
D14*
X177038000Y-118745000D03*
D15*
X125890500Y-86232500D03*
X127762000Y-86233000D03*
X127762000Y-84395000D03*
X125778000Y-84395000D03*
D16*
X161918000Y-98165000D03*
D17*
X161918000Y-95625000D03*
X164458000Y-98165000D03*
X164458000Y-95625000D03*
X166998000Y-98165000D03*
X166998000Y-95625000D03*
D18*
X161798000Y-123825000D03*
D19*
X164338000Y-123825000D03*
X166878000Y-123825000D03*
X169418000Y-123825000D03*
X171958000Y-123825000D03*
X174498000Y-123825000D03*
D16*
X169498000Y-80825000D03*
D17*
X172038000Y-80825000D03*
X169498000Y-83365000D03*
X172038000Y-83365000D03*
X169498000Y-85905000D03*
X172038000Y-85905000D03*
D16*
X161718000Y-110565000D03*
D17*
X161718000Y-108025000D03*
X164258000Y-110565000D03*
X164258000Y-108025000D03*
X166798000Y-110565000D03*
X166798000Y-108025000D03*
D16*
X132969000Y-86233000D03*
D17*
X132969000Y-83693000D03*
X135509000Y-86233000D03*
X135509000Y-83693000D03*
X138049000Y-86233000D03*
X138049000Y-83693000D03*
D14*
X177038000Y-90805000D03*
D19*
X138938000Y-123825000D03*
X141478000Y-123825000D03*
X144018000Y-123825000D03*
X146558000Y-123825000D03*
X149098000Y-123825000D03*
X151638000Y-123825000D03*
X154178000Y-123825000D03*
X156718000Y-123825000D03*
X174498000Y-75565000D03*
X171958000Y-75565000D03*
X169418000Y-75565000D03*
X166878000Y-75565000D03*
X164338000Y-75565000D03*
X161798000Y-75565000D03*
X159258000Y-75565000D03*
X156718000Y-75565000D03*
D20*
X119537480Y-118745000D03*
X113538000Y-118745000D03*
X116537740Y-123444000D03*
D21*
X112268000Y-90241000D03*
D22*
X114968000Y-84241000D03*
X114968000Y-89241000D03*
D21*
X112268000Y-83241000D03*
D19*
X152654000Y-75565000D03*
X150114000Y-75565000D03*
X147574000Y-75565000D03*
X145034000Y-75565000D03*
X142494000Y-75565000D03*
X139954000Y-75565000D03*
X137414000Y-75565000D03*
X134874000Y-75565000D03*
X132334000Y-75565000D03*
X129794000Y-75565000D03*
D16*
X173228000Y-105410000D03*
D17*
X175768000Y-105410000D03*
X173228000Y-107950000D03*
X175768000Y-107950000D03*
X173228000Y-110490000D03*
X175768000Y-110490000D03*
D16*
X173228000Y-95885000D03*
D17*
X175768000Y-95885000D03*
X173228000Y-98425000D03*
X175768000Y-98425000D03*
X173228000Y-100965000D03*
X175768000Y-100965000D03*
D14*
X126238000Y-75565000D03*
X124968000Y-123825000D03*
M02*
